<?xml version="1.0" encoding="UTF-8"?>
<svg id="Layer_1" data-name="Layer 1" xmlns="http://www.w3.org/2000/svg" viewBox="0 0 640 640">
  <defs>
    <style>
      .cls-1 {
        fill: #f7941d;
      }

      .cls-1, .cls-2, .cls-3, .cls-4, .cls-5 {
        stroke: #231f20;
        stroke-miterlimit: 10;
        stroke-width: 8.5px;
      }

      .cls-6 {
        fill: #fff;
      }

      .cls-2 {
        fill: #8e8e8e;
      }

      .cls-3 {
        fill: #fff0bf;
      }

      .cls-4 {
        fill: #ffae2b;
      }

      .cls-5 {
        fill: none;
      }
    </style>
  </defs>
  <path class="cls-2" d="M203.45,399.59c-23.98,11.17-50.94,15.84-77.27,13.37-6.29-.59-12.8-1.66-17.97-5.29-5.19-3.63-8.61-10.46-6.5-16.41.73-2.07,2.08-3.9,3.83-5.22l1.27-.86c31.09-10.24,52.95-7.32,67.47-2.4,11.07,3.76,20.65,9.62,29.53,16.33,26.65,20.09,47.15,47.82,83.23,49.5,4.69.22,8.85-.05,9.27-.09,7.76-.57,25.42-3.15,59.66-30.4,8.65-6.88,20.22-16.82,32.85-30.07"/>
  <path class="cls-4" d="M406.87,197.36c-2.81,2.58-7.76,6.17-11.26,7.48-.92.34-1.85.65-2.8.93-4.12,1.18-8.5,1.68-12.9,1.7-2.99.03-5.98-.18-8.89-.55-5.4-.68-11.1-2.11-15.79-4.79-.45-.26-.92-.56-1.38-.89-3.25-2.3-6.61-6.17-8.18-9.53,1.42-1.13,3.54-2.64,6.3-4.06,9.96-5.12,19.48-4.45,25.92-3.91,7.48.62,16.36,1.37,23.97,7.97,2.37,2.06,3.99,4.15,5.01,5.65Z"/>
  <path class="cls-1" d="M388.83,388.03v.02c-12.64,13.25-24.21,23.19-32.86,30.07-34.24,27.25-51.9,29.83-59.66,30.4-.42.04-4.58.31-9.27.09-36.08-1.68-56.58-29.41-83.23-49.5-8.88-6.71-18.46-12.57-29.53-16.33-14.52-4.92-36.38-7.84-67.47,2.4,32.37-16.09,64.82-30.84,97.18-46.93,12.33-1.68,23.5-2.16,33.43-1.92,13.64.32,24.94,1.99,33.61,3.76,17.22,3.53,33.56,9.97,60.05,21.58.86.37,1.72.75,2.6,1.14,5.2,2.29,10.77,4.76,16.81,7.45,16.22,7.21,25.69,11.68,34.58,15.98l3.76,1.79Z"/>
  <path class="cls-6" d="M277.24,376.03c4.55,2.31,9.47,6.68,4.36,7.47-5.12.79-25.4-.8-27.87-.8s-2.22,1.77,3.74,6.88c5.94,5.13,10.48,9.9,6.97,11.22-3.52,1.33-34.48-15.1-42.46-19.25-7.99-4.14-18.57-10.51-11.1-21.33,0,0,13.17-6.05,33.96-5.01,20.77,1.03,25.44,2.17,21.05,6.51-4.24,2.94-12.21,4.54-8.96,6.58,3.25,2.06,15.77,5.44,20.31,7.73Z"/>
  <path class="cls-3" d="M488.73,255.03c37.41,52.02,26.17,111.87,24.22,121.41,0,0-28.92,18.61-57.38,22.1l-.14-1.2c7.28-67.92-20.98-135.25-59.75-191.51l-2.87-.06c.95-.28,1.88-.59,2.8-.93,3.5-1.31,8.45-4.9,11.26-7.48,1.23.34,3.19.89,5.01,1.46,17.99,5.55,52.81,22.78,76.85,56.21Z"/>
  <path class="cls-3" d="M395.68,205.83c38.77,56.26,67.03,123.59,59.75,191.51l.14,1.2c-4.82.59-9.88.92-15.15.91-23.02-.06-40.6-6.38-51.14-11.2l-.45-.22-3.76-1.79c-8.89-4.3-18.36-8.77-34.58-15.98-6.04-2.69-11.61-5.16-16.81-7.45-.88-.39-1.74-.77-2.6-1.14l2.93-.02c4.54-53.19,20.28-105.4,45.9-152.23v-1.95c4.4-.02,8.78-.52,12.9-1.7l2.87.06Z"/>
  <path class="cls-3" d="M379.91,207.47v1.95c-25.62,46.83-41.36,99.04-45.9,152.23l-2.93.02c-26.49-11.61-42.83-18.05-60.05-21.58-8.67-1.77-19.97-3.44-33.61-3.76v-.09c8.24-29.92,20.61-59.1,39.88-83.42,19.28-24.32,45.9-43.55,76.18-50.33l.37-1.25c.46.33.93.63,1.38.89,4.69,2.68,10.39,4.11,15.79,4.79,2.91.37,5.9.58,8.89.55Z"/>
  <path class="cls-3" d="M353.85,201.24l-.37,1.25c-30.28,6.78-56.9,26.01-76.18,50.33-19.27,24.32-31.64,53.5-39.88,83.42v.09c-9.93-.24-21.1.24-33.43,1.92l.24-1.26c5.74-29.65,10.49-55.57,22.96-77.93,2.49-4.46,12.05-20.92,30.57-36.13,4.03-3.3,25.09-20.18,58.2-27.64,11.46-2.59,20.22-3.06,29.71-3.58,1.57,3.36,4.93,7.23,8.18,9.53Z"/>
  <path class="cls-5" d="M345.67,191.71c1.57,3.36,4.93,7.23,8.18,9.53.46.33.93.63,1.38.89,4.69,2.68,10.39,4.11,15.79,4.79,2.91.37,5.9.58,8.89.55,4.4-.02,8.78-.52,12.9-1.7.95-.28,1.88-.59,2.8-.93,3.5-1.31,8.45-4.9,11.26-7.48"/>
  <path class="cls-5" d="M203.99,338.25c-32.36,16.09-64.81,30.84-97.18,46.93"/>
</svg>