<?xml version="1.0" encoding="UTF-8"?>
<svg width="640px" height="640px" viewBox="0 0 640 640" version="1.1" xmlns="http://www.w3.org/2000/svg" xmlns:xlink="http://www.w3.org/1999/xlink">
    <title>cap</title>
    <g id="cap" stroke="none" fill="none" fill-rule="evenodd" stroke-width="1">
        <g id="Layer_1" transform="translate(5, 120)">
            <path d="M155.83118,326.065075 C119.329004,342.883055 78.2906948,349.914386 38.2113668,346.19546 C28.6367761,345.307133 18.727303,343.6961 10.8575679,338.230633 C2.95738892,332.765166 -2.24850936,322.481656 0.963316772,313.523108 C2.07451728,310.406437 4.12947713,307.651119 6.79331397,305.663676 L8.72649843,304.368827 C56.0514627,288.951091 89.3265903,293.347555 111.428825,300.755295 C128.279496,306.416495 142.8621,315.239536 156.379169,325.342369 C196.945599,355.590643 228.150545,397.341994 283.071249,399.871466 C290.210332,400.202707 296.542653,399.796184 297.181974,399.735959 C308.994187,398.877745 335.876106,394.993198 387.995977,353.964554 C401.162942,343.605762 418.774709,328.639717 438,308.690009" id="Path" stroke="#231F20" stroke-width="8.5" fill="#8E8E8E" fill-rule="nonzero"></path>
            <path d="M465,20.8920042 C460.729902,24.7463774 453.207843,30.109633 447.889216,32.0666984 C446.491176,32.574639 445.077941,33.0377614 443.634314,33.4560654 C437.373529,35.2189182 430.717647,35.9658898 424.031373,35.9957686 C419.487745,36.0405869 414.944118,35.7268589 410.522059,35.1741 C402.316176,34.1582187 393.654412,32.0218801 386.527451,28.0181127 C385.843627,27.6296875 385.129412,27.1815046 384.430392,26.6885033 C379.491667,23.2524343 374.385784,17.4708746 372,12.4512259 C374.157843,10.7630703 377.379412,8.50721624 381.573529,6.38581708 C396.708824,-1.26317141 411.17549,-0.262229559 420.961765,0.544499696 C432.328431,1.4707444 445.822549,2.5912017 457.386765,12.4512259 C460.988235,15.5287486 463.45,18.6510897 465,20.8920042 Z" id="Path" stroke="#231F20" stroke-width="8.5" fill="#FFAE2B" fill-rule="nonzero"></path>
            <path d="M438,308.265356 L438,308.295599 C418.772427,328.331479 401.172505,343.362169 388.014396,353.765705 C335.929579,394.971571 309.06574,398.872897 297.261471,399.734818 C296.62258,399.795304 290.294518,400.203582 283.160237,399.870911 C228.27647,397.330513 197.092511,355.398818 156.553365,325.019888 C143.045387,314.873416 128.472591,306.012264 111.633253,300.326611 C89.5458833,292.886873 56.2931352,288.471419 9,303.955751 C58.2402312,279.625389 107.602156,257.321296 156.827175,232.990933 C175.583186,230.450535 192.57464,229.724707 207.679845,230.087621 C228.428587,230.571506 245.617793,233.096783 258.806326,235.773274 C285.000851,241.111135 309.856748,250.849329 350.152507,268.405296 C351.460712,268.964788 352.768917,269.539402 354.107546,270.129138 C362.017623,273.591943 370.490533,277.326933 379.678392,281.394595 C404.351748,292.297138 418.757216,299.056412 432.280406,305.558622 L438,308.265356 L438,308.265356 Z" id="Path" stroke="#231F20" stroke-width="8.5" fill="#F7941D" fill-rule="nonzero"></path>
            <path d="M268.042545,289.556736 C274.978845,293.037887 282.479195,299.623443 274.689197,300.813967 C266.883954,302.00449 235.967875,299.608373 232.202455,299.608373 C228.437035,299.608373 228.818151,302.275749 237.903941,309.976479 C246.959243,317.707348 253.880298,324.895701 248.529438,326.88493 C243.163333,328.88923 195.966006,304.129349 183.800803,297.875332 C171.620355,291.636385 155.491553,282.036845 166.87928,265.73119 C166.87928,265.73119 186.956438,256.613888 218.649993,258.18116 C250.313058,259.733362 257.432293,261.451333 250.739907,267.991678 C244.27619,272.422235 232.126232,274.833423 237.080732,277.907687 C242.035232,281.01209 261.12149,286.105724 268.042545,289.556736 L268.042545,289.556736 Z" id="Path" fill="#FFFFFF" fill-rule="nonzero"></path>
            <path d="M626.308435,290.714882 C626.308435,290.714882 582.423301,318.743662 539.236203,324 L539.023757,322.192663 C550.070914,219.897405 507.187308,118.490755 448.355129,33.756785 L444,33.6664181 C445.441593,33.2447062 446.852837,32.7778109 448.248906,32.2657322 C453.560039,30.2927229 461.071499,24.8857739 465.33558,21 C467.202064,21.5120787 470.176299,22.3404414 472.938088,23.1989263 C500.237311,31.5578586 553.075498,57.5082016 589.555394,107.85759 C646.323819,186.205637 629.267495,276.346555 626.308435,290.714882 Z" id="Path" stroke="#231F20" stroke-width="8.5" fill="#FFF0BF" fill-rule="nonzero"></path>
            <path d="M447.803224,32.0907682 C506.500299,117.201059 549.285424,219.058079 538.263637,321.807652 L538.475594,323.623015 C531.178202,324.515569 523.517454,325.014794 515.53877,325 C480.686909,324.908898 454.071109,315.347983 438.113741,308.056273 L437.432449,307.723457 L431.739877,305.01554 C418.280579,298.510487 403.943172,291.748258 379.386387,280.840949 C370.241937,276.771509 361.809058,273.034886 353.936353,269.570568 C352.604049,268.980574 351.302024,268.405709 350,267.845972 L354.435967,267.815716 C361.309444,187.34973 385.139518,108.36629 423.927731,37.5217306 L423.927731,34.5717649 C430.589251,34.5415089 437.220491,33.7851074 443.458096,32 L447.803224,32.0907682 L447.803224,32.0907682 Z" id="Path" stroke="#231F20" stroke-width="8.5" fill="#FFF0BF" fill-rule="nonzero"></path>
            <path d="M425,36.3976189 L425,39.3390887 C385.982946,109.979617 362.012282,188.735586 355.098253,268.969831 L350.636115,269 C310.294126,251.486941 285.409713,241.772549 259.185136,236.447734 C245.981472,233.777785 228.772545,231.25868 208,230.775977 L208,230.640217 C220.54881,185.507511 239.387255,141.491055 268.733806,104.805647 C298.095586,68.1202394 338.635553,39.1128218 384.749386,28.8855576 L385.312864,27 C386.013404,27.4977872 386.729174,27.950321 387.414485,28.342517 C394.556951,32.3851524 403.237561,34.5422303 411.461296,35.5679736 C415.892975,36.1260986 420.446487,36.4428723 425,36.3976189 Z" id="Path" stroke="#231F20" stroke-width="8.5" fill="#FFF0BF" fill-rule="nonzero"></path>
            <path d="M385,26.3723898 L384.437075,28.2575406 C338.368477,38.4825986 297.868277,67.4837587 268.5353,104.161253 C239.217536,140.838747 220.397571,184.845708 207.86107,229.968677 L207.86107,230.104408 C192.75337,229.742459 175.759109,230.466357 157,233 L157.365141,231.099768 C166.098092,186.383991 173.324837,147.293503 192.296944,113.571926 C196.08528,106.845708 210.630055,82.0220418 238.806753,59.0835267 C244.938076,54.1067285 276.979181,28.649652 327.353397,17.3990719 C344.78887,13.4930394 358.116509,12.7842227 372.554784,12 C374.943414,17.0672854 380.055385,22.9037123 385,26.3723898 Z" id="Path" stroke="#231F20" stroke-width="8.5" fill="#FFF0BF" fill-rule="nonzero"></path>
            <path d="M372,12 C374.385784,17.3289915 379.491667,23.4668478 384.430392,27.1146694 C385.129412,27.6380525 385.843627,28.1138553 386.527451,28.5262178 C393.654412,32.7767229 402.316176,35.0447163 410.522059,36.1232027 C414.944118,36.7100262 419.487745,37.0430882 424.031373,36.9955079 C430.717647,36.9637877 437.373529,36.170783 443.634314,34.2992919 C445.077941,33.8552093 446.491176,33.3635464 447.889216,32.8243032 C453.207843,30.7466309 460.729902,25.0528572 465,20.960953" id="Path" stroke="#231F20" stroke-width="8.5"></path>
            <path d="M157,233 C107.717432,256.999574 58.2977979,279.000426 9,303" id="Path" stroke="#231F20" stroke-width="8.5"></path>
        </g>
    </g>
</svg>