<?xml version="1.0" encoding="UTF-8"?>
<svg id="Layer_1" data-name="Layer 1" xmlns="http://www.w3.org/2000/svg" viewBox="0 0 640 640">
  <defs>
    <style>
      .cls-1 {
        fill: none;
        stroke-width: 13.61px;
      }

      .cls-1, .cls-2, .cls-3, .cls-4 {
        stroke: #231f20;
        stroke-miterlimit: 10;
      }

      .cls-5 {
        fill: #fff;
      }

      .cls-2 {
        fill: #f7941d;
        stroke-width: 8.5px;
      }

      .cls-3 {
        stroke-width: 8.5px;
      }

      .cls-3, .cls-4 {
        fill: #fff0bf;
      }

      .cls-4 {
        stroke-width: 9.81px;
      }
    </style>
  </defs>
  <path class="cls-2" d="M159.38,282.79c-21.04,12.71-25.49,34.12-28.96,50.77-9.42,45.28,2.76,112.47,46.93,125.04,20.11,5.72,38.52-2.24,41.18-3.43,38.43-17.24,39.62-69.85,40.07-89.51.6-26.57,1.52-66.57-30.19-84.01-19.46-10.71-48.36-11.36-69.04,1.14Z"/>
  <path class="cls-3" d="M193.96,286.38s50.62-20.97,62.27,47.99c11.65,68.96-16.91,109.47-37.29,114.75-20.38,5.27-61.86-9.26-62.15-81.73-.28-72.47,37.17-81,37.17-81Z"/>
  <path class="cls-4" d="M388.32,286.6s60.18-24.39,74.42,56.7c14.25,81.09-19.55,128.55-43.79,134.64-24.24,6.09-73.73-11.19-74.46-96.34-.73-85.16,43.83-95,43.83-95Z"/>
  <path class="cls-1" d="M187.83,275.01c-.46-8.53-2.25-56.92,34.4-94.49,47.33-48.53,114.82-33.94,120.21-32.68,9.52,2.23,29.68,7.2,48.35,23.69,43.4,38.34,36.35,101.48,35.97,104.47-.12.95-.23,1.73-.31,2.26"/>
  <path class="cls-2" d="M391.4,289.58c-19.22,13.57-23.16,36.64-26.23,54.59-8.34,48.81,3.3,121.42,43.93,135.32,18.49,6.32,35.34-2.14,37.77-3.41,35.15-18.33,35.89-75.12,36.16-96.33.37-28.68.94-71.85-28.28-90.91-17.93-11.7-44.45-12.61-63.36.73Z"/>
  <path class="cls-5" d="M413.86,434.64s-11.52-18.89-13.63-50.58c-2.11-31.68-1.21-38.96,6.14-33.08,5.21,5.91,9.04,17.7,11.58,12.41,2.54-5.29,5.44-24.86,8.12-32.16,2.68-7.3,8.42-15.54,10.54-7.92,2.11,7.62,3.3,38.63,3.73,42.39.44,3.76,3.08,3.04,9.78-6.88,6.7-9.92,13.14-17.66,15.77-12.56,2.63,5.09-16.78,54.93-21.66,67.78-4.87,12.84-12.63,30.02-30.37,20.61"/>
</svg>