<?xml version="1.0" encoding="UTF-8"?>
<svg width="640px" height="640px" viewBox="0 0 640 640" version="1.1" xmlns="http://www.w3.org/2000/svg" xmlns:xlink="http://www.w3.org/1999/xlink">
    <title>headphone</title>
    <g id="headphone" stroke="none" fill="none" fill-rule="evenodd" stroke-width="1">
        <g id="Layer_1" transform="translate(4, 21)">
            <path d="M56.4201962,244.454781 C19.2554892,267.004277 11.395083,304.988911 5.26573258,334.528573 C-11.3735992,414.862261 10.1409508,534.06766 88.1621061,556.368775 C123.684077,566.516935 156.203195,552.39467 160.901775,550.283427 C228.78389,519.697014 230.885886,426.358778 231.680758,391.478913 C232.740588,344.339644 234.365661,273.373489 178.353643,242.432246 C143.979822,223.431057 92.9313413,222.277857 56.4025324,244.454781 L56.4201962,244.454781 Z" id="Path" stroke="#231F20" stroke-width="8.5" fill="#F7941D" fill-rule="nonzero"></path>
            <path d="M118.232451,250.32487 C118.232451,250.32487 208.427387,213.092964 229.185408,335.530364 C249.943428,457.967763 199.055096,529.892634 162.741924,539.267191 C126.428751,548.623994 52.519507,522.826206 52.0027837,394.156856 C51.5038785,265.487507 118.232451,250.342625 118.232451,250.342625 L118.232451,250.32487 Z" id="Path" stroke="#231F20" stroke-width="8.5" fill="#FFF0BF" fill-rule="nonzero"></path>
            <path d="M464.841621,251.095374 C464.841621,251.095374 571.69904,207.890327 596.984013,351.535152 C622.286742,495.179976 562.270445,579.25179 519.229171,590.039766 C476.187898,600.827742 388.311964,570.217524 387.015754,419.380716 C385.719544,268.526193 464.841621,251.095374 464.841621,251.095374 Z" id="Path" stroke="#231F20" stroke-width="9.81" fill="#FFF0BF" fill-rule="nonzero"></path>
            <path d="M107.289896,230.252175 C106.470585,215.166345 103.282395,129.585653 168.560139,63.1407958 C252.860156,-22.6874954 373.067384,3.1158174 382.667577,5.34420493 C399.62376,9.28809715 435.530972,18.077848 468.784327,47.2414276 C546.084575,115.048077 533.527738,226.715052 532.850915,232.003051 C532.637182,233.683184 532.44126,235.062662 532.298771,236" id="Path" stroke="#231F20" stroke-width="13.61"></path>
            <path d="M468.328892,256.355302 C434.031501,280.472919 427.000715,321.474644 421.522411,353.376723 C406.639985,440.125497 427.411141,569.173406 499.913897,593.877523 C532.908629,605.109899 562.976841,590.074156 567.313088,587.817017 C630.036983,555.239573 631.357486,454.308148 631.839291,416.612154 C632.499543,365.639918 633.516687,288.914973 581.374661,255.040119 C549.379228,234.246006 502.055254,232.628686 468.311047,256.337529 L468.328892,256.355302 Z" id="Path" stroke="#231F20" stroke-width="8.5" fill="#F7941D" fill-rule="nonzero"></path>
            <path d="M509.012859,515.180905 C509.012859,515.180905 488.520524,481.622253 484.767154,425.324015 C481.013784,369.043543 482.614747,356.110405 495.689284,366.556401 C504.957084,377.055694 511.770074,398.000983 516.288349,388.603139 C520.806624,379.205295 525.965285,344.438602 530.732599,331.469933 C535.499913,318.501263 545.710503,303.862656 549.481662,317.399815 C553.235032,330.936974 555.351862,386.027171 556.116766,392.706924 C556.89946,399.386677 561.59562,398.107575 573.513905,380.484397 C585.432189,362.861219 596.887974,349.110876 601.566345,358.171179 C606.244717,367.213717 571.717268,455.755975 563.036487,478.584386 C554.373495,501.395032 540.569631,531.915818 509.012859,515.198671" id="Path" fill="#FFFFFF" fill-rule="nonzero"></path>
        </g>
    </g>
</svg>