<?xml version="1.0" encoding="UTF-8"?>
<svg id="Layer_1" data-name="Layer 1" xmlns="http://www.w3.org/2000/svg" viewBox="0 0 640 640">
  <defs>
    <style>
      .cls-1 {
        fill: #d8d8d8;
      }

      .cls-1, .cls-2 {
        stroke-width: 8.5px;
      }

      .cls-1, .cls-2, .cls-3, .cls-4 {
        stroke: #231f20;
        stroke-miterlimit: 10;
      }

      .cls-2 {
        fill: #a5a5a5;
      }

      .cls-5 {
        fill: #f1f2f2;
      }

      .cls-3 {
        fill: #f7941d;
      }

      .cls-3, .cls-4 {
        stroke-width: 8.5px;
      }

      .cls-6 {
        fill: #231f20;
      }

      .cls-4 {
        fill: none;
      }
    </style>
  </defs>
  <path class="cls-3" d="M482.76,369.86c-15.89-12.78-27.61-22.09-27.61-22.16l-17.44,21.79s11.13,11.75,22.89,24.13c9.8,10.33,20.04,21.11,24.62,25.88.2.21.41.43.63.66,4.45,4.65,14.18,14.96,25.35,25.35,17.09,15.9,37.55,31.98,47.58,28.24,16.91-6.3,12.3-23.84,8.88-31.71-1.12-2.59-13.63-13.63-29.94-27.29-8-6.7-16.91-14.04-25.83-21.32-10.14-8.27-20.3-16.48-29.13-23.57Z"/>
  <path class="cls-1" d="M422.57,385.73l.04.03c-32.9,38.01-69.11,78.78-69.11,78.78-30.67-30.56-188.4-188.45-211.72-242.45-2.02-4.66-7.79-11.8-3.4-16.82,9.05-10.36,31.84-30.09,54.93-46.82,116.74,158.35,229.26,227.28,229.26,227.28Z"/>
  <path class="cls-2" d="M240.78,130.82l233.48,192.64c-4.55,7.3-27.18,34.04-51.65,62.3l-.04-.03s-112.52-68.93-229.26-227.28c17.63-12.79,35.45-23.84,47.47-27.63Z"/>
  <polyline class="cls-4" points="483.34 369.23 482.76 369.86 460.6 393.62"/>
  <g>
    <polygon class="cls-5" points="458.35 310.48 242.18 354.66 267.95 375.22 454.5 345.22 471.97 322.62 458.35 310.48"/>
    <polygon class="cls-5" points="437.71 364.32 277.63 385.73 285.54 394.26 430.56 372.09 437.71 364.32"/>
    <polygon class="cls-5" points="306.44 189.98 150.66 238.25 160.38 252.82 321.53 200.25 306.44 189.98"/>
    <polygon class="cls-5" points="300.61 179.3 146.83 223.35 146.15 228.75 300.92 182.63 300.61 179.3"/>
  </g>
  <line class="cls-4" x1="511.89" y1="393.43" x2="485.85" y2="420.16"/>
  <line class="cls-4" x1="537.72" y1="414.75" x2="511.2" y2="445.51"/>
  <path class="cls-4" d="M422.61,385.76c24.47-28.26,47.1-55,51.65-62.3l-233.48-192.64c-12.02,3.79-29.84,14.84-47.47,27.63-23.09,16.73-45.88,36.46-54.93,46.82-4.39,5.02,1.38,12.16,3.4,16.82,23.32,54,181.05,211.89,211.72,242.45,0,0,36.21-40.77,69.11-78.78Z"/>
  <path class="cls-4" d="M422.57,385.73s-112.52-68.93-229.26-227.28"/>
  <ellipse class="cls-6" cx="547.12" cy="449.61" rx="8.46" ry="7.95" transform="translate(-154.84 543.08) rotate(-47)"/>
</svg>