<?xml version="1.0" encoding="UTF-8"?>
<svg width="640px" height="640px" viewBox="0 0 640 640" version="1.1" xmlns="http://www.w3.org/2000/svg" xmlns:xlink="http://www.w3.org/1999/xlink">
    <title>knife</title>
    <g id="knife" stroke="none" fill="none" fill-rule="evenodd" stroke-width="1">
        <g id="Layer_1" transform="translate(7, 73)">
            <path d="M498.926483,344.857836 C476.025666,326.484951 459.134692,313.100634 459.134692,313 L434,344.325914 C434,344.325914 450.040661,361.218043 466.989283,379.015877 C481.113135,393.866574 495.871119,409.364204 502.471859,416.221689 C502.7601,416.523591 503.062754,416.839869 503.37982,417.170524 C509.793202,423.855494 523.81617,438.677439 539.914479,453.614393 C564.544747,476.472678 594.031892,499.589736 608.487222,494.213008 C632.858073,485.155951 626.214098,459.939956 621.285161,448.625824 C619.671007,444.902368 601.641477,429.030955 578.135352,409.392956 C566.605677,399.760849 553.764501,389.20866 540.908913,378.742728 C526.29505,366.853544 511.652362,355.050619 498.926483,344.857836 L498.926483,344.857836 Z" id="Path" stroke="#231F20" stroke-width="8.5" fill="#F7941D" fill-rule="nonzero"></path>
            <path d="M411.942345,367.454278 L412,367.497501 C364.578815,422.260512 312.386683,481 312.386683,481 C268.17976,436.970597 40.8319314,209.49015 7.21910328,131.689503 C4.30752897,124.975595 -4.00919564,114.688621 2.31843366,107.456042 C15.3628631,92.5298442 48.2117633,64.103793 81.4930755,40 C249.759008,268.143193 411.942345,367.454278 411.942345,367.454278 Z" id="Path" stroke="#231F20" stroke-width="8.5" fill="#D8D8D8" fill-rule="nonzero"></path>
            <path d="M149.429792,0 L486,277.315761 C479.441004,287.824508 446.819007,326.318193 411.544581,367 L411.486919,366.956813 C411.486919,366.956813 249.285104,267.728328 81,39.7748882 C106.414309,21.3629874 132.102509,5.45591119 149.429792,0 Z" id="Path" stroke="#231F20" stroke-width="8.5" fill="#A5A5A5" fill-rule="nonzero"></path>
            <polyline id="Path" stroke="#231F20" stroke-width="8.5" points="499 344 498.158311 344.929889 466 380"></polyline>
            <g id="Group" transform="translate(13, 70)" fill="#F1F2F2" fill-rule="nonzero">
                <polygon id="Path" points="450.352956 189.178452 138.524646 252.891701 175.698238 282.541868 444.799276 239.278005 470 206.685895"></polygon>
                <polygon id="Path" points="420.579461 266.822665 189.661776 297.698642 201.072064 310 410.265484 278.028005"></polygon>
                <polygon id="Path" points="231.220613 15.4019352 6.50573937 85.0134909 20.5269781 106.025307 252.988153 30.2125977"></polygon>
                <polygon id="Path" points="222.810754 0 0.980909705 63.5257722 0 71.3132676 223.257934 4.8022888"></polygon>
            </g>
            <line x1="541" y1="378" x2="503" y2="417" id="Path" stroke="#231F20" stroke-width="8.5"></line>
            <line x1="578" y1="410" x2="540" y2="454" id="Path" stroke="#231F20" stroke-width="8.5"></line>
            <path d="M411.621463,367.452175 C446.859465,326.720245 479.447777,288.179132 486,277.657437 L149.777333,0 C132.467942,5.46263335 106.806267,21.3893084 81.4182014,39.8238943 C48.1674673,63.9373127 15.348748,92.3747153 2.31630353,107.306874 C-4.00551208,114.542341 4.30357131,124.833423 7.21247052,131.550012 C40.7944159,209.381727 267.933363,436.953015 312.099669,481 C312.099669,481 364.243847,422.237055 411.621463,367.452175 Z" id="Path" stroke="#231F20" stroke-width="8.5"></path>
            <path d="M412,367 C412,367 249.546367,267.82669 81,40" id="Path" stroke="#231F20" stroke-width="8.5"></path>
            <ellipse id="Oval" fill="#231F20" fill-rule="nonzero" transform="translate(591.5894, 459.7016) rotate(-47) translate(-591.5894, -459.7016)" cx="591.589406" cy="459.701624" rx="12.1949099" ry="11.4601563"></ellipse>
        </g>
    </g>
</svg>