<?xml version="1.0" encoding="UTF-8"?>
<svg width="640px" height="640px" viewBox="0 0 640 640" version="1.1" xmlns="http://www.w3.org/2000/svg" xmlns:xlink="http://www.w3.org/1999/xlink">
    <title>spear</title>
    <g id="spear" stroke="none" fill="none" fill-rule="evenodd" stroke-width="1">
        <g id="Layer_1" transform="translate(4, 44.0138)">
            <path d="M249,211.612928 L177.34947,262.986247 C177.34947,262.986247 155.847107,245.491549 127.741562,216.683855 C125.460463,214.34157 123.13134,211.938916 120.778206,209.451747 C117.764754,206.288455 114.691273,202.992352 111.581774,199.599661 C105.746962,193.236855 99.768081,186.487693 93.7531823,179.400469 C73.1752652,155.168682 52.1891514,126.976744 35.1289296,96.6477717 C32.6317261,92.2167475 30.2185632,87.7253551 27.9014465,83.2098154 C26.4847637,80.408732 25.0920926,77.6076486 23.7474446,74.7824179 C23.1231437,73.4784653 22.4988428,72.1745127 21.8865477,70.8584864 C11.2614272,47.8702846 3.38563163,24.0127811 2.27373675e-13,-0.0137533882 L63.1864513,53.6897769 L66.3319672,56.3580503 L73.691514,62.6242671 L85.6132594,72.7540472 L174.444069,148.250489 L201.168949,170.960998 L249,211.612928 Z" id="Path" stroke="#231F20" stroke-width="8.5" fill="#C4C4C4" fill-rule="nonzero"></path>
            <g id="Group" transform="translate(22, 53.9862)" fill="#F1F2F2" fill-rule="nonzero">
                <path d="M180.221007,116.556 L90.1648124,145.02 C84.2994531,138.696 78.2892702,131.988 72.2428814,124.944 L153.356213,93.984 L180.221007,116.556 Z" id="Path"></path>
                <path d="M192,129.3 L187.727701,137.28 L106.409202,162 C104.116161,159.672 101.774844,157.284 99.4093909,154.812 L192,129.3 L192,129.3 Z" id="Path"></path>
                <path d="M64.0603432,18.948 L13.3117104,42.696 C10.8014332,38.292 8.37563643,33.828 6.04638884,29.34 L52.0761833,8.88 L64.0603432,18.948 L64.0603432,18.948 Z" id="Path"></path>
                <path d="M44.6781067,2.652 L1.87063926,20.964 C1.24306996,19.668 0.61550066,18.372 0,17.064 L41.5161229,0 L44.6781067,2.652 L44.6781067,2.652 Z" id="Path"></path>
            </g>
            <path d="M249,211.612928 L177.34947,262.986247 C177.34947,262.986247 155.847107,245.491549 127.741562,216.683855 C125.460463,214.34157 123.13134,211.938916 120.778206,209.451747 C117.764754,206.288455 114.691273,202.992352 111.581774,199.599661 C105.746962,193.236855 99.768081,186.487693 93.7531823,179.400469 C73.1752652,155.168682 52.1891514,126.976744 35.1289296,96.6477717 C32.6317261,92.2167475 30.2185632,87.7253551 27.9014465,83.2098154 C26.4847637,80.408732 25.0920926,77.6076486 23.7474446,74.7824179 C23.1231437,73.4784653 22.4988428,72.1745127 21.8865477,70.8584864 C11.2614272,47.8702846 3.38563163,24.0127811 2.27373675e-13,-0.0137533882 L63.1864513,53.6897769 L66.3319672,56.3580503 L73.691514,62.6242671 L85.6132594,72.7540472 L174.444069,148.250489 L201.168949,170.960998 L249,211.612928 Z" id="Path" stroke="#231F20" stroke-width="8.5"></path>
            <path d="M411.022823,98.1251436 L416.211507,98.1175674 C423.217238,98.1158302 428.897914,103.79369 428.899652,110.799422 C428.899652,110.801519 428.899652,110.803616 428.899652,110.805713 L428.759377,625.721778 C428.757641,632.725053 423.080798,638.401895 416.077523,638.403632 L410.888842,638.417501 C403.88311,638.419238 398.202434,632.741378 398.200697,625.735646 C398.200696,625.733549 398.200696,625.731452 398.200697,625.729355 L398.340971,110.81329 C398.342708,103.810015 404.01955,98.1331728 411.022825,98.1314362 Z" id="Rectangle" stroke="#231F20" stroke-width="8.5" fill="#F7941D" fill-rule="nonzero" transform="translate(413.5502, 368.2675) rotate(-50.26) translate(-413.5502, -368.2675)"></path>
        </g>
    </g>
</svg>