<?xml version="1.0" encoding="UTF-8"?>
<svg id="Layer_1" data-name="Layer 1" xmlns="http://www.w3.org/2000/svg" viewBox="0 0 640 640">
  <defs>
    <style>
      .cls-1 {
        fill: #f1f2f2;
      }

      .cls-2 {
        fill: #f7941d;
      }

      .cls-2, .cls-3, .cls-4 {
        stroke: #231f20;
        stroke-miterlimit: 10;
        stroke-width: 8.5px;
      }

      .cls-3 {
        fill: #c4c4c4;
      }

      .cls-4 {
        fill: none;
      }
    </style>
  </defs>
  <path class="cls-3" d="M267.85,255.34l-59.68,42.55s-17.91-14.49-41.32-38.35c-1.9-1.94-3.84-3.93-5.8-5.99-2.51-2.62-5.07-5.35-7.66-8.16-4.86-5.27-9.84-10.86-14.85-16.73-17.14-20.07-34.62-43.42-48.83-68.54-2.08-3.67-4.09-7.39-6.02-11.13-1.18-2.32-2.34-4.64-3.46-6.98-.52-1.08-1.04-2.16-1.55-3.25-8.85-19.04-15.41-38.8-18.23-58.7l52.63,44.48,2.62,2.21,6.13,5.19,9.93,8.39,73.99,62.53,22.26,18.81,39.84,33.67Z"/>
  <g>
    <path class="cls-1" d="M228.01,221.67l-74.62,23.72c-4.86-5.27-9.84-10.86-14.85-16.73l67.21-25.8,22.26,18.81Z"/>
    <path class="cls-1" d="M237.77,232.29l-3.54,6.65-67.38,20.6c-1.9-1.94-3.84-3.93-5.8-5.99l76.72-21.26Z"/>
    <path class="cls-1" d="M131.76,140.33l-42.05,19.79c-2.08-3.67-4.09-7.39-6.02-11.13l38.14-17.05,9.93,8.39Z"/>
    <path class="cls-1" d="M115.7,126.75l-35.47,15.26c-.52-1.08-1.04-2.16-1.55-3.25l34.4-14.22,2.62,2.21Z"/>
  </g>
  <path class="cls-4" d="M267.85,255.34l-59.68,42.55s-17.91-14.49-41.32-38.35c-1.9-1.94-3.84-3.93-5.8-5.99-2.51-2.62-5.07-5.35-7.66-8.16-4.86-5.27-9.84-10.86-14.85-16.73-17.14-20.07-34.62-43.42-48.83-68.54-2.08-3.67-4.09-7.39-6.02-11.13-1.18-2.32-2.34-4.64-3.46-6.98-.52-1.08-1.04-2.16-1.55-3.25-8.85-19.04-15.41-38.8-18.23-58.7l52.63,44.48,2.62,2.21,6.13,5.19,9.93,8.39,73.99,62.53,22.26,18.81,39.84,33.67Z"/>
  <rect class="cls-2" x="391.46" y="161.04" width="25.37" height="448.59" rx="12.69" ry="12.69" transform="translate(-150.54 449.74) rotate(-50.26)"/>
</svg>