<?xml version="1.0" encoding="UTF-8"?>
<svg id="Layer_1" data-name="Layer 1" xmlns="http://www.w3.org/2000/svg" viewBox="0 0 640 640">
  <defs>
    <style>
      .cls-1 {
        fill: #fff0bf;
      }

      .cls-1, .cls-2, .cls-3 {
        stroke: #231f20;
        stroke-linecap: round;
        stroke-linejoin: round;
      }

      .cls-1, .cls-3 {
        stroke-width: 19.84px;
      }

      .cls-2 {
        stroke-width: 19.57px;
      }

      .cls-2, .cls-3 {
        fill: none;
      }
    </style>
  </defs>
  <path class="cls-1" d="M38.17,274.19c5.07-28.92,26.54-52.47,55.03-59.58,2.61-.65,5.4-1.33,8.69-2.03,0,0,12.54-2.67,25.8-3.99,76.76-7.62,106,7.89,106,7.89,58.51,31.05,73.18,155.66,24.76,199.38-14.13,12.76-32.14,17.29-56.43,23.39-25.26,6.34-58.58,14.69-89.4,4.13-61.03-20.92-85.25-107.56-74.45-169.21h0Z"/>
  <path class="cls-1" d="M319.59,223.06c21.85-59.19,130.95-68.42,186.79-65.32,36.76,1.42,69.49,13.64,83.3,49.36,15.95,38.02,21.42,96.99,3.33,139.26-20.34,48.7-74.94,68.57-124.96,71.86-72.27,3.98-126.81-20.12-143.78-95.14-7.42-30.51-13.63-73.55-4.89-99.46l.19-.57h.01Z"/>
  <path class="cls-2" d="M263.04,244.44s16.34-13.95,52.09-9.45"/>
  <path class="cls-3" d="M448.24,285c-5.88-3.08-11.02-5.39-14.07-9.96-4.43-5.95,2.47-16.52,9.85-19.46,7.86-3.91,18.69-3.12,26.94,2.65,27.28,19.87,15.51,48.09-16.43,59.04-20.18,6.92-51.78-4.46-56.84-40.88-3.7-26.61,19.74-63.56,72.2-49.95,26.18,6.55,45.19,28.5,47.2,53.92,1.88,23.85-11.67,44.94-29.17,55.78-14.8,9.18-29.73,9.35-36.13,9.05"/>
  <path class="cls-3" d="M158.94,335.11c4.83,3.87,8.74,7.39,13.77,8.29,6.74,1.56,13.18-8.3,12.93-15.7.4-8.18-4.34-17.12-12.37-22.01-27.21-15.84-46.89,4.78-44.26,36.17,1.66,19.83,23.22,42.55,56.22,33.23,24.11-6.82,46.87-40.67,15.59-80.39-15.41-19.91-41.29-27.91-63.74-20.09-21.07,7.33-34,26.82-36.71,45.82-2.29,16.09,3.16,28.89,5.81,34.25"/>
</svg>