<?xml version="1.0" encoding="UTF-8"?>
<svg id="Layer_1" data-name="Layer 1" xmlns="http://www.w3.org/2000/svg" viewBox="0 0 640 640">
  <defs>
    <style>
      .cls-1 {
        fill: #fff0bf;
      }

      .cls-1, .cls-2, .cls-3 {
        stroke: #231f20;
      }

      .cls-1, .cls-3 {
        stroke-linecap: round;
        stroke-linejoin: round;
        stroke-width: 19.84px;
      }

      .cls-4 {
        fill: #fff;
      }

      .cls-2 {
        fill: none;
        stroke-miterlimit: 10;
        stroke-width: 25.98px;
      }

      .cls-3 {
        fill: #f7941d;
      }
    </style>
  </defs>
  <path class="cls-3" d="M105.13,257.31c-30.98,18.71-37.54,50.24-42.64,74.77-13.88,66.69,4.07,165.63,69.12,184.15,29.61,8.43,56.73-3.29,60.65-5.05,56.59-25.39,58.35-102.88,59.01-131.82.89-39.13,2.23-98.04-44.45-123.73-28.65-15.77-71.21-16.72-101.68,1.68Z"/>
  <path class="cls-1" d="M156.04,262.6s74.55-30.88,91.71,70.68c17.15,101.56-24.91,161.23-54.92,168.99-30.01,7.76-91.11-13.64-91.52-120.37-.41-106.73,54.74-119.3,54.74-119.3Z"/>
  <path class="cls-1" d="M442.29,262.92s88.62-35.92,109.61,83.5c20.98,119.42-28.79,189.32-64.49,198.29-35.7,8.97-108.59-16.47-109.66-141.89-1.07-125.42,64.54-139.9,64.54-139.9Z"/>
  <path class="cls-2" d="M147.05,247.47c-.65-10.55-3.11-70.39,51-116.99,69.88-60.19,169.22-42.39,177.15-40.85,14.01,2.72,43.68,8.8,71.12,29.13,63.78,47.27,53.17,125.39,52.59,129.09-.18,1.17-.35,2.14-.47,2.79"/>
  <path class="cls-3" d="M446.83,267.32c-28.3,19.98-34.11,53.97-38.63,80.4-12.28,71.89,4.86,178.83,64.69,199.29,27.24,9.31,52.04-3.15,55.63-5.01,51.76-27,52.85-110.63,53.26-141.87.55-42.23,1.38-105.81-41.64-133.89-26.4-17.23-65.47-18.57-93.31,1.08Z"/>
  <path class="cls-4" d="M479.9,480.95s-16.97-27.82-20.07-74.49c-3.1-46.66-1.78-57.38,9.04-48.71,7.67,8.71,13.32,26.07,17.05,18.28,3.73-7.79,8.01-36.61,11.95-47.37,3.95-10.75,12.41-22.89,15.52-11.66,3.11,11.23,4.86,56.9,5.5,62.43.64,5.53,4.53,4.47,14.4-10.14,9.87-14.61,19.35-26,23.23-18.5,3.88,7.5-24.72,80.9-31.89,99.82-7.17,18.92-18.6,44.21-44.72,30.35"/>
</svg>