<?xml version="1.0" encoding="UTF-8"?>
<svg id="Layer_1" data-name="Layer 1" xmlns="http://www.w3.org/2000/svg" xmlns:xlink="http://www.w3.org/1999/xlink" viewBox="0 0 640 640">
  <defs>
    <style>
      .cls-1 {
        stroke: #f7941d;
      }

      .cls-1, .cls-2 {
        fill: none;
        stroke-miterlimit: 10;
        stroke-width: 19.84px;
      }

      .cls-3 {
        fill: #f7941d;
      }

      .cls-4 {
        fill: #fff;
      }

      .cls-5 {
        mask: url(#mask);
      }

      .cls-2 {
        stroke: #231f20;
      }

      .cls-6 {
        filter: url(#luminosity-noclip);
      }
    </style>
    <filter id="luminosity-noclip" x="205.58" y="271.69" width="83.45" height="99.98" color-interpolation-filters="sRGB" filterUnits="userSpaceOnUse">
      <feFlood flood-color="#fff" result="bg"/>
      <feBlend in="SourceGraphic" in2="bg"/>
    </filter>
    <mask id="mask" x="205.58" y="271.69" width="83.45" height="99.98" maskUnits="userSpaceOnUse">
      <g class="cls-6">
        <path d="M243.6,273.63s2.58,10.77,10.29,18.39c6.62,5.76-14.76,13.3-14.76,13.3,0,0-10.69-12.03-14.67-26.19-2.92-5.68,19.14-5.5,19.14-5.5Z"/>
      </g>
    </mask>
  </defs>
  <path class="cls-1" d="M245.04,297.08c-22.21-25.34-12.16-67.32-7.15-88.25,19.39-80.97,101.19-171.7,197.62-162.22,47.04,4.63,94.32,32.82,120.22,75.29,9.07,14.88,28.44,46.68,19.46,79.71-12.04,44.26-67,61.24-141.08,84.14-79.04,24.42-156.84,48.14-189.06,11.33Z"/>
  <g>
    <g class="cls-5">
      <path class="cls-2" d="M230.71,360.83h0c-12.47-3.49-18.37-15.97-13.5-27.93l13.76-33.8c4.79-11.77,18.73-19.41,31.47-17.06h0c13.1,2.42,20.02,14.44,15.08,26.84l-14.18,35.64c-5.02,12.62-19.78,19.9-32.62,16.31Z"/>
    </g>
    <g>
      <g>
        <path class="cls-3" d="M354.62,497.94c-4.98,19.79-26.56,30.77-37.92,45.22-12.18,15.49-18.39,38.8-35.38,47.25-17.21,8.55-39.6-.65-59.02-.3-18.72.34-40.68,10.68-58.96,2.51-15.25-6.82-20.19-28.03-31.13-39.22-11.38-11.64-32.32-17.2-38.63-31.87-6.35-14.77,4.04-33.91,3.25-50.02-.78-15.91-13.05-33.96-7.99-49.48,4.86-14.91,25.05-21.8,34.49-33.82,9.57-12.19,11.48-33.38,24.5-41.63,13-8.23,32.9-.89,48.09-4.23,14.79-3.25,29.82-18.38,45.52-16.08,18.63,2.73,30.94,22.8,46.11,32.47,15.51,9.89,38.84,12.73,48.93,28.05,9.92,15.06,3.43,37.49,6.39,56.02,2.76,17.28,16.48,36.32,11.75,55.14Z"/>
        <path class="cls-2" d="M354.62,497.94c-4.98,19.79-26.56,30.77-37.92,45.22-12.18,15.49-18.39,38.8-35.38,47.25-17.21,8.55-39.6-.65-59.02-.3-18.72.34-40.68,10.68-58.96,2.51-15.25-6.82-20.19-28.03-31.13-39.22-11.38-11.64-32.32-17.2-38.63-31.87-6.35-14.77,4.04-33.91,3.25-50.02-.78-15.91-13.05-33.96-7.99-49.48,4.86-14.91,25.05-21.8,34.49-33.82,9.57-12.19,11.48-33.38,24.5-41.63,13-8.23,32.9-.89,48.09-4.23,14.79-3.25,29.82-18.38,45.52-16.08,18.63,2.73,30.94,22.8,46.11,32.47,15.51,9.89,38.84,12.73,48.93,28.05,9.92,15.06,3.43,37.49,6.39,56.02,2.76,17.28,16.48,36.32,11.75,55.14Z"/>
      </g>
      <path class="cls-4" d="M155.63,518.98c.37,1.28.99,2.47,1.82,3.47,16.82,20.3,34.72,2.1,47.18-12.27,12.88-14.86,64.55-73.37,63.24-81.53-1.3-8.07-14.14-.44-28.21,9.87-13.87,10.16-17.73,9.9-16.49,4.72,1.24-5.15,14.48-46.17,15.28-56.79.79-10.51-10.58-2.04-17.46,6.26-6.85,8.27-19.76,32.05-25.43,37.75-5.65,5.67-4.78-10.85-8.33-20.31-6.04-10.04-10.48-1.42-22.87,38.85-11.29,36.69-9.58,62.86-9.07,68.17.06.61.17,1.21.34,1.8h0Z"/>
    </g>
  </g>
</svg>