<?xml version="1.0" encoding="UTF-8"?>
<svg id="Layer_1" data-name="Layer 1" xmlns="http://www.w3.org/2000/svg" viewBox="0 0 640 640">
  <defs>
    <style>
      .cls-1 {
        fill: #f1f2f2;
      }

      .cls-2 {
        fill: #c4c4c4;
        stroke-linejoin: round;
        stroke-width: 17.89px;
      }

      .cls-2, .cls-3, .cls-4 {
        stroke: #231f20;
        stroke-linecap: round;
      }

      .cls-3 {
        fill: none;
      }

      .cls-3, .cls-4 {
        stroke-linejoin: bevel;
        stroke-width: 19.84px;
      }

      .cls-4 {
        fill: #f7941d;
      }
    </style>
  </defs>
  <path class="cls-2" d="M290.41,273.52l-75.31,53.69s-22.6-18.29-52.14-48.39c-2.4-2.45-4.85-4.96-7.32-7.56-3.17-3.31-6.4-6.75-9.67-10.3-6.13-6.65-12.42-13.7-18.74-21.11-21.63-25.33-43.69-54.79-61.62-86.49-2.62-4.63-5.16-9.33-7.6-14.05-1.49-2.93-2.95-5.86-4.37-8.81-.66-1.36-1.31-2.73-1.96-4.1-11.17-24.03-19.45-48.96-23-74.07l66.42,56.13,3.31,2.79,7.74,6.55,12.53,10.59,93.37,78.91,28.09,23.74,50.27,42.49Z"/>
  <g>
    <path class="cls-1" d="M240.14,231.03l-94.16,29.93c-6.13-6.65-12.42-13.7-18.74-21.11l84.81-32.56,28.09,23.74Z"/>
    <path class="cls-1" d="M252.45,244.43l-4.47,8.39-85.03,26c-2.4-2.45-4.85-4.96-7.32-7.56l96.81-26.83Z"/>
    <path class="cls-1" d="M118.68,128.38l-53.06,24.97c-2.62-4.63-5.16-9.33-7.6-14.05l48.13-21.52,12.53,10.59Z"/>
    <path class="cls-1" d="M98.41,111.25l-44.76,19.26c-.66-1.36-1.31-2.73-1.96-4.1l43.41-17.94,3.31,2.79Z"/>
  </g>
  <path class="cls-3" d="M290.41,273.52l-75.31,53.69s-22.6-18.29-52.14-48.39c-2.4-2.45-4.85-4.96-7.32-7.56-3.17-3.31-6.4-6.75-9.67-10.3-6.13-6.65-12.42-13.7-18.74-21.11-21.63-25.33-43.69-54.79-61.62-86.49-2.62-4.63-5.16-9.33-7.6-14.05-1.49-2.93-2.95-5.86-4.37-8.81-.66-1.36-1.31-2.73-1.96-4.1-11.17-24.03-19.45-48.96-23-74.07l66.42,56.13,3.31,2.79,7.74,6.55,12.53,10.59,93.37,78.91,28.09,23.74,50.27,42.49Z"/>
  <path class="cls-4" d="M606.92,562.32h0c-6.73,8.09-17.69,10.06-24.49,4.41L242.95,283.82c-6.8-5.65-6.86-16.79-.13-24.88h0c6.73-8.09,17.69-10.06,24.49-4.41l339.48,282.92c6.8,5.65,6.86,16.79.13,24.88Z"/>
</svg>