<?xml version="1.0" encoding="UTF-8"?>
<svg id="Layer_1" data-name="Layer 1" xmlns="http://www.w3.org/2000/svg" viewBox="0 0 640 640">
  <defs>
    <style>
      .cls-1 {
        fill: #fff0bf;
      }

      .cls-1, .cls-2 {
        stroke: #231f20;
        stroke-linecap: round;
        stroke-linejoin: round;
        stroke-width: 19.84px;
      }

      .cls-3 {
        fill: #231f20;
      }

      .cls-2 {
        fill: none;
      }
    </style>
  </defs>
  <g>
    <path class="cls-1" d="M136.57,201.79c27.7-103.05,70.36-111.91,79.22-114.68,3.45-1.08,9.68-1.97,16.19.26h0s.2.07.2.07c.75.27,1.51.56,2.26.92l81.67,33.06,172.41,69.06c22.88,9.16,38.97,30.21,41.4,54.73.71,7.13,1.13,15.33,1.11,24.72-.15,72.04-98.62,172.85-109.14,192.8-10.53,19.94-55.4,117.45-57.62,124.65-2.22,7.2-21.61-5.54-19.39-17.73,2.22-12.19-8.31-21.05-15.51-28.81-7.2-7.76-30.47-13.3-55.96-14.4-25.48-1.11-27.7-.55-32.69-16.62-4.99-16.07-26.04-13.3-39.89-19.94-13.85-6.65-12.74-3.32-27.15-3.32-14.4,0-23.27-14.96-23.27-14.96,0,0-10.53-78.67,24.93-134.07,7.07-11.05,14.63-23.89,22.17-37.72h.01s0-.03,0-.03c.03-.06.06-.11.09-.17h-.06s-.03.17-.03.17c0,.01-.01.02-.02.03l-13.31,5.58c-46.54,10.53-75.35-.55-47.65-103.6Z"/>
    <path class="cls-2" d="M197.53,299.8l-13.32,5.59c-46.54,10.53-75.35-.55-47.65-103.6,27.7-103.05,70.36-111.91,79.22-114.68,8.86-2.77,36.01-4.43,39.34,45.43,3.32,49.86-44.32,149.59-79.78,204.99-35.46,55.4-24.93,134.07-24.93,134.07,0,0,8.86,14.96,23.27,14.96,14.4,0,13.3-3.32,27.15,3.32,13.85,6.65,34.9,3.88,39.89,19.94,4.99,16.07,7.2,15.51,32.69,16.62,25.48,1.11,48.75,6.65,55.96,14.4,7.2,7.76,17.73,16.62,15.51,28.81-2.22,12.19,17.17,24.93,19.39,17.73,2.22-7.2,47.09-104.71,57.62-124.65,10.53-19.94,108.99-120.76,109.14-192.8.02-9.39-.4-17.59-1.11-24.72-2.43-24.52-18.52-45.57-41.4-54.73l-251.67-100.81"/>
  </g>
  <ellipse class="cls-3" cx="187.47" cy="197.39" rx="26.18" ry="17.24" transform="translate(-58.71 313.58) rotate(-71.74)"/>
</svg>