<?xml version="1.0" encoding="UTF-8"?>
<svg width="768px" height="768px" viewBox="0 0 768 768" version="1.1" xmlns="http://www.w3.org/2000/svg" xmlns:xlink="http://www.w3.org/1999/xlink">
    <g id="box" transform="translate(68, 68)" fill="#000000">
            <path d="M540.013889,458.032 L331.541667,575.248 C327.319444,578.416 322.041667,580 316.5,580 C310.958333,580 305.680556,578.416 301.458333,575.248 L92.9861111,458.032 C84.5416667,453.544 79,444.832 79,434.8 L79,197.2 C79,187.168 84.5416667,178.456 92.9861111,173.968 L301.458333,56.752 C305.680556,53.584 310.958333,52 316.5,52 C322.041667,52 327.319444,53.584 331.541667,56.752 L540.013889,173.968 C548.458333,178.456 554,187.168 554,197.2 L554,434.8 C554,444.832 548.458333,453.544 540.013889,458.032 Z M316.5,108.76 L266.625,137.008 L422.055556,226.504 L473.777778,197.2 L316.5,108.76 M159.222222,197.2 L316.5,285.64 L368.222222,256.6 L213.055556,166.84 L159.222222,197.2 M131.777778,419.224 L290.111111,508.456 L290.111111,331.312 L131.777778,242.344 L131.777778,419.224 M501.222222,419.224 L501.222222,242.344 L342.888889,331.312 L342.888889,508.456 L501.222222,419.224 Z"/>
        </g>
</svg>
