<svg width="424" height="259" viewBox="0 0 424 259" fill="none" xmlns="http://www.w3.org/2000/svg">
<mask id="mask0_11_1801" style="mask-type:luminance" maskUnits="userSpaceOnUse" x="0" y="0" width="424" height="259">
<path d="M418.732 213.892C418.732 238.728 325.335 258.846 210.137 258.846C94.9398 258.846 1.52375 238.728 1.52375 213.892C1.52375 189.055 -31.5189 0 210.137 0C474.46 0 418.732 189.073 418.732 213.892Z" fill="white"/>
</mask>
<g mask="url(#mask0_11_1801)">
<path d="M187.271 141.983C204.732 199.482 178.197 320.283 178.197 320.283L217.729 319.469C247.175 226.885 187.271 141.983 187.271 141.983Z" fill="#8DAF0E"/>
<path d="M211.113 149.267C228.574 206.766 202.039 327.567 202.039 327.567L241.571 326.754C271.017 234.169 211.113 149.267 211.113 149.267Z" fill="#84A00E"/>
<path d="M264.473 139.054C247.012 196.554 273.547 317.354 273.547 317.354L234.015 316.541C204.57 223.957 264.473 139.054 264.473 139.054Z" fill="#749302"/>
<path d="M201.135 139C182.644 196.246 207.01 317.391 207.01 317.391L167.496 316.035C139.714 223.053 201.135 139 201.135 139Z" fill="#749302"/>
<path d="M151.246 153.117C169.069 210.833 143.311 331.436 143.311 331.436L182.806 331.056C211.637 238.724 151.246 153.135 151.246 153.135V153.117Z" fill="#8DAF0E"/>
<path d="M109.925 175.134C126.193 224.661 101.483 328.706 101.483 328.706L138.304 328.001C165.725 248.25 109.943 175.134 109.943 175.134H109.925Z" fill="#8DAF0E"/>
<path d="M132.122 181.424C148.39 230.934 123.68 334.996 123.68 334.996L160.501 334.292C187.922 254.559 132.14 181.424 132.14 181.424H132.122Z" fill="#84A00E"/>
<path d="M122.831 172.567C105.604 221.878 128.308 326.23 128.308 326.23L91.5053 325.055C65.6387 244.961 122.831 172.567 122.831 172.567Z" fill="#749302"/>
<path d="M76.3577 181.406C92.9514 231.115 68.9647 334.978 68.9647 334.978L105.749 334.653C132.61 255.137 76.3577 181.406 76.3577 181.406Z" fill="#8DAF0E"/>
<path d="M60.3786 168.897C76.6468 218.425 51.9371 322.47 51.9371 322.47L88.7576 321.765C116.179 242.014 60.3966 168.897 60.3966 168.897H60.3786Z" fill="#8DAF0E"/>
<path d="M82.5758 175.188C98.8441 224.698 74.1344 328.76 74.1344 328.76L110.955 328.055C138.376 248.323 82.5939 175.188 82.5939 175.188H82.5758Z" fill="#84A00E"/>
<path d="M73.2847 166.331C56.0584 215.642 78.7617 319.993 78.7617 319.993L41.9593 318.819C16.0927 238.724 73.2847 166.331 73.2847 166.331Z" fill="#749302"/>
<path d="M26.8117 175.17C43.4054 224.878 19.4187 328.742 19.4187 328.742L56.2031 328.417C83.0638 248.901 26.8117 175.17 26.8117 175.17Z" fill="#8DAF0E"/>
<path d="M306.319 170.759C290.05 220.287 314.76 324.332 314.76 324.332L277.94 323.627C250.518 243.876 306.301 170.759 306.301 170.759H306.319Z" fill="#8DAF0E"/>
<path d="M284.121 177.032C267.853 226.541 292.563 330.604 292.563 330.604L255.742 329.899C228.321 250.166 284.103 177.032 284.103 177.032H284.121Z" fill="#84A00E"/>
<path d="M293.43 181.37C310.657 230.681 287.953 335.033 287.953 335.033L324.756 333.858C350.622 253.764 293.43 181.37 293.43 181.37Z" fill="#749302"/>
<path d="M339.886 177.032C323.292 226.74 347.279 330.604 347.279 330.604L310.494 330.279C283.633 250.763 339.886 177.032 339.886 177.032Z" fill="#8DAF0E"/>
<path d="M384.352 172.567C368.084 222.095 392.794 326.139 392.794 326.139L355.973 325.434C328.552 245.684 384.334 172.567 384.334 172.567H384.352Z" fill="#8DAF0E"/>
<path d="M362.155 178.839C345.887 228.349 370.597 332.412 370.597 332.412L333.776 331.707C306.355 251.974 362.137 178.839 362.137 178.839H362.155Z" fill="#84A00E"/>
<path d="M371.446 183.177C388.672 232.488 365.969 336.84 365.969 336.84L402.771 335.665C428.638 255.571 371.446 183.177 371.446 183.177Z" fill="#749302"/>
<path d="M417.919 178.839C401.325 228.548 425.312 332.412 425.312 332.412L388.528 332.086C361.667 252.571 417.919 178.839 417.919 178.839Z" fill="#8DAF0E"/>
</g>
</svg>
