<svg width="1238" height="589" viewBox="0 0 1238 589" fill="none" xmlns="http://www.w3.org/2000/svg">
<path d="M1230.39 277.634C1230.39 430.965 1248.73 555.268 617.315 555.268C-14.1037 555.268 4.21883 430.965 4.21883 277.634C4.21883 124.303 278.708 0 617.293 0C955.878 0 1230.37 124.303 1230.37 277.634H1230.39Z" fill="#9DD139"/>
<path opacity="0.2" d="M1229.94 224.802C1229.94 177.46 1197.46 133.188 1141.07 95.5019C1146.97 162.918 1131.05 280.314 950.213 286.315C695.799 294.739 596.43 275.955 449.424 290.928C302.439 305.9 174.078 275.486 149.224 169.935C140.054 130.94 119.274 107.308 96.7516 93C38.0056 131.213 4.02577 176.405 4.02577 224.802C4.02577 362.429 -14.3147 474 616.97 474C1248.26 474 1229.92 362.429 1229.92 224.802H1229.94Z" fill="#72991D"/>
<path d="M948.776 414.524C778.971 401.065 611.236 400.695 534.635 415.373C458.011 430.05 317.205 427.982 245.767 396.928C183.784 369.99 78.9468 335.909 4.93778 338.914C11.4738 462.759 -117.764 589 617.336 589C1352.44 589 1230.41 430.965 1230.41 277.634C1230.41 271.536 1229.95 265.482 1229.1 259.472L1199.34 277.634C1199.34 277.634 1118.58 427.982 948.776 414.524Z" fill="#8B5E3C"/>
</svg>
