<?xml version="1.0" encoding="UTF-8"?>
<svg id="Layer_1" data-name="Layer 1" xmlns="http://www.w3.org/2000/svg" viewBox="0 0 640 640">
  <defs>
    <style>
      .cls-1, .cls-2 {
        fill: #f5c236;
      }

      .cls-3 {
        fill: #fff;
      }

      .cls-3, .cls-4, .cls-5, .cls-2 {
        stroke: #000;
      }

      .cls-3, .cls-4, .cls-5, .cls-2, .cls-6 {
        stroke-linecap: round;
        stroke-linejoin: round;
      }

      .cls-3, .cls-4, .cls-2, .cls-6 {
        stroke-width: 5.67px;
      }

      .cls-4, .cls-6 {
        fill: none;
      }

      .cls-5 {
        stroke-width: 5.67px;
      }

      .cls-6 {
        stroke: #fff;
      }
    </style>
  </defs>
  <path class="cls-5" d="M422.71,453.08c-7.73-9.27-18.61-15.04-29.81-22.49-13.12-8.19-33.14-22.64-33.36-41.59,0-.32,0-.64,0-.96.13-34.73,7.56-84.5,13.01-116.44l.84-4.87c.16-.9.31-1.79.46-2.66.53-3.01,1.03-5.79,1.49-8.32-.02.01-.05.02-.07.03l10.09-58.57s9.3-35.6,6.46-54.4c-2.42-24.2-23.2-40.82-45.17-47.01,0,0,18.66-21.28,3.08-26.2-6.57-.26-10.01,18.27-10.01,18.27,0,0-2.7-30.18-14.28-30.8-11.01-.59-2.45,31.67-1.58,34.87.05.17.08.25.08.25h-1.66c-5.04-.09-13.17.37-22.26,3.91-14.24,5.54-22.15,15.23-25.49,19.44-11.68,14.66-14.03,28.75-14.52,36.73,0,0-1.95,25.63,5.86,48.64,12.81,42.96,24.09,93.51,29.95,150.62,2.53,24.57,2.7,21.53,3.05,43.46-1.14,19.3-17.2,27.8-25.6,38.15-11.01,13.96-22.77,27.59-25.69,45.08-3.14,18.7,4.4,37.21,21.33,46.41,2.39,1.33,4.91,2.52,7.56,3.58,4.01,1.62,8.3,2.94,12.79,4.01,23.97,5.76,53.43,4.46,75.75,3.24,7.32-.54,14.85-1.21,22.1-2.55,5.3-.98,10.46-2.3,15.28-4.18,11.44-4.47,20.98-12.05,26.06-25.46,6.44-16.09,5.9-36.56-5.74-50.2Z"/>
  <path class="cls-2" d="M413.82,555.95c3.04,1.15,13.99,5.31,13.5,8.31-.22,1.36-2.72,1.98-7.11,3.04-5.15,1.24-9.56,1.55-12.61,1.6-.22,1.26-.66,3.05-1.6,5.05-1.23,2.58-2.23,4.75-4.18,5.35-2.63.8-5.54-1.67-7.12-3-3.56-3.02-3.07-5.11-5.47-5.97-2.26-.81-3.35.81-8.9,1.83-3.33.61-6.8,1.25-7.6-.04-1.12-1.82,3.11-7.6,8.39-11.31,5.73-4.04,11.75-5.1,12.08-8.91.04-.38.04-.68-.04-1-1.14-4.39-4.91-13.59-6.05-17.98,5.3-.98,10.46-2.3,15.28-4.18l.86,24.12c2.53.52,6.24,1.45,10.57,3.09Z"/>
  <path class="cls-2" d="M295.03,559.83c5.17,3.78,9.26,9.6,8.18,11.25-.88,1.35-5.69.61-9-.78-2.36-1-4.02-2.37-6.03-1.76-1.17.35-1.88,1.19-2.25,1.66-5.43,6.78-8.14,10.17-9.68,10.17s-3.54-2.61-5.89-12.76c-1.92-.14-4.89-.38-8.49-.83-7.24-.92-10.86-1.41-11.25-2.84-.78-2.81,8.57-7.57,9.68-8.12,5.59-2.81,10.79-3.84,14.4-4.26l1.48-22.62.29-.72c4.01,1.62,8.3,2.94,12.79,4.01-1.14,4.39-3.32,12.99-4.46,17.38-.14.53-.06.82-.05.99.12,1.99,10.28,9.23,10.28,9.23Z"/>
  <g>
    <g>
      <path class="cls-1" d="M380.84,218.35c4.41,2.95,8,6.35,10.79,9.91,1.68,2.13,3.05,4.31,4.14,6.5,0,0,3.64,10.65-5.72,12.03-1.05.15-2.26.19-3.65.08-.32-.02-.63-.05-.92-.08-3.17-.34-5.72-1.12-8.08-2.1-7.37-3.04-13-7.96-30.34-7.08-23.43,1.18-31.45,14.14-50.13,16.92-18.67,2.77-14.13-8.88-11.41-13.33,2.73-4.45,27.43-31.82,56.48-32.78,16.55-.54,29.51,3.68,38.84,9.93Z"/>
      <path class="cls-1" d="M377.4,244.69c-7.37-3.04-13-7.96-30.34-7.08-23.43,1.18-31.45,14.14-50.13,16.92,0,0,4.74,10.73,30.04,9.44,18.56-.95,36.55-2.03,48.37-8.21,4.28-2.24,7.75-5.15,10.14-8.97-3.17-.34-5.72-1.12-8.08-2.1Z"/>
    </g>
    <g>
      <path class="cls-1" d="M380.84,218.35c4.41,2.95,8,6.35,10.79,9.91,1.68,2.13,3.05,4.31,4.14,6.5,0,0,3.64,10.65-5.72,12.03-1.05.15-2.26.19-3.65.08-.32-.02-.63-.05-.92-.08-3.17-.34-5.72-1.12-8.08-2.1-7.37-3.04-13-7.96-30.34-7.08-23.43,1.18-31.45,14.14-50.13,16.92-18.67,2.77-14.13-8.88-11.41-13.33,2.73-4.45,27.43-31.82,56.48-32.78,16.55-.54,29.51,3.68,38.84,9.93Z"/>
      <path class="cls-1" d="M377.4,244.69c-7.37-3.04-13-7.96-30.34-7.08-23.43,1.18-31.45,14.14-50.13,16.92,0,0,4.74,10.73,30.04,9.44,18.56-.95,36.55-2.03,48.37-8.21,4.28-2.24,7.75-5.15,10.14-8.97-3.17-.34-5.72-1.12-8.08-2.1Z"/>
    </g>
    <g>
      <path class="cls-4" d="M380.84,218.35c4.41,2.95,8,6.35,10.79,9.91,1.68,2.13,3.05,4.31,4.14,6.5,0,0,3.64,10.65-5.72,12.03-1.05.15-2.26.19-3.65.08-.32-.02-.63-.05-.92-.08-3.17-.34-5.72-1.12-8.08-2.1-7.37-3.04-13-7.96-30.34-7.08-23.43,1.18-31.45,14.14-50.13,16.92-18.67,2.77-14.13-8.88-11.41-13.33,2.73-4.45,27.43-31.82,56.48-32.78,16.55-.54,29.51,3.68,38.84,9.93Z"/>
      <path class="cls-4" d="M377.4,244.69c-7.37-3.04-13-7.96-30.34-7.08-23.43,1.18-31.45,14.14-50.13,16.92,0,0,4.74,10.73,30.04,9.44,18.56-.95,36.55-2.03,48.37-8.21,4.28-2.24,7.75-5.15,10.14-8.97-3.17-.34-5.72-1.12-8.08-2.1Z"/>
    </g>
  </g>
  <path class="cls-6" d="M291.09,447.23s16.55,4.63,18.12,14.44c1.56,9.81-49.31,26.25-49.31,26.25"/>
  <path class="cls-6" d="M385.42,447.23s-16.55,4.63-18.11,14.44c-1.57,9.81,49.3,26.25,49.3,26.25"/>
  <path class="cls-3" d="M385.36,197.22c11.49-7.29,19.25-19.96,18.11-32.85-.76-8.67-5.43-16.12-11.65-21.55-4.48-3.91-9.77-6.77-15-8.3-21.45-6.2-49.58,8.05-51.66,29.85-1.83,19.29,17.26,39.15,39.16,39.15,7.56,0,14.85-2.36,21.04-6.3Z"/>
  <path class="cls-3" d="M260.01,152.28c5.29-4.67,12.08-7.66,19.05-8.26,16.57-1.4,33.64,10.8,35.03,27.97,1.47,18.1-15.14,33.92-33.3,33.3-5.32-.18-10.43-1.76-14.92-4.37-.75-.44-1.48-.9-2.19-1.39-8.89-6.13-14.78-16.44-13.88-27.54.53-6.63,3.39-12.52,7.64-17.19.81-.89,1.67-1.73,2.57-2.52Z"/>
  <path d="M359.61,159.03c4.89,0,8.86,3.95,8.86,8.84s-3.97,8.86-8.86,8.86-8.84-3.96-8.84-8.86,3.96-8.84,8.84-8.84Z"/>
  <path d="M288.03,166.71c4.47,0,8.11,3.61,8.11,8.09s-3.64,8.11-8.11,8.11-8.11-3.62-8.11-8.11,3.63-8.09,8.11-8.09Z"/>
</svg>