<?xml version="1.0" encoding="UTF-8"?>
<svg id="Layer_1" data-name="Layer 1" xmlns="http://www.w3.org/2000/svg" viewBox="0 0 600 600">
  <defs>
    <style>
      .cls-1 {
        fill: #f5c236;
      }

      .cls-2 {
        fill: #fbfcfd;
      }

      .cls-3 {
        stroke-width: 5.67px;
      }

      .cls-3, .cls-4 {
        fill: none;
        stroke: #000;
        stroke-linecap: round;
        stroke-linejoin: round;
      }

      .cls-5 {
        fill: #000;
      }

      .cls-4 {
        stroke-width: .5px;
      }
    </style>
  </defs>
  <g>
    <g>
      <path class="cls-5" d="M332.17,409.93c-3.43-57.86,1.17-117.11,6.77-173.54-10.43-3.96-16.6-8.74-20.96-11.66-1.01-.67-1.85-1.45-2.58-2.25-3.19-3.49-4.79-8.14-4.75-12.87.06-8,1.59-18,8.11-24.14,1.43-1.34,2.88-2.3,4.7-2.9l-.16-.49c-3.58,1.13-7.34,1.76-11.19,1.76-21.23.01-40.17-18.98-38.46-38.46,1.29-14.62,13.89-25.75,26.18-29.31,21.06-6.1,48.7,7.9,50.74,29.31.27,2.83.08,5.67-.51,8.46l1.18.11c3.41-13.64,17.73-22.89,31.67-21.71,1.36.12,2.72.33,4.06.65l.18-.75c-.11-7.43-1.44-27.3-15.69-45.2-3.56-4.48-11.99-14.81-27.16-20.71-9.69-3.78-18.35-4.27-23.73-4.16l-1.81.41c-1.14-6.99-5.47-26.02-17.91-18.94-4.86,4.86-.2,14.21-.01,14.6-.56-.39-18.65-13.15-27.38-4.68-7.2,6.98,9.49,13.8,16.03,16.12l-2.85.83c-13.71,6.99-21.96,21.92-24.75,37.05-2.8,15.13-.94,30.69.87,45.97,10.96,92.28,12.47,151.59,18.18,237.58-6.37-.27-76.33-1.43-102.76,30.88-4.31,5.28-16.57,20.42-15.39,41.33.27,4.81,2.15,26.33,20.1,38.89.54.38,1.26.89,2.2,1.45,8.16,4.93,16.49,6.62,23.43,7.15,3.14.24,5.98.24,8.41.2,10.95-.21,20.89-.39,29.9-.68h0c24.56-.78,42.33-2.33,55.48-7.08,7.89-2.85,14.12-6.86,19.16-12.56.48-.54,1.02-1.18,1.6-1.9,4.66-5.8,11.93-17.43,13.12-36.81-1.9-13.86-3.2-27.86-4.03-41.95Z"/>
      <path class="cls-1" d="M208.52,510.71l-.1,1.23,67,20.52c-2.29,6.55-.9,14.41,3.84,21.84.75,1.18,1.71,2.45,3.28,3.17,1.72.8,3.7.65,4.94-.01,1.25-.66,1.91-1.74,2.49-2.81,1.92-3.47,3.44-7.12,4.55-10.92,1.8,1.38,3.69,2.69,5.67,3.92.75.47,1.65.96,2.46.9.57-.04.93-.36,1.22-.68,3.78-4.1,3.39-10.5-.99-16.11-.58-.74-1.25-1.6-.9-2.23.22-.4.82-.57,1.37-.74,3.31-1,6.25-2.77,6.55-5.54.31-2.77-3.06-6.57-7.18-7.16-1.24-.18-2.41-.07-3.54.05-4.83.49-9.76,1.01-13.56,2.76-2.7,1.23-4.71,3.04-7.05,4.57-.34.23-.74.45-1.29.38-.43-.05-.86-.29-1.24-.52-5.25-3.04-23.94-10.05-29.2-13.1h0c-9.01.29-18.95.47-29.9.68-2.43.04-5.27.04-8.41-.2Z"/>
      <path class="cls-2" d="M273.65,145.38c-1.71,19.48,17.23,38.47,38.46,38.46,3.85,0,7.61-.63,11.19-1.76,13.4-4.27,24.12-15.7,26.76-28.24.59-2.79.78-5.63.51-8.46-2.04-21.41-29.68-35.41-50.74-29.31-12.29,3.56-24.89,14.69-26.18,29.31ZM316.26,148.45c0-3.02,2.44-5.46,5.46-5.46s5.46,2.44,5.46,5.46-2.44,5.46-5.46,5.46-5.46-2.45-5.46-5.46Z"/>
      <path class="cls-1" d="M393.02,233.74l-15.6-3.95-12.81-3.24c-5.94-1.51-11.6-3.91-16.75-7.15-3.09-1.95-5.99-4.2-8.65-6.73-4.48-4.27-7.11-8.21-1.85-8.44,0,0,6.12,1.98,15.11,4.68,8.01,2.42,18.31,5.42,28.56,8.11,5.01,1.31,10,2.55,14.72,3.61,6.2,1.4,11.91,2.49,16.53,3.04,6.31.75,23.31.46,24.9-5.07.82-2.85-2.69-6.31-5.89-8.99-15.38-12.9-35.55-17.49-56.04-21.1-2.95-.52-5.9-1.01-8.84-1.51-26.79-4.55-36.9-6.46-42.95-4.43-1.82.6-3.27,1.56-4.7,2.9-6.52,6.14-8.05,16.14-8.11,24.14-.04,4.73,1.56,9.38,4.75,12.87.73.8,1.57,1.58,2.58,2.25,4.36,2.92,10.53,7.7,20.96,11.66,2.42.92,5.08,1.8,8,2.6,13.11,3.59,23.55,8.46,37.29,2.47,6.41-2.79,8.98-4.01,11.92-6.93l-3.13-.79Z"/>
      <circle cx="321.72" cy="148.45" r="5.46"/>
      <path class="cls-1" d="M321.48,490.59c-5.04,5.7-11.27,9.71-19.16,12.56,4.73.67,35.69.26,40.42.93.35.05.73.11,1.01.32.35.26.45.66.52,1.03.47,2.51.6,5.04,1.44,7.53,1.18,3.51,3.71,6.72,6.19,9.86.59.74,1.19,1.49,2,2.07,2.7,1.9,6.78.92,8.18-1.38,1.4-2.29.73-5.33-.6-7.99-.22-.44-.46-.91-.36-1.35.15-.67,1.03-.95,1.78-1.19,5.69-1.79,9.55-6.46,9.72-11.76.01-.41-.01-.86-.32-1.22-.43-.51-1.22-.64-1.92-.72-1.83-.18-3.66-.26-5.47-.24,1.52-3.54,2.73-7.2,3.6-10.96.27-1.15.51-2.35.17-3.57-.34-1.21-1.39-2.46-2.83-2.84-1.3-.34-2.57.09-3.67.56-6.94,2.97-12.2,8.2-14.61,14.51l-24.49-8.05c-.58.72-1.12,1.36-1.6,1.9Z"/>
      <path class="cls-5" d="M323.3,182.08l.16.49c6.05-2.03,16.16-.12,42.95,4.43,2.94.5,5.89.99,8.84,1.51l.03-.15c-14.22-2.58-25.9-15.62-24.71-30.3.11-1.41.34-2.78.67-4.11l-1.18-.11c-2.64,12.54-13.36,23.97-26.76,28.24Z"/>
      <path class="cls-5" d="M336.37,446.82l1.25.02c21.51-20.21,39.82-54.56,25.97-55.78-12.46-1.09-28.36,15.54-31.42,18.87.83,14.09,2.13,28.09,4.03,41.95.11-1.63.17-3.32.17-5.06Z"/>
      <path class="cls-2" d="M350.57,158.06c-1.19,14.68,10.49,27.72,24.71,30.3,1.97.35,3.99.51,6.03.44,15.96-.55,29.89-14.76,28.61-30.74-1.02-12.64-11.26-22.47-22.95-25.17-1.34-.32-2.7-.53-4.06-.65-13.94-1.18-28.26,8.07-31.67,21.71-.33,1.33-.56,2.7-.67,4.11ZM376,157.08c0-2.35,1.9-4.24,4.24-4.24s4.24,1.89,4.24,4.24-1.9,4.24-4.24,4.24-4.24-1.9-4.24-4.24Z"/>
      <path d="M380.24,152.84c-2.34,0-4.24,1.89-4.24,4.24s1.9,4.24,4.24,4.24,4.24-1.9,4.24-4.24-1.9-4.24-4.24-4.24Z"/>
    </g>
    <g>
      <path class="cls-3" d="M246.84,510.23c5.26,3.05,23.95,10.06,29.2,13.1.38.23.81.47,1.24.52.55.07.95-.15,1.29-.38,2.34-1.53,4.35-3.34,7.05-4.57,3.8-1.75,8.73-2.27,13.56-2.76,1.13-.12,2.3-.23,3.54-.05,4.12.59,7.49,4.39,7.18,7.16-.3,2.77-3.24,4.54-6.55,5.54-.55.17-1.15.34-1.37.74-.35.63.32,1.49.9,2.23,4.38,5.61,4.77,12.01.99,16.11-.29.32-.65.64-1.22.68-.81.06-1.71-.43-2.46-.9-1.98-1.23-3.87-2.54-5.67-3.92-1.11,3.8-2.63,7.45-4.55,10.92-.58,1.07-1.24,2.15-2.49,2.81-1.24.66-3.22.81-4.94.01-1.57-.72-2.53-1.99-3.28-3.17-4.74-7.43-6.13-15.29-3.84-21.84l-67-20.52"/>
      <path class="cls-3" d="M302.32,503.15c4.73.67,35.69.26,40.42.93.35.05.73.11,1.01.32.35.26.45.66.52,1.03.47,2.51.6,5.04,1.44,7.53,1.18,3.51,3.71,6.72,6.19,9.86.59.74,1.19,1.49,2,2.07,2.7,1.9,6.78.92,8.18-1.38,1.4-2.29.73-5.33-.6-7.99-.22-.44-.46-.91-.36-1.35.15-.67,1.03-.95,1.78-1.19,5.69-1.79,9.55-6.46,9.72-11.76.01-.41-.01-.86-.32-1.22-.43-.51-1.22-.64-1.92-.72-1.83-.18-3.66-.26-5.47-.24,1.52-3.54,2.73-7.2,3.6-10.96.27-1.15.51-2.35.17-3.57-.34-1.21-1.39-2.46-2.83-2.84-1.3-.34-2.57.09-3.67.56-6.94,2.97-12.2,8.2-14.61,14.51l-24.49-8.05"/>
      <path class="cls-3" d="M323.3,182.08c-3.58,1.13-7.34,1.76-11.19,1.76-21.23.01-40.17-18.98-38.46-38.46,1.29-14.62,13.89-25.75,26.18-29.31,21.06-6.1,48.7,7.9,50.74,29.31.27,2.83.08,5.67-.51,8.46-2.64,12.54-13.36,23.97-26.76,28.24Z"/>
      <path class="cls-3" d="M375.28,188.36c-14.22-2.58-25.9-15.62-24.71-30.3.11-1.41.34-2.78.67-4.11,3.41-13.64,17.73-22.89,31.67-21.71,1.36.12,2.72.33,4.06.65,11.69,2.7,21.93,12.53,22.95,25.17,1.28,15.98-12.65,30.19-28.61,30.74-2.04.07-4.06-.09-6.03-.44Z"/>
      <path class="cls-3" d="M300.85,58.15h-.01c-.56-.4-18.65-13.16-27.38-4.69-7.2,6.98,9.49,13.8,16.03,16.12,1.52.53,2.49.83,2.49.83"/>
      <path class="cls-3" d="M319.11,64.93s-.1-.95-.35-2.45c-1.14-6.99-5.47-26.02-17.91-18.94-4.86,4.86-.2,14.21-.01,14.6"/>
      <path class="cls-3" d="M280.95,391.01c.63,9.58,1.32,19.49,2.08,29.82"/>
      <path class="cls-3" d="M286.64,70.41c-13.71,6.99-21.96,21.92-24.75,37.05-2.8,15.13-.94,30.69.87,45.97,10.96,92.28,12.47,151.59,18.18,237.58"/>
      <path class="cls-3" d="M336.2,451.88c.04.39.1.77.15,1.16"/>
      <path class="cls-4" d="M332.17,409.93c.83,14.09,2.13,28.09,4.03,41.95"/>
      <path class="cls-3" d="M338.94,236.39c-5.6,56.43-10.2,115.68-6.77,173.54"/>
      <path class="cls-3" d="M320.57,62.07c5.38-.11,14.04.38,23.73,4.16,15.17,5.9,23.6,16.23,27.16,20.71,14.25,17.9,15.58,37.77,15.69,45.2"/>
      <path class="cls-3" d="M347.86,219.4c-3.09-1.95-5.99-4.2-8.65-6.73-4.48-4.27-7.11-8.21-1.85-8.44,0,0,6.12,1.98,15.11,4.68,8.01,2.42,18.31,5.42,28.56,8.11,5.01,1.31,10,2.55,14.72,3.61,6.2,1.4,11.91,2.49,16.53,3.04,6.31.75,23.31.46,24.9-5.07.82-2.85-2.69-6.31-5.89-8.99-15.38-12.9-35.55-17.49-56.04-21.1-2.95-.52-5.9-1.01-8.84-1.51-26.79-4.55-36.9-6.46-42.95-4.43-1.82.6-3.27,1.56-4.7,2.9-6.52,6.14-8.05,16.14-8.11,24.14-.04,4.73,1.56,9.38,4.75,12.87.73.8,1.57,1.58,2.58,2.25,4.36,2.92,10.53,7.7,20.96,11.66,2.42.92,5.08,1.8,8,2.6,13.11,3.59,23.55,8.46,37.29,2.47,6.41-2.79,8.98-4.01,11.92-6.93l-3.13-.79-15.6-3.95-12.81-3.24c-5.94-1.51-11.6-3.91-16.75-7.15Z"/>
      <path class="cls-3" d="M280.95,391.01h-.01c-6.37-.27-76.33-1.43-102.76,30.88-4.31,5.28-16.57,20.42-15.39,41.33.27,4.81,2.15,26.33,20.1,38.89.54.38,1.26.89,2.2,1.45,8.16,4.93,16.49,6.62,23.43,7.15,3.14.24,5.98.24,8.41.2,10.95-.21,20.89-.39,29.9-.68h0c24.56-.78,42.33-2.33,55.48-7.08,7.89-2.85,14.12-6.86,19.16-12.56.48-.54,1.02-1.18,1.6-1.9,4.66-5.8,11.93-17.43,13.12-36.81.11-1.63.17-3.32.17-5.06.01-.79.01-1.59-.01-2.4"/>
      <path class="cls-3" d="M171.36,427.5c-3.87-6.8-9.19-24.29-8.61-32.09.5,1.37,1.35,3.25,2.81,5.22,1.8,2.45,3.73,3.92,4.69,4.6,3.46,2.42,6.92,3.2,8.94,3.49-2.12-3.35-7.63-14.32-7.44-26.54.21-12.9,9.59-27.66,9.59-27.66-.7,5.23-1.41,16.33,4.14,28.24,2.69,5.79,11.69,16.72,14.48,19.68"/>
      <path class="cls-4" d="M269.6,442.42s18.78,10.89,13.56,17.31c-5.21,6.41-28.24,7.15-52.99,0"/>
      <path class="cls-4" d="M331.65,410.51s.18-.21.52-.58c3.06-3.33,18.96-19.96,31.42-18.87,13.85,1.22-4.46,35.57-25.97,55.78"/>
      <line class="cls-3" x1="352.47" y1="208.91" x2="349.36" y2="217.01"/>
      <line class="cls-3" x1="366.17" y1="213.18" x2="362.91" y2="222.8"/>
      <line class="cls-3" x1="380.95" y1="217.34" x2="377.56" y2="229.22"/>
      <polyline class="cls-3" points="395.64 221.13 393.02 233.74 393.01 233.81"/>
    </g>
  </g>
  <g>
    <g>
      <path class="cls-3" d="M332.17,409.93c-3.43-57.86,1.17-117.11,6.77-173.54-10.43-3.96-16.6-8.74-20.96-11.66-1.01-.67-1.85-1.45-2.58-2.25-3.19-3.49-4.79-8.14-4.75-12.87.06-8,1.59-18,8.11-24.14,1.43-1.34,2.88-2.3,4.7-2.9l-.16-.49c-3.58,1.13-7.34,1.76-11.19,1.76-21.23.01-40.17-18.98-38.46-38.46,1.29-14.62,13.89-25.75,26.18-29.31,21.06-6.1,48.7,7.9,50.74,29.31.27,2.83.08,5.67-.51,8.46l1.18.11c3.41-13.64,17.73-22.89,31.67-21.71,1.36.12,2.72.33,4.06.65l.18-.75c-.11-7.43-1.44-27.3-15.69-45.2-3.56-4.48-11.99-14.81-27.16-20.71-9.69-3.78-18.35-4.27-23.73-4.16l-1.81.41c-1.14-6.99-5.47-26.02-17.91-18.94-4.86,4.86-.2,14.21-.01,14.6-.56-.39-18.65-13.15-27.38-4.68-7.2,6.98,9.49,13.8,16.03,16.12l-2.85.83c-13.71,6.99-21.96,21.92-24.75,37.05-2.8,15.13-.94,30.69.87,45.97,10.96,92.28,12.47,151.59,18.18,237.58-6.37-.27-76.33-1.43-102.76,30.88-4.31,5.28-16.57,20.42-15.39,41.33.27,4.81,2.15,26.33,20.1,38.89.54.38,1.26.89,2.2,1.45,8.16,4.93,16.49,6.62,23.43,7.15,3.14.24,5.98.24,8.41.2,10.95-.21,20.89-.39,29.9-.68h0c24.56-.78,42.33-2.33,55.48-7.08,7.89-2.85,14.12-6.86,19.16-12.56.48-.54,1.02-1.18,1.6-1.9,4.66-5.8,11.93-17.43,13.12-36.81-1.9-13.86-3.2-27.86-4.03-41.95Z"/>
      <path class="cls-3" d="M208.52,510.71l-.1,1.23,67,20.52c-2.29,6.55-.9,14.41,3.84,21.84.75,1.18,1.71,2.45,3.28,3.17,1.72.8,3.7.65,4.94-.01,1.25-.66,1.91-1.74,2.49-2.81,1.92-3.47,3.44-7.12,4.55-10.92,1.8,1.38,3.69,2.69,5.67,3.92.75.47,1.65.96,2.46.9.57-.04.93-.36,1.22-.68,3.78-4.1,3.39-10.5-.99-16.11-.58-.74-1.25-1.6-.9-2.23.22-.4.82-.57,1.37-.74,3.31-1,6.25-2.77,6.55-5.54.31-2.77-3.06-6.57-7.18-7.16-1.24-.18-2.41-.07-3.54.05-4.83.49-9.76,1.01-13.56,2.76-2.7,1.23-4.71,3.04-7.05,4.57-.34.23-.74.45-1.29.38-.43-.05-.86-.29-1.24-.52-5.25-3.04-23.94-10.05-29.2-13.1h0c-9.01.29-18.95.47-29.9.68-2.43.04-5.27.04-8.41-.2Z"/>
      <path class="cls-3" d="M273.65,145.38c-1.71,19.48,17.23,38.47,38.46,38.46,3.85,0,7.61-.63,11.19-1.76,13.4-4.27,24.12-15.7,26.76-28.24.59-2.79.78-5.63.51-8.46-2.04-21.41-29.68-35.41-50.74-29.31-12.29,3.56-24.89,14.69-26.18,29.31ZM316.26,148.45c0-3.02,2.44-5.46,5.46-5.46s5.46,2.44,5.46,5.46-2.44,5.46-5.46,5.46-5.46-2.45-5.46-5.46Z"/>
      <path class="cls-3" d="M393.02,233.74l-15.6-3.95-12.81-3.24c-5.94-1.51-11.6-3.91-16.75-7.15-3.09-1.95-5.99-4.2-8.65-6.73-4.48-4.27-7.11-8.21-1.85-8.44,0,0,6.12,1.98,15.11,4.68,8.01,2.42,18.31,5.42,28.56,8.11,5.01,1.31,10,2.55,14.72,3.61,6.2,1.4,11.91,2.49,16.53,3.04,6.31.75,23.31.46,24.9-5.07.82-2.85-2.69-6.31-5.89-8.99-15.38-12.9-35.55-17.49-56.04-21.1-2.95-.52-5.9-1.01-8.84-1.51-26.79-4.55-36.9-6.46-42.95-4.43-1.82.6-3.27,1.56-4.7,2.9-6.52,6.14-8.05,16.14-8.11,24.14-.04,4.73,1.56,9.38,4.75,12.87.73.8,1.57,1.58,2.58,2.25,4.36,2.92,10.53,7.7,20.96,11.66,2.42.92,5.08,1.8,8,2.6,13.11,3.59,23.55,8.46,37.29,2.47,6.41-2.79,8.98-4.01,11.92-6.93l-3.13-.79Z"/>
      <circle class="cls-3" cx="321.72" cy="148.45" r="5.46"/>
      <path class="cls-3" d="M321.48,490.59c-5.04,5.7-11.27,9.71-19.16,12.56,4.73.67,35.69.26,40.42.93.35.05.73.11,1.01.32.35.26.45.66.52,1.03.47,2.51.6,5.04,1.44,7.53,1.18,3.51,3.71,6.72,6.19,9.86.59.74,1.19,1.49,2,2.07,2.7,1.9,6.78.92,8.18-1.38,1.4-2.29.73-5.33-.6-7.99-.22-.44-.46-.91-.36-1.35.15-.67,1.03-.95,1.78-1.19,5.69-1.79,9.55-6.46,9.72-11.76.01-.41-.01-.86-.32-1.22-.43-.51-1.22-.64-1.92-.72-1.83-.18-3.66-.26-5.47-.24,1.52-3.54,2.73-7.2,3.6-10.96.27-1.15.51-2.35.17-3.57-.34-1.21-1.39-2.46-2.83-2.84-1.3-.34-2.57.09-3.67.56-6.94,2.97-12.2,8.2-14.61,14.51l-24.49-8.05c-.58.72-1.12,1.36-1.6,1.9Z"/>
      <path class="cls-3" d="M323.3,182.08l.16.49c6.05-2.03,16.16-.12,42.95,4.43,2.94.5,5.89.99,8.84,1.51l.03-.15c-14.22-2.58-25.9-15.62-24.71-30.3.11-1.41.34-2.78.67-4.11l-1.18-.11c-2.64,12.54-13.36,23.97-26.76,28.24Z"/>
      <path class="cls-3" d="M336.37,446.82l1.25.02c21.51-20.21,39.82-54.56,25.97-55.78-12.46-1.09-28.36,15.54-31.42,18.87.83,14.09,2.13,28.09,4.03,41.95.11-1.63.17-3.32.17-5.06Z"/>
      <path class="cls-3" d="M350.57,158.06c-1.19,14.68,10.49,27.72,24.71,30.3,1.97.35,3.99.51,6.03.44,15.96-.55,29.89-14.76,28.61-30.74-1.02-12.64-11.26-22.47-22.95-25.17-1.34-.32-2.7-.53-4.06-.65-13.94-1.18-28.26,8.07-31.67,21.71-.33,1.33-.56,2.7-.67,4.11ZM376,157.08c0-2.35,1.9-4.24,4.24-4.24s4.24,1.89,4.24,4.24-1.9,4.24-4.24,4.24-4.24-1.9-4.24-4.24Z"/>
      <path class="cls-3" d="M380.24,152.84c-2.34,0-4.24,1.89-4.24,4.24s1.9,4.24,4.24,4.24,4.24-1.9,4.24-4.24-1.9-4.24-4.24-4.24Z"/>
    </g>
    <g>
      <path class="cls-3" d="M246.84,510.23c5.26,3.05,23.95,10.06,29.2,13.1.38.23.81.47,1.24.52.55.07.95-.15,1.29-.38,2.34-1.53,4.35-3.34,7.05-4.57,3.8-1.75,8.73-2.27,13.56-2.76,1.13-.12,2.3-.23,3.54-.05,4.12.59,7.49,4.39,7.18,7.16-.3,2.77-3.24,4.54-6.55,5.54-.55.17-1.15.34-1.37.74-.35.63.32,1.49.9,2.23,4.38,5.61,4.77,12.01.99,16.11-.29.32-.65.64-1.22.68-.81.06-1.71-.43-2.46-.9-1.98-1.23-3.87-2.54-5.67-3.92-1.11,3.8-2.63,7.45-4.55,10.92-.58,1.07-1.24,2.15-2.49,2.81-1.24.66-3.22.81-4.94.01-1.57-.72-2.53-1.99-3.28-3.17-4.74-7.43-6.13-15.29-3.84-21.84l-67-20.52"/>
      <path class="cls-3" d="M302.32,503.15c4.73.67,35.69.26,40.42.93.35.05.73.11,1.01.32.35.26.45.66.52,1.03.47,2.51.6,5.04,1.44,7.53,1.18,3.51,3.71,6.72,6.19,9.86.59.74,1.19,1.49,2,2.07,2.7,1.9,6.78.92,8.18-1.38,1.4-2.29.73-5.33-.6-7.99-.22-.44-.46-.91-.36-1.35.15-.67,1.03-.95,1.78-1.19,5.69-1.79,9.55-6.46,9.72-11.76.01-.41-.01-.86-.32-1.22-.43-.51-1.22-.64-1.92-.72-1.83-.18-3.66-.26-5.47-.24,1.52-3.54,2.73-7.2,3.6-10.96.27-1.15.51-2.35.17-3.57-.34-1.21-1.39-2.46-2.83-2.84-1.3-.34-2.57.09-3.67.56-6.94,2.97-12.2,8.2-14.61,14.51l-24.49-8.05"/>
      <path class="cls-3" d="M323.3,182.08c-3.58,1.13-7.34,1.76-11.19,1.76-21.23.01-40.17-18.98-38.46-38.46,1.29-14.62,13.89-25.75,26.18-29.31,21.06-6.1,48.7,7.9,50.74,29.31.27,2.83.08,5.67-.51,8.46-2.64,12.54-13.36,23.97-26.76,28.24Z"/>
      <path class="cls-3" d="M375.28,188.36c-14.22-2.58-25.9-15.62-24.71-30.3.11-1.41.34-2.78.67-4.11,3.41-13.64,17.73-22.89,31.67-21.71,1.36.12,2.72.33,4.06.65,11.69,2.7,21.93,12.53,22.95,25.17,1.28,15.98-12.65,30.19-28.61,30.74-2.04.07-4.06-.09-6.03-.44Z"/>
      <path class="cls-3" d="M300.85,58.15h-.01c-.56-.4-18.65-13.16-27.38-4.69-7.2,6.98,9.49,13.8,16.03,16.12,1.52.53,2.49.83,2.49.83"/>
      <path class="cls-3" d="M319.11,64.93s-.1-.95-.35-2.45c-1.14-6.99-5.47-26.02-17.91-18.94-4.86,4.86-.2,14.21-.01,14.6"/>
      <path class="cls-3" d="M280.95,391.01c.63,9.58,1.32,19.49,2.08,29.82"/>
      <path class="cls-3" d="M286.64,70.41c-13.71,6.99-21.96,21.92-24.75,37.05-2.8,15.13-.94,30.69.87,45.97,10.96,92.28,12.47,151.59,18.18,237.58"/>
      <path class="cls-3" d="M336.2,451.88c.04.39.1.77.15,1.16"/>
      <path class="cls-3" d="M332.17,409.93c.83,14.09,2.13,28.09,4.03,41.95"/>
      <path class="cls-3" d="M338.94,236.39c-5.6,56.43-10.2,115.68-6.77,173.54"/>
      <path class="cls-3" d="M320.57,62.07c5.38-.11,14.04.38,23.73,4.16,15.17,5.9,23.6,16.23,27.16,20.71,14.25,17.9,15.58,37.77,15.69,45.2"/>
      <path class="cls-3" d="M347.86,219.4c-3.09-1.95-5.99-4.2-8.65-6.73-4.48-4.27-7.11-8.21-1.85-8.44,0,0,6.12,1.98,15.11,4.68,8.01,2.42,18.31,5.42,28.56,8.11,5.01,1.31,10,2.55,14.72,3.61,6.2,1.4,11.91,2.49,16.53,3.04,6.31.75,23.31.46,24.9-5.07.82-2.85-2.69-6.31-5.89-8.99-15.38-12.9-35.55-17.49-56.04-21.1-2.95-.52-5.9-1.01-8.84-1.51-26.79-4.55-36.9-6.46-42.95-4.43-1.82.6-3.27,1.56-4.7,2.9-6.52,6.14-8.05,16.14-8.11,24.14-.04,4.73,1.56,9.38,4.75,12.87.73.8,1.57,1.58,2.58,2.25,4.36,2.92,10.53,7.7,20.96,11.66,2.42.92,5.08,1.8,8,2.6,13.11,3.59,23.55,8.46,37.29,2.47,6.41-2.79,8.98-4.01,11.92-6.93l-3.13-.79-15.6-3.95-12.81-3.24c-5.94-1.51-11.6-3.91-16.75-7.15Z"/>
      <path class="cls-3" d="M280.95,391.01h-.01c-6.37-.27-76.33-1.43-102.76,30.88-4.31,5.28-16.57,20.42-15.39,41.33.27,4.81,2.15,26.33,20.1,38.89.54.38,1.26.89,2.2,1.45,8.16,4.93,16.49,6.62,23.43,7.15,3.14.24,5.98.24,8.41.2,10.95-.21,20.89-.39,29.9-.68h0c24.56-.78,42.33-2.33,55.48-7.08,7.89-2.85,14.12-6.86,19.16-12.56.48-.54,1.02-1.18,1.6-1.9,4.66-5.8,11.93-17.43,13.12-36.81.11-1.63.17-3.32.17-5.06.01-.79.01-1.59-.01-2.4"/>
      <path class="cls-3" d="M171.36,427.5c-3.87-6.8-9.19-24.29-8.61-32.09.5,1.37,1.35,3.25,2.81,5.22,1.8,2.45,3.73,3.92,4.69,4.6,3.46,2.42,6.92,3.2,8.94,3.49-2.12-3.35-7.63-14.32-7.44-26.54.21-12.9,9.59-27.66,9.59-27.66-.7,5.23-1.41,16.33,4.14,28.24,2.69,5.79,11.69,16.72,14.48,19.68"/>
      <path class="cls-3" d="M269.6,442.42s18.78,10.89,13.56,17.31c-5.21,6.41-28.24,7.15-52.99,0"/>
      <path class="cls-3" d="M331.65,410.51s.18-.21.52-.58c3.06-3.33,18.96-19.96,31.42-18.87,13.85,1.22-4.46,35.57-25.97,55.78"/>
      <line class="cls-3" x1="352.47" y1="208.91" x2="349.36" y2="217.01"/>
      <line class="cls-3" x1="366.17" y1="213.18" x2="362.91" y2="222.8"/>
      <line class="cls-3" x1="380.95" y1="217.34" x2="377.56" y2="229.22"/>
      <polyline class="cls-3" points="395.64 221.13 393.02 233.74 393.01 233.81"/>
    </g>
  </g>
</svg>
