<?xml version="1.0" encoding="UTF-8"?>
<svg width="199px" height="401px" viewBox="0 0 199 401" version="1.1" xmlns="http://www.w3.org/2000/svg" xmlns:xlink="http://www.w3.org/1999/xlink">
    <g id="Page-2" stroke="none" stroke-width="1" fill="none" fill-rule="evenodd">
        <path d="M44.5335972,360.507841 C44.5335972,360.507841 44.5514295,360.523528 44.5633178,360.531371 C47.71964,362.923584 58.787572,368.406066 61.8963413,370.782593 C62.1222175,370.962989 62.3778142,371.151229 62.6334109,371.190445 C62.960337,371.245349 63.1981014,371.072796 63.4002011,370.892399 C64.7911227,369.692371 65.9858888,368.27273 67.5907983,367.308001 C69.84956,365.93542 72.780006,365.527567 75.651011,365.143244 C76.3226953,365.049124 77.0181562,364.962848 77.7552258,365.104028 C80.2041989,365.566784 82.2073638,368.547246 82.0230964,370.719846 C81.8447732,372.892446 80.0972049,374.280714 78.1297047,375.065046 C77.8027786,375.198383 77.4461321,375.331719 77.3153616,375.645452 C77.1073178,376.139581 77.5055732,376.814107 77.8503315,377.394513 C80.4538515,381.794617 80.6856718,386.814342 78.4387984,390.030104 C78.2664192,390.281091 78.0524312,390.532077 77.713617,390.56345 C77.2321441,390.61051 76.6971742,390.226187 76.251366,389.857551 C75.0744323,388.892823 73.9509956,387.865348 72.8810559,386.782969 C72.2212597,389.763431 71.3177551,392.626244 70.176486,395.347877 C69.8317277,396.187112 69.4394164,397.034191 68.6964027,397.55185 C67.9593331,398.069509 66.7823994,398.187159 65.7600126,397.559693 C64.8267874,396.994974 64.2561529,395.998872 63.8103446,395.07336 C60.9928367,389.245772 60.1666055,383.080921 61.5278066,377.943546 L21.9400366,361.943169 L17.0420903,359.433306" id="leg" stroke="#000000" stroke-width="5.67" fill="#F5C236" stroke-linecap="round" stroke-linejoin="round" transform="translate(49.5385, 378.7099) scale(-1, 1) translate(-49.5385, -378.7099)"></path>
        <path d="M107.957758,363.690647 C111.639158,364.212641 135.735593,363.893212 139.416992,364.415206 C139.6894,364.454161 139.985158,364.500906 140.203084,364.664516 C140.475492,364.867081 140.553323,365.178719 140.607805,365.466985 C140.97361,367.422514 141.07479,369.393625 141.728569,371.333572 C142.646973,374.068197 144.616094,376.569093 146.546299,379.015452 C147.005501,379.591983 147.472487,380.176304 148.102917,380.628179 C150.20435,382.10846 153.379849,381.344947 154.469481,379.553028 C155.559113,377.768899 155.037646,375.40045 154.002496,373.328056 C153.831268,372.985254 153.644474,372.61908 153.722305,372.276278 C153.839051,371.754284 154.523963,371.536137 155.107694,371.349154 C159.53627,369.954574 162.540542,366.316198 162.672854,362.186993 C162.680637,361.867564 162.665071,361.516971 162.423795,361.236497 C162.089123,360.839158 161.474259,360.737876 160.929443,360.675548 C159.505138,360.535311 158.080833,360.472984 156.672095,360.488566 C157.855124,357.730568 158.796877,354.879079 159.474006,351.949681 C159.684149,351.053721 159.870943,350.118807 159.606318,349.168311 C159.341693,348.225605 158.524469,347.251736 157.403705,346.95568 C156.391903,346.690788 155.403451,347.025799 154.547312,347.391973 C149.14585,349.705886 145.051947,353.780555 143.176223,358.696646 L124.239974,352.463884 L124.115445,352.424929" id="leg" stroke="#000000" stroke-width="5.67" fill="#F5C236" stroke-linecap="round" stroke-linejoin="round"></path>
        <path d="M188.948207,76.2898876 C188.948207,81.7767395 187.888064,86.7756489 185.490722,90.2775644 C179.89606,98.4499611 156.778571,131.60719 151.387033,155.596915 C147.861295,183.130143 145.899957,211.154201 145.565285,238.897785 C145.222829,266.945216 146.53817,295.312077 149.464611,323.21148 C149.464611,323.273807 149.456828,323.328344 149.464611,323.390672 C149.464611,323.452999 149.472394,323.507536 149.472394,323.569863 C149.464611,323.601027 149.464611,323.6244 149.464611,323.655564 C148.709652,336.043179 145.082733,345.836407 138.685037,352.754774 C137.712151,353.806552 136.653651,354.819376 135.532887,355.754291 C131.664693,359.361502 127.057106,362.142872 121.445501,364.262011 C109.179357,368.874256 93.9011586,369.528696 77.7279055,370.22209 L75.782134,370.307791 C73.7273992,370.362328 71.7349292,370.440237 69.7502422,370.510356 C65.9209638,370.642802 62.1928655,370.783039 58.5503812,370.783039 C54.9078969,370.783039 51.5689529,370.658384 48.1755273,370.284418 C33.519976,368.679482 23.6354566,362.734985 16.1247784,351.025182 C10.575438,342.229196 8.76976196,332.233403 10.9023276,322.105164 C12.6301727,313.340342 16.1325615,305.564971 21.0203396,299.643847 C35.4813137,282.449213 63.3836777,273.232516 101.785425,272.920877 C100.703576,256.411848 99.8085211,241.164953 98.9523816,226.416679 C96.3528308,181.883591 94.1035189,143.419655 87.7992191,90.2775644 L87.7836529,90.1451182 C86.3749143,78.209378 84.9116941,65.8685084 87.1454398,53.800322 C89.4803657,41.1088595 96.1115551,30.5053723 105.10102,24.7946037 C98.9679477,22.0599792 95.5278236,19.1227899 94.8584782,16.0375725 C94.562721,14.6741557 94.656118,12.6095531 96.7809005,10.5449505 C102.112315,5.36396674 110.401301,8.14533699 115.849462,10.9422891 C115.475874,8.23882843 115.771631,5.14582005 118.075424,2.83969794 C118.21552,2.69946079 118.371182,2.57480554 118.542409,2.4813141 C122.317206,0.331011049 125.235864,0.891959671 127.01819,1.74896451 C131.921535,4.09404139 134.272027,11.3552097 135.353876,16.6296849 C141.907234,16.5361935 148.266016,17.6814636 154.258992,20.0187495 C166.867592,24.9270499 173.732274,33.5827988 176.324041,36.8394172 C187.095833,50.3800936 188.831461,66.102237 188.948207,73.9399358 L188.948207,76.2898876 Z" id="body" fill="#000000" fill-rule="nonzero"></path>
        <g id="eye" transform="translate(139, 27)">
            <circle id="Oval" stroke="#000000" stroke-width="5" fill="#FFFFFF" cx="25" cy="25" r="22.5"></circle>
            <ellipse id="Oval-2" fill="#000000" cx="25.5" cy="25" rx="9.5" ry="10"></ellipse>
        </g>
        <path d="M148.334612,276.702749 C150.529824,274.53347 164.337551,261.855391 174.711281,263.099551 C175.551815,263.199778 176.277733,263.457477 176.842302,263.897729 C177.359059,264.300697 177.724495,264.855401 177.934248,265.526319 C179.06689,269.160251 176.079603,275.218353 171.822247,281.715694 C166.180863,290.325263 157.810503,299.72832 150.524637,306.157106 L150.506186,306.17359 L150.471371,306.195797 C150.446511,306.206532 150.41886,306.209931 150.392452,306.209931 C150.365237,306.209931 150.338573,306.203042 150.312323,306.193203 C150.276941,306.177271 150.247212,306.152452 150.225196,306.12215 C150.202124,306.090394 150.187312,306.0525 150.184505,306.01495 L148.060102,276.983344 C148.087824,276.952357 148.138312,276.899517 148.210408,276.826707 Z" id="wing" stroke="#FFFFFF" stroke-width="4" fill="#000000" fill-rule="nonzero"></path>
        <path d="M67.0606356,277.00423 C67.6593314,276.104184 80.0872116,261.786675 89.3648829,263.094268 C89.989609,263.18181 90.5298966,263.410423 90.9496627,263.795089 C91.3940947,264.202359 91.6953771,264.76808 91.8751763,265.443919 C94.1157642,273.891626 79.4967675,294.913015 68.5455626,306.268413 L68.862,305.938 Z" id="wing" stroke="#FFFFFF" stroke-width="4" fill="#000000" fill-rule="nonzero" transform="translate(79.5595, 284.616) scale(-1, 1) translate(-79.5595, -284.616)"></path>
        <path d="M36.5860939,279.939913 C32.9202603,277.898683 26.1411923,273.146202 21.9305426,264.350216 C17.8288562,255.764586 18.2724921,247.693158 18.895139,243.641863 C19.0585838,242.605666 18.4670693,241.600633 17.4941835,241.234458 C16.5135146,240.860492 15.4160995,241.234458 14.8557173,242.114836 C14.5443938,242.605666 7.22050974,254.260932 7.05706493,264.802091 C6.95588481,271.214046 8.7615608,277.368899 10.6684169,281.801951 C10.2169979,281.560431 9.78114509,281.287748 9.36085844,280.991692 C8.54363439,280.415161 7.32947295,279.417919 6.20870854,277.898683 C5.42261683,276.839114 4.79218685,275.654889 4.33298477,274.392754 C3.9749628,273.418885 2.98651086,272.811191 1.95914348,272.959219 C0.931776104,273.099456 0.137901313,273.940879 0.0600704514,274.977076 C-0.453613237,281.79416 5.889602,301.076769 8.92500561,306.421363 C9.31415992,307.114757 10.0535531,307.535469 10.8396448,307.535469 C10.8629941,307.535469 10.8785602,307.535469 10.9019095,307.535469 C11.7191336,307.512096 12.4507437,307.044639 12.8165487,306.32008 C15.3771841,301.193633 18.8095251,296.612553 23.0123916,292.693703 C26.9584163,289.016373 31.4648232,286.04802 36.4070829,283.874344 C37.1698254,283.539333 37.6835091,282.791402 37.7224245,281.95777 C37.7613399,281.124138 37.3254871,280.329461 36.593877,279.924331 L36.5860939,279.939913 Z" id="wing" fill="#000000" fill-rule="nonzero"></path>
        <g id="eye" transform="translate(107.966, 53.053) rotate(-2) translate(-107.966, -53.053)translate(81.966, 28.053)">
            <ellipse id="Oval" stroke="#000000" stroke-width="5" fill="#FFFFFF" cx="26.0358133" cy="24.9482599" rx="23.5" ry="22.5"/>
            <circle id="Oval-2" fill="#000000" cx="28.1037847" cy="23.0541768" r="10"/>
        </g>
        <path d="M126.351965,70.2235073 C127.907553,62.4734183 131.004458,58.5983738 135.642681,58.5983738 C137.592538,58.5983738 138.804191,58.7644431 141.496034,60.6528457 C143.290596,61.9117808 145.984837,65.1020013 149.578755,70.2235073 C152.713635,76.4235785 157.358993,79.523614 163.514829,79.523614 C169.670665,79.523614 176.638702,79.523614 184.41894,79.523614 C192.161203,79.7763301 196.032335,83.6513746 196.032335,91.1487475 C196.032335,98.6461204 172.805545,102.521165 126.351965,102.773881 C113.964344,102.463877 107.770533,99.3638418 107.770533,93.4737742 C107.770533,87.5837066 110.867438,84.483671 117.061249,84.1736674 C119.266535,84.0594424 121.105368,82.896929 122.577747,80.6861274 C124.050127,78.4753257 125.308199,74.9877857 126.351965,70.2235073 Z" id="mouth" stroke="#000000" stroke-width="5" fill="#F5C236"></path>
    </g>
</svg>
