<?xml version="1.0" encoding="UTF-8"?>
<svg id="Layer_1" data-name="Layer 1" xmlns="http://www.w3.org/2000/svg" viewBox="0 0 640 640">
  <defs>
    <style>
      .cls-1, .cls-2, .cls-3, .cls-4, .cls-5, .cls-6, .cls-7, .cls-8, .cls-9, .cls-10 {
        stroke-linecap: round;
        stroke-linejoin: round;
      }

      .cls-1, .cls-2, .cls-3, .cls-4, .cls-5, .cls-6, .cls-7, .cls-8, .cls-10 {
        stroke: #000;
      }

      .cls-1, .cls-11 {
        fill: #fff;
      }

      .cls-1, .cls-4, .cls-5, .cls-8, .cls-9 {
        stroke-width: 4.15px;
      }

      .cls-2 {
        fill: #8a8c91;
      }

      .cls-2, .cls-3, .cls-6, .cls-10 {
        stroke-width: 4px;
      }

      .cls-12 {
        fill: #f7941d;
      }

      .cls-3 {
        fill: #bcc2c2;
      }

      .cls-4, .cls-7 {
        fill: #f5c236;
      }

      .cls-6 {
        fill: #eeddbf;
      }

      .cls-7 {
        stroke-width: 5.67px;
      }

      .cls-8, .cls-9 {
        fill: none;
      }

      .cls-9 {
        stroke: #fff;
      }
    </style>
  </defs>
  <path class="cls-2" d="M323.05,192.73s35.48-85.04,48.52-90.26c13.04-5.22,20.35-12,79.83,0,59.48,12,79.83,10.43,73.57,47.48-6.26,37.04-37.57,122.09-37.57,122.09,0,0-15.13,61.57-20.87,82.96-5.74,21.39-48,70.43-60.52,74.09-12.52,3.65-195.13-28.17-204.52-31.83-9.39-3.65-3.13-14.61,5.74-24.52,8.87-9.91,47.48-42.78,67.3-62.09,17.74-37.57,48.52-117.91,48.52-117.91Z"/>
  <path class="cls-10" d="M497.49,347.37v111.73c0,2.98,2.42,5.4,5.4,5.4h4.91c2.96,0,5.37-2.39,5.4-5.35l.99-109.7-16.7-2.09Z"/>
  <path class="cls-7" d="M374.02,477.13c6.37.69,12.82,3.68,12.71,5.65-.09,1.61-4.62,3.37-8.18,3.83-2.54.31-4.67-.04-6.1,1.49-.84.89-1.03,1.97-1.12,2.56-1.31,8.59-1.96,12.88-3.3,13.65-1.33.77-4.37-.49-11.48-8.1-1.73.84-4.42,2.12-7.77,3.53-6.73,2.82-10.11,4.21-11.16,3.17-2.08-2.04,3.64-10.84,4.32-11.87,3.44-5.23,7.42-8.72,10.34-10.89l-10.03-20.33-1.64-3.16c4.28-.6,8.3-5.86,12.72-7.18,1.21,4.37,5.51,19.56,6.72,23.93.14.53.36.74.45.88,1.1,1.66,13.52,2.85,13.52,2.85Z"/>
  <path class="cls-7" d="M234.08,434.34c-3.05-1.11-14.07-5.1-15.65-2.51-.72,1.17.77,3.27,3.41,6.94,3.09,4.3,6.24,7.41,8.51,9.44-.66,1.1-1.49,2.74-2.08,4.87-.75,2.76-1.41,5.06-.32,6.78,1.47,2.32,5.29,2.35,7.35,2.37,4.67.03,5.66-1.87,8.04-.96,2.24.86,2.01,2.8,5.55,7.19,2.13,2.63,4.34,5.38,5.79,4.93,2.04-.65,2.6-7.79,1.02-14.05-1.71-6.8-5.58-11.53-3.35-14.63.22-.31.41-.54.68-.73,3.73-2.58,12.59-7.1,16.31-9.68-3.38-4.2-6.43-8.57-8.86-13.13l-16.38,17.72c-2.26-1.26-5.68-2.97-10.03-4.55Z"/>
  <g>
    <g>
      <path class="cls-5" d="M394.38,162.74c.05-.12.09-.24.14-.36.08-.39,0-.15-.14.36Z"/>
      <path class="cls-5" d="M394.38,162.74c-.14.36-.28.72-.42,1.09-1.27,5.32-.06.62.42-1.09Z"/>
      <path class="cls-5" d="M487.48,131.75c-4.24-7.13-13.72-3.94-20.02-2.35,2.48-2.95,4.1-6.33,2.73-10.24-8.68-5.58-13.02,2.82-16.3,10.01-1.84-.77,1.04.28-1.93-.87-2.98-1.15-12.68-1.54-16.91-1.38-6.61.24-19.24,6.62-22.11,8.94-10.98,8.86-14.48,16.36-18.41,26.54-.1.51-.47,2.09-1.31,5.58-3.6,14.97-.52,51.52-.69,71.05,0,.98,0,1.8,0,2.47-.17,1.43-.37,3.1-.58,5.05-2.72,24.25-21.71,63.58-44.76,92.34-9.1,6.85-14.31,6.94-18.87,8.09-15.05,3.82-19.3,2-31.98,6.65-19.45,6.83-40.24,20.77-42.33,42.99-2.27,28.47,21.09,56.83,49.01,63.14,19.93,4.64,40.56-1.61,54.73-9.88,23.79-13.53,35.98-38.01,28.45-64.98-3.02-11.55-9.4-21.1-.64-34.85h0c40.59-45.79,66.56-85.34,91.96-145.22,4.34-10.23,8.43-20.95,9.19-32.64.75-11.69-2.97-22.64-11.29-31.26-.65-.48-1.35-.7-1.86-1.24,4.27.41,17.42-2.06,13.93-7.94Z"/>
    </g>
    <path class="cls-4" d="M405.78,223.32c-2.37-.15-6.9-.73-10.86-.57-4.1.1-8.15.67-12.21,1.18-8.71.97-21.34,2.37-28.32-3.84-3.5-3.14-3.02-8.43,1.36-10.86,5.93-3.32,13.56-3.56,20.36-3.83,16.38.05,33.13-1.1,48.81,4.77,5.11,1.87,10.34,4.69,12.13,10.1,3.19,8.98-.2,21.18-9.88,24.44-11.43,3.65-23.76-1.24-35.34-2.45-5.61-.72-12.05-1.06-16.55-3.83-3.93-2.07-6.56-7.85-2.74-11.22,2.58-2.32,6.74-2.92,11.19-3.5,6.94-1.13,15.09-1.79,22.07-.4h0Z"/>
    <g>
      <path class="cls-1" d="M393.13,204.87c10.04.87,20.52-6.27,22.76-17.05.22-1.04.35-2.06.4-3.08.54-10.47-7.13-19.87-16.69-21.7-.93-.17-1.89-.29-2.85-.31-8.37-.3-17.25,4.8-20.55,13.7-4.16,11.25,2.22,24.14,12.78,27.6,1.35.44,2.73.72,4.12.84"/>
      <path d="M397.29,179.44c3.69.09,7.36-.17,7.27,3.44-.09,3.59-3.16,6.44-6.85,6.34-3.69-.09-6.61-3.08-6.52-6.68s2.4-3.2,6.09-3.11Z"/>
      <line class="cls-8" x1="375.25" y1="178.49" x2="415.01" y2="181.17"/>
    </g>
    <g>
      <path class="cls-1" d="M430.29,211.07c1.85,1.16,3.86,2.07,5.99,2.68,14.19,4.08,30.78-5.94,33.66-20.27,2.16-10.76-3.97-21.19-11.45-26.11-12.82-8.43-34.2-3.67-39.98,11.34-.77,1.98-1.22,4.06-1.41,6.18-.78,9.01,3.47,18.7,10.77,24.48.77.62,1.58,1.19,2.41,1.71Z"/>
      <path d="M438.73,181.83c4.78.12,9.54-.22,9.43,4.46-.12,4.66-4.09,8.34-8.87,8.22-4.78-.12-8.57-4-8.45-8.65s3.11-4.15,7.89-4.03Z"/>
      <line class="cls-8" x1="419.15" y1="181.88" x2="468.75" y2="184.56"/>
    </g>
  </g>
  <path class="cls-11" d="M301.78,421.3c2.36,4.33,4.72,8.65,7.08,12.98.63,1.15,2.31,1.61,3.42.9,1.17-.75,1.57-2.19.9-3.42-2.36-4.33-4.72-8.65-7.08-12.98-.63-1.15-2.31-1.61-3.42-.9s-1.57,2.19-.9,3.42h0Z"/>
  <path class="cls-11" d="M302.74,431.7c.22-.19.22-.2.01-.05.12-.09.25-.17.37-.25.26-.16.52-.31.79-.45.56-.29,1.13-.54,1.7-.81,1.13-.52,2.27-1.01,3.4-1.52,2.29-1.04,4.56-2.15,6.63-3.59,1.07-.74,1.67-2.22.9-3.42-.69-1.07-2.27-1.69-3.42-.9-2.14,1.48-4.48,2.62-6.85,3.68-2.39,1.07-5.12,1.95-7.07,3.76-.96.89-.97,2.65,0,3.54,1.03.94,2.51.95,3.54,0h0Z"/>
  <path class="cls-9" d="M371.22,294.12c2.43-2.72,6.57-6.72,12.73-9.97,6.09-3.21,11.68-4.39,15.28-4.86,4.31-.64,10.19-1.07,17.09-.24,7.41.89,13.43,2.46,21.89,7.6"/>
  <path class="cls-6" d="M216.36,280.66l-32.87-3.91s-95.87,59.87-102.52,63c-6.65,3.13-16.83,11.35-18.39,15.26s-7.43,10.17,10.57,12.13,168.65,23.09,174.91,24.26c6.26,1.17,167.48,22.3,167.48,22.3l38.35,4.3,49.7-50.48,37.96-49.3s-1.17-6.65-3.91-7.43-98.61-12.91-98.61-12.91l-222.65-17.22Z"/>
  <path class="cls-3" d="M361.43,347.37s6.33-2.15,16.89-8.41c10.57-6.26,38.15-25.83,40.3-29.15,2.15-3.33-9.39-3.52-9.39-3.52l-56.35-5.87-3.33,36,11.87,10.96Z"/>
  <path class="cls-3" d="M220.56,330.16s-18-82.96-18.52-86.61c-.52-3.65-.78-7.83,4.17-7.57,4.96.26,130.7,12.52,135.13,12.52s5.48,4.43,7.04,15.65c1.57,11.22,13.04,83.22,13.04,83.22l-67.04-5.48-73.83-11.74Z"/>
  <path class="cls-5" d="M439.76,293.95c-1.04-.26-9.13-15.13-41.74-10.17-32.61,4.96-29.48,33.91-29.22,34.96s6.52,3.66,10.17-4.17c0,0,1.04,5.74,14.61,0,13.57-5.74,29.74-19.05,37.3-17.48,7.57,1.57,8.87-3.13,8.87-3.13Z"/>
  <path class="cls-10" d="M70.03,367.48v111.73c0,2.98,2.42,5.4,5.4,5.4h4.91c2.96,0,5.37-2.39,5.4-5.35l.99-109.7-16.7-2.09Z"/>
  <path class="cls-10" d="M416.85,416.28v111.73c0,2.98,2.42,5.4,5.4,5.4h4.91c2.96,0,5.37-2.39,5.4-5.35l.99-109.7-16.7-2.09Z"/>
  <path class="cls-10" d="M153.98,380.01v49.26c0,2.07,1.68,3.74,3.74,3.74h3.77c2.05,0,3.71-1.64,3.74-3.69l.69-48.37-11.95-.94Z"/>
  <path class="cls-5" d="M276.44,478.42c-1.05-3.71,2.03-14.21,4.4-18.25,2.04,1.5,3.94,2.58,5.13,3.25,5.2,2.92,12,4.68,19.45,5.65-1.87,1.81-9.19,9.6-10.76,12.79-3.24,6.57-1.8,11.97-.85,14.47,0,0-8.29-6.13-9.5-12.49-1.13-6.02,2.15-12.12,3.48-14.04-1.51.39-4.06,1.21-6.48,2.83-.67.46-2.01,1.42-3.18,2.85-.95,1.15-1.44,2.19-1.7,2.93Z"/>
  <path class="cls-5" d="M300.45,287.16c.37,2.09,2.32,12.97-4.98,20.47-5.61,5.75-13.22,5.98-16.86,6.1-3.12.1-7.9.24-12.61-2.58-6.65-3.98-9.9-11.93-9.82-18.76.14-11.62,9.96-22.08,21.11-23.31,1.16-.13,10.06-.96,16.86,5.42,4.85,4.56,5.86,10.21,6.3,12.66Z"/>
  <path class="cls-12" d="M264.4,297.57s2.3-5.54,8.9-11.06c6.6-5.52,8.34-6.48,8.22-3.94-.46,2.08-2.43,4.8-.87,4.52,1.56-.29,6.31-2.78,8.34-3.36,2.03-.58,4.75-.64,3.42,1.04-1.33,1.68-7.93,6.89-8.68,7.58s-.17,1.16,3.07,1.04c3.24-.12,5.96.06,5.27,1.45-.69,1.39-14.7,5.09-18.29,6.08-3.59.98-8.59,2.03-9.36-3.36"/>
</svg>