<?xml version="1.0" encoding="UTF-8"?>
<svg width="731px" height="41px" viewBox="0 0 731 41" version="1.1" xmlns="http://www.w3.org/2000/svg" xmlns:xlink="http://www.w3.org/1999/xlink">
    <defs>
        <linearGradient x1="97.1299152%" y1="50.02%" x2="3.29028527%" y2="50.02%" id="linearGradient-1">
            <stop stop-color="#61D0FF" offset="0.11%"></stop>
            <stop stop-color="#3D63FF" offset="100%"></stop>
        </linearGradient>
        <linearGradient x1="97.1163254%" y1="50.0074448%" x2="3.27820971%" y2="50.0074448%" id="linearGradient-2">
            <stop stop-color="#61D0FF" offset="0.11%"></stop>
            <stop stop-color="#3D63FF" offset="100%"></stop>
        </linearGradient>
        <linearGradient x1="97.1066625%" y1="49.97%" x2="3.27807319%" y2="49.97%" id="linearGradient-3">
            <stop stop-color="#61D0FF" offset="0.11%"></stop>
            <stop stop-color="#3D63FF" offset="100%"></stop>
        </linearGradient>
        <linearGradient x1="97.1158143%" y1="50.000471%" x2="3.28036937%" y2="50.000471%" id="linearGradient-4">
            <stop stop-color="#61D0FF" offset="0.11%"></stop>
            <stop stop-color="#3D63FF" offset="100%"></stop>
        </linearGradient>
        <linearGradient x1="97.1055914%" y1="49.9945747%" x2="3.27714782%" y2="49.9945747%" id="linearGradient-5">
            <stop stop-color="#61D0FF" offset="0.11%"></stop>
            <stop stop-color="#3D63FF" offset="100%"></stop>
        </linearGradient>
        <linearGradient x1="97.0120307%" y1="50.0002097%" x2="3.27988155%" y2="50.0002097%" id="linearGradient-6">
            <stop stop-color="#E69B36" stop-opacity="0.51723667" offset="0%"></stop>
            <stop stop-color="#E69B36" offset="100%"></stop>
        </linearGradient>
    </defs>
    <g stroke="none" stroke-width="1" fill="none" fill-rule="evenodd">
        <g id="Group" transform="translate(-0.4321, 0.2072)" fill-rule="nonzero">
            <path d="M32.0543478,8.82756011 C32.5165683,8.81116011 32.9772468,8.79466011 33.4321427,8.77716011 C33.0501072,8.77076011 32.6588196,8.76436011 32.2694596,8.75796011 C31.9610556,8.77446011 31.6800224,8.79216011 31.4321427,8.81136011 C31.6395444,8.81676011 31.8473316,8.82216011 32.0543478,8.82756011 Z" id="Path" fill="url(#linearGradient-1)"></path>
            <path d="M13.422013,10.2498242 C11.9223468,10.0045669 10.4819484,9.74227064 8.3437195,9.80113239 C7.82981042,9.94673778 7.56673791,10.0185078 7.43214268,10.0582653 C8.22327206,10.2069687 9.29276886,10.4109195 10.3618833,10.6102233 C12.4664633,11.0052167 13.5497256,10.7010976 13.422013,10.2498242 Z" id="Path" fill="url(#linearGradient-2)"></path>
            <path d="M6.43214268,9.80831011 C5.83189244,9.78131011 5.43214268,9.76341011 5.43214268,9.76341011 C5.66204571,9.78441011 5.88569288,9.80321011 6.10089463,9.82211011 C6.29169851,9.81791011 6.29764158,9.81721011 6.29764158,9.81721011 C6.29764158,9.81721011 6.30358465,9.81671011 6.43214268,9.80831011 Z" id="Path" fill="url(#linearGradient-3)"></path>
            <path d="M442.071252,7.1221548 C472.793235,7.43241878 503.641179,7.64043401 534.476814,7.79240004 C535.510344,7.79826293 536.379347,7.73189505 536.429813,7.63949595 C536.4811,7.56046423 535.678565,7.4781493 534.72299,7.47932188 C503.871764,7.31422298 473.17727,7.10222099 442.462262,6.79289507 C441.428732,6.78937734 440.575731,6.85504167 440.43459,6.94087434 C440.384534,7.03350795 441.108292,7.11066355 442.071252,7.1221548 Z" id="Path" fill="url(#linearGradient-4)"></path>
            <path d="M672.028647,17.7578472 C671.208429,17.7794085 671.238774,17.8087905 672.090715,17.8289632 C672.81852,17.8465046 674.121948,17.8486973 674.93343,17.8275014 C675.621695,17.809229 675.595488,17.7738538 674.867684,17.7566777 C674.02034,17.7361396 672.717372,17.7398672 672.028647,17.7578472 Z" id="Path" fill="url(#linearGradient-5)"></path>
            <path d="M729.47571,16.5170574 C675.366512,16.2618313 621.695997,16.9802257 569.265056,18.2765058 C566.409716,18.2877895 563.545743,18.3014911 560.670669,18.3106255 C560.670669,18.3087449 560.670669,18.305521 560.666557,18.3025658 C559.764525,17.8772784 557.87001,17.5014244 555.29671,17.1946157 C573.858678,17.0095095 592.319096,16.790821 610.845706,16.5355949 C626.277696,16.5713266 641.709686,16.6097448 657.172922,16.6374167 C659.40169,16.6438645 661.264548,16.4652062 661.31594,16.21401 C661.382544,15.9848438 659.53901,15.8048422 657.197179,15.788454 C653.407739,15.7726031 649.618298,15.7680359 645.828858,15.7546029 C648.951436,15.4620332 650.995193,15.0477608 651.203227,14.5827119 C651.414551,14.1345886 649.845656,13.7259581 647.209863,13.4102837 C663.927887,12.9863396 680.490089,12.5148429 696.655546,11.8880612 C697.604448,11.8531355 698.110556,11.7548063 697.773013,11.6564771 C697.435471,11.5594911 696.459434,11.506834 695.522044,11.5425656 C672.013287,11.8101501 648.806305,12.2112581 625.53354,12.5253206 C607.16275,11.9751068 589.189118,11.3794896 569.329193,11.1648309 C540.407009,10.8690373 513.246131,11.4466543 486.1202,12.025346 C476.364765,11.8789268 466.644276,11.7693139 456.998204,11.7008058 C458.355775,11.4872219 459.164068,11.2330703 459.164068,10.9571575 C459.164068,10.8878434 459.062106,10.8206786 458.951922,10.7521706 C467.444347,10.7884395 475.984053,10.8153055 484.66519,10.843246 C565.139306,11.0912183 640.705692,9.19744038 717.681041,7.63330713 C722.603983,7.57205286 726.165243,7.10700397 725.573208,6.60380548 C724.996384,6.09738309 720.450042,5.73173806 715.543134,5.79299233 C678.63011,5.79621624 644.604906,6.67311953 607.2532,7.54196304 C580.656812,8.15719237 557.289486,8.61095758 530.579625,9.0397375 C499.307798,9.53407023 470.217048,9.42472598 439.561104,9.4134423 C436.548299,9.33311323 433.528505,9.27830677 430.480754,9.30839659 C427.397234,9.33687445 424.322348,9.36588964 421.265963,9.39409884 C397.270832,9.32290418 373.738641,8.99916997 350.323623,8.65501767 C378.339253,8.3441791 406.300612,7.98014603 433.861936,7.2926474 C435.846079,7.2644382 437.156369,7.07315292 436.952446,6.87837508 C436.599691,6.68198528 434.81865,6.54013328 432.833685,6.56914846 C394.406859,6.99470446 355.839013,7.16234774 317.326259,7.37109586 C306.821323,5.62696101 284.583388,4.59799668 264.711129,4.53566777 C257.371529,4.50477197 250.569284,4.69820652 243.712769,4.98486578 C246.913463,5.05847837 250.036041,5.1245685 253.233446,5.19898707 C243.783485,5.26024135 235.730564,5.71024533 227.766859,6.17636886 C227.072862,6.15353284 226.378453,6.12962218 225.633063,6.11645788 C207.13811,5.15224039 185.53538,5.34218237 165.557049,4.92522346 C165.980519,5.14901648 166.49855,5.3695856 166.92202,5.59230399 C163.227141,5.42116815 161.069499,5.0181795 157.021454,4.89620827 C158.159067,5.05847837 159.217743,5.22262907 160.355356,5.38570514 C160.27724,5.38409319 160.19049,5.38086928 160.112786,5.37872001 C155.78599,5.01683621 150.568675,4.85644673 145.151547,4.84247645 C132.861869,3.80787028 117.862806,3.2087605 102.140965,2.92720577 C100.110775,2.65908399 97.0494568,2.47451519 93.4853188,2.44012683 C91.9789165,2.35630519 90.218021,2.29961812 89.1268661,2.18248276 C79.3516965,1.09548806 67.415185,0.350765045 54.2460877,-0.207239895 C56.7807412,-0.000909709937 59.4276347,0.204883157 61.9663996,0.410676024 C58.1609247,0.240346157 54.4068419,0.0624938365 50.1663852,0.0520161318 C50.6100009,0.180435179 51.1827134,0.309660204 51.6292071,0.439691206 C38.5357588,-0.494436467 20.5814497,-0.159418576 11.531524,1.17930969 C2.44706293,2.52153053 5.6477567,4.36103936 18.7457274,5.29382373 L20.6131071,5.43648171 C13.9305026,5.6428119 8.10593885,6.08341281 4.81191721,6.85365844 C3.05102171,7.27760249 4.59278172,7.81384605 4.97267138,8.3073728 C4.43942799,9.02146868 9.71594743,9.64636973 16.7212938,9.6971463 C18.6211532,9.71057926 20.4470082,9.68048944 22.1112867,9.61601125 C30.1880535,9.87902851 38.4547651,10.0861647 46.3103406,10.4061377 C47.8640236,10.4853921 49.7585383,10.416078 50.5787546,10.2500467 C51.2768635,10.0856274 50.6058896,9.89138683 48.9975255,9.81804289 C43.330838,9.4843683 37.8286049,9.13376818 32.3666631,8.77403365 C31.9197583,8.81406386 31.4712089,8.8538254 31.0234818,8.89573622 C31.2117821,8.83636256 31.4403737,8.78155611 31.7030896,8.73051088 C31.1990369,8.69719715 30.6958064,8.66361476 30.192576,8.63030104 C30.5897333,8.5983306 30.9922355,8.56716615 31.4029604,8.53707633 C31.8025846,8.55373319 32.196864,8.57065872 32.596077,8.58704692 C33.2966528,8.49247892 34.1329034,8.41268717 35.0526146,8.34202983 C44.8594417,8.59027083 54.561429,8.86967629 63.6956376,9.34385959 C64.228881,9.37421807 63.3350713,9.69338507 64.3152195,9.8107891 C64.8061159,9.86881946 65.3122243,9.92147665 65.8417675,9.97520846 C64.2021571,9.90589442 62.4683966,9.84705808 60.6047171,9.80299798 C53.5833365,10.2554199 50.9315093,10.4262871 49.0994873,10.5436911 C49.0912645,10.5418105 49.0723523,10.5404672 49.0682409,10.5391239 C49.0682409,10.5391239 49.0522066,10.5404672 48.5189632,10.5804974 C47.6720231,10.6353039 46.9307449,10.6820505 45.8597356,10.7513646 C45.8597356,10.7513646 45.8679583,10.7626483 45.8679583,10.7790365 C45.6558121,10.7954247 45.4284539,10.8123502 45.1932841,10.829813 C44.1457096,10.809395 43.098135,10.7852156 42.0431601,10.7658722 C40.8582661,10.736857 39.7095521,10.7956933 39.1327283,10.8948285 C38.72077,10.8155741 38.2812657,10.7349764 37.7245875,10.6543787 C31.7228242,10.4980191 31.7228242,10.4980191 25.5640069,10.356973 C25.5640069,10.356973 25.5759298,10.4383767 25.776153,10.5517509 C25.5327605,10.559542 23.4807808,10.6468562 21.0846801,10.6027961 C18.7782072,10.6159604 18.7782072,10.6159604 13.0198363,10.4824368 C13.0198363,10.4824368 13.0198363,10.4824368 15.8011714,10.8029471 C15.8011714,10.8029471 15.8011714,10.8029471 13.3651906,10.5807661 C13.3651906,10.5807661 13.3651906,10.5807661 14.0008068,10.9458738 C14.0008068,10.9458738 14.0008068,10.9458738 12.8784056,10.547721 C12.8784056,10.547721 12.8784056,10.547721 11.830831,10.8464699 C11.830831,10.8464699 11.815619,10.843246 7.00244982,9.97843237 C6.62543811,9.99723851 5.73162844,10.0412986 3.48764815,10.1538668 C3.48764815,10.1538668 2.8635437,10.2360764 2.40882728,10.335749 C2.35743528,10.442138 2.35743528,10.442138 0.435533686,10.8139622 C0.435533686,10.8139622 0.396316554,10.9364707 0.584616843,11.0665017 C1.1733636,11.1873983 1.1733636,11.1873983 1.32219483,11.5221475 C1.32219483,11.5221475 1.98576833,11.6513726 2.95481589,11.7625974 C3.88028303,11.8270756 4.11956418,11.8434638 7.55172752,12.0508686 C7.25365392,12.1067497 6.97161462,12.1669294 6.72041052,12.2281836 C6.05765929,12.8498608 6.05765929,12.8498608 10.3453966,14.2941721 C10.3453966,14.2941721 12.737797,14.6888323 16.6139873,14.9733423 C21.1130485,15.1106271 21.1130485,15.1106271 26.3106298,15.2538224 C26.3106298,15.2538224 27.4400204,15.3072855 29.3941499,15.3779429 C30.8491602,15.6127509 31.1710797,15.6740052 32.2494894,15.8851712 C32.2494894,15.8851712 32.2577121,15.8851712 32.2737464,15.8883951 C31.280853,15.9029027 30.3076941,15.9442762 29.5006341,16.0125156 C27.1588034,16.2150846 26.8327726,16.5672967 28.7984138,16.8061346 C26.2131906,17.7630983 27.7586508,18.6292552 31.0263598,19.4583372 C30.0301773,19.7742803 29.5705272,20.1092982 29.7041464,20.4523759 C25.8760591,21.2688308 23.4910592,22.137137 22.4907653,23.0613243 L22.0319375,23.8686449 C23.1383045,24.550233 26.3509212,25.1872237 31.1205099,25.6767206 L32.5640084,25.8706925 L31.1949255,26.5361611 C37.3019397,28.3079678 49.391805,29.7278311 56.8568013,31.4193088 L62.4708634,32.3109883 C66.5501548,33.0312633 73.0222578,33.5591785 80.6052502,33.8135986 L88.618702,34.0685561 C90.305593,34.0809144 91.9809722,34.0895115 93.6789639,34.095422 C85.1511809,34.9218174 80.4634082,36.1393804 82.0244916,37.4257202 C84.7116765,39.5416792 103.705749,41.0445582 124.43687,40.7576303 C179.774543,40.6738086 233.201666,40.5314193 289.75959,39.6512921 C331.630092,39.0102715 369.613713,38.140622 410.66811,38.1443832 C449.931187,37.2279871 487.753643,36.0429318 526.058362,34.6252177 C558.244555,33.443655 582.870779,31.0681713 611.338247,29.2617076 C612.165864,29.2141549 612.244391,29.0954076 611.804887,29.0097053 C611.145425,28.9231971 609.988488,28.9146 609.24721,28.9715558 C564.085153,30.5448234 518.570342,31.9101489 470.164012,32.2293159 C464.617376,32.263167 459.16489,32.2696148 453.767086,32.2551072 C453.170939,32.2228681 452.515588,32.2003008 451.805967,32.1938529 C446.898237,32.0906878 441.967071,31.9998811 437.044951,31.9133728 C438.758566,31.9074623 440.468892,31.9010145 442.18744,31.8905368 C445.587946,31.9042384 448.502489,31.6363853 448.745882,31.2758448 C448.754105,31.1248584 448.275131,30.9862303 447.482872,30.8720502 C460.066923,30.4935095 472.380035,30.0007887 484.653678,29.4822767 C488.317722,29.4430525 491.686981,29.3159767 494.589602,29.1246914 C508.782016,29.3879774 523.021712,29.5771134 537.292654,29.8199812 L540.826779,29.9234149 C545.51044,29.9986395 550.025535,29.7815629 552.273216,29.3635294 C552.99846,29.2402148 553.430975,29.1069599 553.645999,28.9731677 C586.141366,28.2319373 619.139964,27.6784995 649.818933,26.288726 C651.375905,26.2183373 652.200232,26.0668136 651.948617,25.899439 C652.525441,25.9397379 653.290154,25.9510215 653.973051,25.9085734 C657.629283,25.628362 661.727898,25.4561515 666.046882,25.3051651 C666.988383,25.2471347 667.502714,25.1488055 667.06321,25.0636406 C666.615483,24.9556396 665.548996,24.9134601 664.705345,24.9588635 C660.288511,25.1211336 655.965416,25.3164488 652.00412,25.5872571 C651.579828,25.6189589 651.297789,25.6705415 651.223373,25.7253479 C650.340664,25.6211082 648.944446,25.5735555 647.560151,25.6189589 C615.852932,26.0891123 585.157929,27.1374201 553.148525,27.3671236 C568.803761,26.726909 584.824498,26.2838902 601.672029,25.7989605 C622.007638,25.2213434 640.714737,24.3936048 661.215211,24.0628854 C662.282109,24.0615421 662.99543,23.9618696 662.882368,23.8635404 C662.745048,23.7652112 661.870151,23.6795089 660.818465,23.7053002 C618.818456,24.2033941 582.008216,26.6175648 538.627201,26.6189081 C536.920987,26.6175648 535.214361,26.6076244 533.53117,26.5931168 C546.91118,25.7508705 560.04862,24.8903554 573.147002,24.0421987 C613.051862,23.6859567 652.784868,23.1491758 692.03191,22.3609301 C693.950271,22.3560942 695.49902,22.1887196 695.452562,21.9934044 C695.413093,21.7970146 693.781705,21.6379684 691.871156,21.6428043 C669.597863,21.3556077 647.191773,21.0882919 624.741692,20.8693348 C626.310587,20.7790653 627.872493,20.6906765 629.44961,20.6044369 C631.010694,20.5735411 632.571366,20.5364661 634.133272,20.5053017 C648.568257,20.4781671 663.004064,20.4214801 677.490441,20.3140164 C682.900169,20.3349718 687.375795,19.8997441 687.662768,19.3336794 C687.748695,18.7823909 683.731897,18.3364168 678.522804,18.2942373 C679.365632,18.2609236 680.201061,18.2249233 681.048412,18.1948335 C681.899875,18.1703855 682.507534,18.0615786 682.276064,17.973727 C681.942633,17.8759351 680.856412,17.8128002 680.029206,17.8372482 C676.981044,17.9645926 673.991674,18.0997282 670.991203,18.2335204 C643.48456,18.0258469 615.939681,18.0916684 588.394392,18.2002067 C618.034831,17.5503203 648.074071,17.1046149 678.325869,16.9291805 C677.71451,16.9968826 677.643795,17.1142866 678.396585,17.1884365 C679.040013,17.2507654 680.319057,17.2496908 680.942339,17.18172 C681.660594,17.1048835 681.538486,16.9853302 680.883546,16.9213894 C680.856,16.9192401 680.844077,16.9181655 680.816942,16.9160162 C697.053114,16.829508 713.343556,16.8182243 729.677578,16.8964041 C730.631003,16.9050012 731.450808,16.8166123 731.431819,16.70888 C731.410516,16.5989985 730.535619,16.5138335 729.47571,16.5170574 Z M24.0810393,12.758248 C24.5990707,12.8036514 24.999106,12.8729655 25.658157,12.985265 C25.658157,12.985265 25.6507566,12.985265 24.0810393,12.758248 Z M33.566358,25.3852255 L33.1741343,25.3016725 L37.9083653,23.2773262 L33.566358,25.3852255 Z M60.0759962,16.6264017 C59.479849,16.5068484 58.7657058,16.3601605 57.8521616,16.176935 C57.8521616,16.176935 58.7969521,16.3658024 60.1031312,16.6264017 C60.0842189,16.6264017 60.0842189,16.6264017 60.0759962,16.6264017 Z M122.560446,12.0430775 C121.587698,12.0769286 119.68126,12.0430775 120.713623,12.3254382 C112.765953,12.1763324 104.692886,12.0702121 96.4084958,12.0121817 C93.3249758,11.9896144 90.281336,12.025346 87.3667928,12.1204513 C84.1068955,11.5906556 80.6545865,11.0769794 76.2225404,10.6597518 C83.6439564,10.9765009 92.1211696,11.1006214 99.9195972,11.3136681 C108.568665,11.553312 117.073013,11.7741498 125.550227,11.9751068 C124.557333,11.9995547 123.56444,12.0186295 122.560446,12.0430775 Z M142.366511,7.48849988 C140.349889,7.40521556 138.329567,7.32622979 136.305956,7.24133351 C136.674745,7.29721461 137.047645,7.35014045 137.423423,7.40360361 C129.613895,7.26685613 121.826979,7.12312351 114.084055,6.9544056 C102.923768,6.43266964 90.9362756,6.07535304 78.7921404,5.9265159 C82.3028307,5.71051399 85.6408439,5.46737751 88.7416316,5.20462891 C104.210213,5.77606681 119.060445,6.52562568 135.25427,6.74323955 C136.325279,6.79643405 137.380665,6.8539271 138.43564,6.91410674 C139.958077,7.10861592 141.487503,7.30500572 143.021451,7.50032088 C142.806016,7.49790295 142.586058,7.49387306 142.366511,7.48849988 Z" id="Shape" fill="url(#linearGradient-6)"></path>
        </g>
    </g>
</svg>
