<?xml version="1.0" encoding="UTF-8"?>
<svg id="Layer_1" data-name="Layer 1" xmlns="http://www.w3.org/2000/svg" viewBox="0 0 640 640">
  <defs>
    <style>
      .cls-1 {
        fill: #8e8e8e;
      }

      .cls-1, .cls-2, .cls-3, .cls-4, .cls-5, .cls-6 {
        stroke: #231f20;
        stroke-miterlimit: 10;
      }

      .cls-1, .cls-4, .cls-5, .cls-6 {
        stroke-width: 19.84px;
      }

      .cls-7 {
        fill: #fff;
      }

      .cls-2 {
        stroke-width: 20.45px;
      }

      .cls-2, .cls-3 {
        fill: none;
      }

      .cls-3 {
        stroke-width: 12.27px;
      }

      .cls-4 {
        fill: #fff0bf;
      }

      .cls-5 {
        fill: #f7941d;
      }

      .cls-6 {
        fill: #ffae2b;
      }
    </style>
  </defs>
  <path class="cls-1" d="M168.67,429.07c-34.6,16.11-73.49,22.85-111.47,19.29-9.07-.85-18.47-2.39-25.92-7.63-7.49-5.24-12.42-15.09-9.38-23.67,1.05-2.99,3-5.63,5.53-7.53l1.83-1.24c44.85-14.77,76.39-10.56,97.34-3.46,15.97,5.42,29.79,13.88,42.6,23.56,38.45,28.98,68.02,68.99,120.07,71.41,6.77.32,12.77-.07,13.37-.13,11.2-.82,36.67-4.54,86.07-43.86,12.48-9.93,29.17-24.27,47.39-43.38"/>
  <path class="cls-6" d="M462.13,137.32c-4.05,3.72-11.19,8.9-16.24,10.79-1.33.49-2.67.94-4.04,1.34-5.94,1.7-12.26,2.42-18.61,2.45-4.31.04-8.63-.26-12.82-.79-7.79-.98-16.01-3.04-22.78-6.91-.65-.38-1.33-.81-1.99-1.28-4.69-3.32-9.54-8.9-11.8-13.75,2.05-1.63,5.1-3.81,9.08-5.86,14.36-7.38,28.11-6.42,37.4-5.64,10.78.9,23.61,1.97,34.58,11.5,3.42,2.97,5.75,5.98,7.23,8.15Z"/>
  <path class="cls-5" d="M436.11,412.4v.03c-18.24,19.12-34.93,33.46-47.41,43.38-49.4,39.31-74.87,43.03-86.07,43.86-.61.06-6.61.45-13.37.13-52.05-2.42-81.63-42.43-120.07-71.41-12.81-9.68-26.63-18.13-42.6-23.56-20.95-7.1-52.48-11.31-97.34,3.46,46.7-23.21,93.51-44.49,140.2-67.7,17.79-2.42,33.9-3.12,48.23-2.77,19.68.46,35.98,2.87,48.49,5.42,24.84,5.09,48.42,14.38,86.63,31.13,1.24.53,2.48,1.08,3.75,1.64,7.5,3.3,15.54,6.87,24.25,10.75,23.4,10.4,37.06,16.85,49.89,23.05l5.42,2.58Z"/>
  <path class="cls-7" d="M275.12,395.08c6.56,3.33,13.66,9.64,6.29,10.78-7.39,1.14-36.64-1.15-40.21-1.15s-3.2,2.55,5.4,9.93c8.57,7.4,15.12,14.28,10.06,16.19-5.08,1.92-49.74-21.78-61.26-27.77-11.53-5.97-26.79-15.16-16.01-30.77,0,0,19-8.73,48.99-7.23,29.96,1.49,36.7,3.13,30.37,9.39-6.12,4.24-17.61,6.55-12.93,9.49,4.69,2.97,22.75,7.85,29.3,11.15Z"/>
  <path class="cls-4" d="M580.23,220.52c53.97,75.05,37.75,161.39,34.94,175.15,0,0-41.72,26.85-82.78,31.88l-.2-1.73c10.5-97.99-30.27-195.12-86.2-276.28l-4.14-.09c1.37-.4,2.71-.85,4.04-1.34,5.05-1.89,12.19-7.07,16.24-10.79,1.77.49,4.6,1.28,7.23,2.11,25.95,8.01,76.19,32.86,110.87,81.09Z"/>
  <path class="cls-4" d="M445.99,149.54c55.93,81.16,96.7,178.3,86.2,276.28l.2,1.73c-6.95.85-14.25,1.33-21.86,1.31-33.21-.09-58.57-9.2-73.78-16.16l-.65-.32-5.42-2.58c-12.83-6.2-26.49-12.65-49.89-23.05-8.71-3.88-16.75-7.44-24.25-10.75-1.27-.56-2.51-1.11-3.75-1.64l4.23-.03c6.55-76.74,29.26-152.06,66.22-219.62v-2.81c6.35-.03,12.67-.75,18.61-2.45l4.14.09Z"/>
  <path class="cls-4" d="M423.24,151.91v2.81c-36.96,67.56-59.67,142.88-66.22,219.62l-4.23.03c-38.22-16.75-61.79-26.04-86.63-31.13-12.51-2.55-28.81-4.96-48.49-5.42v-.13c11.89-43.16,29.73-85.26,57.53-120.35,27.81-35.09,66.22-62.83,109.9-72.61l.53-1.8c.66.48,1.34.91,1.99,1.28,6.77,3.87,14.99,5.93,22.78,6.91,4.2.53,8.51.84,12.83.79Z"/>
  <path class="cls-4" d="M385.64,142.92l-.53,1.8c-43.68,9.78-82.09,37.52-109.9,72.61-27.8,35.09-45.65,77.18-57.53,120.35v.13c-14.33-.35-30.44.35-48.23,2.77l.35-1.82c8.28-42.78,15.13-80.17,33.12-112.43,3.59-6.43,17.38-30.18,44.1-52.12,5.81-4.76,36.2-29.11,83.96-39.88,16.53-3.74,29.17-4.41,42.86-5.16,2.26,4.85,7.11,10.43,11.8,13.75Z"/>
  <path class="cls-3" d="M373.84,129.17c2.26,4.85,7.11,10.43,11.8,13.75.66.48,1.34.91,1.99,1.28,6.77,3.87,14.99,5.93,22.78,6.91,4.2.53,8.51.84,12.83.79,6.35-.03,12.67-.75,18.61-2.45,1.37-.4,2.71-.85,4.04-1.34,5.05-1.89,12.19-7.07,16.24-10.79"/>
  <path class="cls-2" d="M169.44,340.58c-46.68,23.21-93.5,44.49-140.2,67.7"/>
</svg>