<?xml version="1.0" encoding="UTF-8"?>
<svg id="Layer_1" data-name="Layer 1" xmlns="http://www.w3.org/2000/svg" viewBox="0 0 640 640">
  <defs>
    <style>
      .cls-1 {
        fill: #fff;
      }

      .cls-2 {
        fill: #f7941d;
        stroke: #231f20;
        stroke-linecap: round;
        stroke-linejoin: round;
        stroke-width: 19.84px;
      }
    </style>
  </defs>
  <path class="cls-2" d="M262.84,59.45c1.28-5.25,5.81-9.06,11.19-9.49,25.81-2.06,100.86-9.49,103.7,4.69,5.55,27.67-10.45,77.82-15.16,79-13.4,3.37-46.6.34-74.7-.16-13.89-.25-25.36-10.97-26.49-24.81-1.29-15.68-1.88-35.61,1.46-49.23Z"/>
  <path class="cls-2" d="M340.91,184c2.53,1.44,4.17,4.01,4.54,6.89,3.85,29.94,32.91,259.49,27.63,267.71-5.66,8.81-82.58,133.45-88.91,134.29-6.33.84-73.32-103.07-79.43-124.82-5.52-19.65,52.42-239.87,63.63-282.13,1.11-4.17,4.89-7.02,9.2-6.96,15.37.21,50.33-2.42,63.34,5.01Z"/>
  <path class="cls-1" d="M269.17,483.14s-11.6-21.33-12.18-56.16c-.58-34.83.8-42.76,8.53-35.91,5.38,6.76,8.94,19.89,12.01,14.23,3.07-5.66,7.31-26.95,10.65-34.8,3.33-7.85,10.08-16.57,11.98-8.1,1.9,8.47,1.51,42.51,1.78,46.65s3.2,3.49,11.09-7.01c7.89-10.5,15.36-18.63,17.97-12.91,2.61,5.72-21.39,59.28-27.42,73.09-6.04,13.81-15.48,32.2-34.4,20.93"/>
</svg>