<?xml version="1.0" encoding="UTF-8"?>
<svg id="Layer_1" data-name="Layer 1" xmlns="http://www.w3.org/2000/svg" viewBox="0 0 640 640">
  <defs>
    <style>
      .cls-1 {
        fill: #d6be7b;
      }

      .cls-2 {
        fill: #fff;
      }

      .cls-3 {
        fill: #fff0bf;
      }

      .cls-3, .cls-4 {
        stroke-miterlimit: 10;
      }

      .cls-3, .cls-4, .cls-5 {
        stroke: #231f20;
        stroke-width: 19.84px;
      }

      .cls-4 {
        fill: #f7941d;
      }

      .cls-5 {
        fill: none;
        stroke-linecap: round;
        stroke-linejoin: round;
      }
    </style>
  </defs>
  <path class="cls-4" d="M536.98,370.59c1.77-1.52,2.99-5.8,4.67-13.51,0,0,2.58-9.38,3.56-19.94,5.22-55.81-20.67-106.4-20.67-106.4-17.44-34.08-40.35-54.22-49.27-61.52-3.08-2.52-16.87-13.65-35.64-23-7.02-3.5-95.41-45.88-172.96-4.7-39.74,21.11-75.73,63.68-67.86,78.48,1.51,2.84,4.34,4.08,5.46,4.58,36.73,16.41,197.74,88.35,261.93,116.98,6.92,3.09,29.46,23.55,63.36,28.25,3.39.47,6.11.69,7.42.79Z"/>
  <path class="cls-3" d="M594.54,422.44c-24.71-48.47-95.14-96.87-251.29-156.51-70.95-27.09-99.86-33.7-117.36-37.16-31.08-6.14-157.78-31.19-181.03,12.71-10.94,20.66,4.41,49.44,14.04,64.72,25.77,40.87,105.66,92.11,212.23,132.84,98.49,37.64,233.21,92.91,295.72,65.7,7.65-3.33,27.9-12.15,35.22-31.57,7.62-20.25-2.78-41.39-7.54-50.71v-.02Z"/>
  <path class="cls-1" d="M182.47,284.41s-20.86,26.05,87.23,84.33c46.19,24.9,176.32,60.52,212.26,20.9l-119.96-70.75-179.54-34.48h0Z"/>
  <path class="cls-2" d="M449.38,223.02c7,4.7,14.19,12.85,5.65,13.13-8.56.27-41.5-6.42-45.55-6.91-4.06-.49-4,2.45,4.76,12.03,8.71,9.61,15.2,18.33,9.18,19.8-6.04,1.48-53.51-31.68-65.76-40.09-12.27-8.4-28.34-20.96-13.92-37.21,0,0,22.82-7.27,56.7-1.4,33.85,5.86,41.28,8.67,33.21,14.91-7.54,3.97-20.94,4.99-16.02,9,4.91,4.04,24.77,12.09,31.76,16.75h-.01Z"/>
  <path class="cls-5" d="M490.48,388.73c-34.07-23.83-84.56-53.7-150.69-75.45-63.21-20.8-127.56-35.83-168.09-37.32"/>
</svg>