<?xml version="1.0" encoding="UTF-8"?>
<svg id="Layer_1" data-name="Layer 1" xmlns="http://www.w3.org/2000/svg" viewBox="0 0 640 640">
  <defs>
    <style>
      .cls-1 {
        fill: #f1f2f2;
      }

      .cls-2 {
        fill: #231f20;
      }

      .cls-3 {
        fill: #a5a5a5;
      }

      .cls-3, .cls-4, .cls-5, .cls-6, .cls-7 {
        stroke: #231f20;
        stroke-linecap: round;
        stroke-linejoin: round;
      }

      .cls-3, .cls-4, .cls-6, .cls-7 {
        stroke-width: 19.84px;
      }

      .cls-4 {
        fill: #d8d8d8;
      }

      .cls-5 {
        stroke-width: 18.83px;
      }

      .cls-5, .cls-7 {
        fill: none;
      }

      .cls-6 {
        fill: #f7941d;
      }
    </style>
  </defs>
  <path class="cls-6" d="M493.49,366.96c-21.11-16.98-36.68-29.35-36.68-29.44l-23.17,28.95s14.79,15.61,30.41,32.06c13.02,13.72,26.62,28.04,32.71,34.38.27.28.54.57.84.88,5.91,6.18,18.84,19.87,33.68,33.68,22.7,21.12,49.89,42.49,63.21,37.52,22.47-8.37,16.34-31.67,11.8-42.13-1.49-3.44-18.11-18.11-39.78-36.26-10.63-8.9-22.47-18.65-34.32-28.32-13.47-10.99-26.97-21.89-38.7-31.31Z"/>
  <path class="cls-4" d="M413.53,388.04l.05.04c-43.71,50.5-91.81,104.66-91.81,104.66-40.75-40.6-250.29-250.36-281.27-322.1-2.68-6.19-10.35-15.68-4.52-22.35,12.02-13.76,42.3-39.97,72.98-62.2,155.09,210.37,304.57,301.94,304.57,301.94Z"/>
  <path class="cls-3" d="M172.02,49.39l310.18,255.92c-6.04,9.7-36.11,45.22-68.62,82.77l-.05-.04S264.05,296.47,108.96,86.1c23.42-16.99,47.1-31.67,63.06-36.71Z"/>
  <line class="cls-7" x1="493.49" y1="366.96" x2="464.05" y2="398.52"/>
  <g>
    <polygon class="cls-1" points="461.06 288.06 173.88 346.76 208.12 374.08 455.94 334.22 479.16 304.2 461.06 288.06"/>
    <polygon class="cls-1" points="433.64 359.59 220.97 388.04 231.47 399.36 424.13 369.91 433.64 359.59"/>
    <polygon class="cls-1" points="259.25 127.99 52.29 192.11 65.2 211.46 279.29 141.62 259.25 127.99"/>
    <polygon class="cls-1" points="251.5 113.79 47.2 172.31 46.3 179.49 251.92 118.22 251.5 113.79"/>
  </g>
  <line class="cls-7" x1="532.19" y1="398.27" x2="497.6" y2="433.78"/>
  <line class="cls-7" x1="566.51" y1="426.6" x2="531.28" y2="467.46"/>
  <path class="cls-5" d="M413.58,388.08c32.51-37.54,62.57-73.07,68.62-82.77L172.02,49.39c-15.97,5.04-39.64,19.72-63.06,36.71-30.68,22.23-60.95,48.44-72.98,62.2-5.83,6.67,1.83,16.15,4.52,22.35,30.98,71.74,240.53,281.5,281.27,322.1,0,0,48.11-54.16,91.81-104.66Z"/>
  <path class="cls-5" d="M413.53,388.04S264.05,296.47,108.96,86.1"/>
  <ellipse class="cls-2" cx="578.99" cy="472.9" rx="11.24" ry="10.56" transform="translate(-161.74 573.8) rotate(-47)"/>
</svg>