<?xml version="1.0" encoding="UTF-8"?>
<svg id="Layer_1" data-name="Layer 1" xmlns="http://www.w3.org/2000/svg" viewBox="0 0 640 640">
  <defs>
    <style>
      .cls-1 {
        fill: #fff;
      }

      .cls-2 {
        fill: #f2bf40;
      }

      .cls-3 {
        fill: #231f20;
      }

      .cls-4 {
        fill: #f7941d;
        stroke-miterlimit: 10;
        stroke-width: 19.84px;
      }

      .cls-4, .cls-5, .cls-6 {
        stroke: #231f20;
      }

      .cls-5 {
        fill: #f2c341;
      }

      .cls-5, .cls-6 {
        stroke-linecap: round;
        stroke-linejoin: round;
        stroke-width: 19.84px;
      }

      .cls-7 {
        fill: #ffbb71;
      }

      .cls-6 {
        fill: #f9db59;
      }
    </style>
  </defs>
  <path class="cls-6" d="M220.7,313.22s-129.02-34.23-111.86-137.41c17.16-103.18,116.15-111.76,141.32-108.33,25.17,3.43,117.99,10.27,113.34,130.08s-142.81,115.66-142.81,115.66Z"/>
  <path class="cls-5" d="M274.3,332.39s130.45,226.57,153.34,239.16c22.89,12.59,62.94,1.14,62.94-36.62s-127.02-255.18-127.02-255.18c0,0-72.09-22.89-89.26,52.64Z"/>
  <g>
    <path class="cls-2" d="M177.18,102.39l-15.22,32.13h-17.39s12.95-31.65,32.61-32.13Z"/>
    <path class="cls-2" d="M156.55,145.08c-.96,1.44-7.67,35.01-7.19,43.16l-25.42,7.19s5.28-34.53,20.62-50.36h11.99Z"/>
    <path class="cls-2" d="M147.44,201.67s-1.92,20.14,3.36,28.77l-13.91,3.36s-9.59-19.18-7.67-26.38c0,0,11.03-5.28,18.22-5.75Z"/>
    <path class="cls-2" d="M191.08,97.6s27.75-15.35,48.16-6.23l-17.95,35.49h-41.24s3.36-15.83,11.03-29.25Z"/>
    <path class="cls-2" d="M214.1,137.88s-9.59,35.49-7.67,40.76c0,0-41.95.96-44.48,7.19,0,0,5.15-42.2,8.03-43.64s44.12-4.32,44.12-4.32Z"/>
    <path class="cls-2" d="M163.75,195.43s-3.84,22.54,2.4,30.69c0,0,32.61-5.75,35.01-4.32,2.4,1.44,0-31.17,3.36-33.57,0,0-24.46.96-40.76,7.19Z"/>
    <path class="cls-2" d="M166.31,236.65s-3.04,21.61,4.15,28.33c7.19,6.71,29.25,7.67,29.25,7.67v-41.24l-33.41,5.25Z"/>
    <path class="cls-2" d="M260.14,91.36s-18.77,16.79-20.9,27.1l-2.12,5.04,47,3.36,17.26-24.46s-33.57-11.03-41.24-11.03Z"/>
    <path class="cls-2" d="M274.05,137.88s-23.02,35.01-23.5,45.08c0,0-29.25-9.11-33.57-4.8,0,0,7.67-34.05,13.43-40.28s43.64,0,43.64,0Z"/>
    <path class="cls-2" d="M221.78,188.24s23.98,0,25.9,3.36c1.92,3.36-7.74,30.21-8.43,34.53s-25.14-4.32-25.14-4.32c0,0,3.84-28.77,7.67-33.57Z"/>
    <polygon class="cls-2" points="212.19 231.4 212.19 264.01 215.33 269.67 242.6 252.02 241.44 248.19 234.73 240.51 212.19 231.4"/>
    <path class="cls-2" d="M261.58,193.03s-13.43,32.61-11.51,40.76c1.92,8.15,13.43.29,13.43.29l21.1-10.55s3.84-10.84,5.75-16.36c1.92-5.52-28.77-14.15-28.77-14.15Z"/>
    <path class="cls-2" d="M290.44,141.24s-23.11,31.17-23.11,44.6c0,0,21.75,9.59,23.11,9.59s21.49-42.2,24.37-42.2l-24.37-11.99Z"/>
    <path class="cls-2" d="M318.91,109.11s-19.76,19.18-21.04,23.98c-1.28,4.8,35.17,4.8,35.17,4.8,0,0-4.28-25.42-14.13-28.77Z"/>
    <path class="cls-2" d="M326.81,159.04s-26.86,26.32-25.42,36.4c1.44,10.07,12.68,6.23,12.68,6.23l28.08-15.83-15.35-26.8Z"/>
  </g>
  <circle class="cls-3" cx="368.18" cy="390.49" r="15.65"/>
  <circle class="cls-3" cx="387.49" cy="421.8" r="15.65"/>
  <path class="cls-4" d="M385.28,323.92s53.11-33.29,61.12-49.31c6.53-13.06-33.78-67.88-48.88-87.66-3.42-4.48-9.15-4.92-15.45-.99-42.79,26.68-209.74,131.08-213.73,137.97-4.58,7.9,0,31.93,0,31.93l56.07,54.93,160.87-86.86Z"/>
  <path class="cls-7" d="M184.84,332.12v12.13l47.74,49.31-6.26,5.28s-31.3-30.72-48.52-47.35c-2.74-11.74-1.04-22.46-1.04-22.46,36.28-25.23,115.55-75.12,166.6-106.95l-90.8,66.4-67.72,43.64Z"/>
  <path class="cls-1" d="M269.33,323.57c-.12.87-.06,1.75.18,2.57,4.74,16.72,20.38,10.51,31.72,5.15,11.72-5.53,58.45-27.07,59.83-32.34,1.37-5.21-8.41-4.03-19.64-1.55-11.07,2.44-13.33,1.25-11.2-1.54,2.12-2.78,21.02-23.99,24.32-30.18,3.27-6.13-5.84-4.05-12.2-.87-6.33,3.17-20.44,14.07-25.38,16-4.92,1.92,0-7.82.38-14.46-.97-7.66-5.94-3.64-24.13,17.35-16.57,19.13-22.5,35.36-23.61,38.7-.13.38-.22.78-.27,1.18h0Z"/>
</svg>