<?xml version="1.0" encoding="UTF-8"?>
<svg id="Layer_1" data-name="Layer 1" xmlns="http://www.w3.org/2000/svg" viewBox="0 0 640 640">
  <defs>
    <style>
      .cls-1 {
        stroke-width: 19.71px;
      }

      .cls-1, .cls-2 {
        fill: #fff0bf;
        stroke-linejoin: round;
      }

      .cls-1, .cls-2, .cls-3 {
        stroke: #231f20;
        stroke-linecap: round;
      }

      .cls-2, .cls-3 {
        stroke-width: 19.84px;
      }

      .cls-3 {
        fill: #f7941d;
        stroke-linejoin: bevel;
      }
    </style>
  </defs>
  <path class="cls-2" d="M295.97,263.13l264.03,267.36s14.41,17.46-1.52,31.85c-15.92,14.39-67.46-42.49-68.51-44.02s-229.55-232-229.55-232l28.76-29.75,6.79,6.57h-.01Z"/>
  <path class="cls-3" d="M274.75,211.58s27.68,31.29.17,59.73c-27.49,28.44-61.47,3.68-61.47,3.68,0,0,5.02-46.14,61.3-63.41h0Z"/>
  <path class="cls-3" d="M283.35,219.89s25.92-42.58-24.43-102.88c-.05-2.6-.39-6.49-1.8-11.08-5.22-17-26.5-26.86-33.63-30.61-21.25,9.02-57.08,27.44-90.77,63.13-34.67,36.73-51.06,74.77-58.69,96.76,1.49,3.31,12.78,27.5,35.17,30.74,3.21.46,7.28.59,12.04-.34,9,7.15,42.98,32.44,82.4,24.1,6.74-1.43,12.89-3.67,18.42-6.41,0,0-3.69-66.17,61.3-63.41h0Z"/>
  <path class="cls-1" d="M226.33,126.48s-21.91,6.86-39.14,23.99"/>
</svg>