<?xml version="1.0" encoding="utf-8"?>
<!-- Generator: Adobe Illustrator 27.0.0, SVG Export Plug-In . SVG Version: 6.00 Build 0)  -->
<svg version="1.1" xmlns="http://www.w3.org/2000/svg" xmlns:xlink="http://www.w3.org/1999/xlink" x="0px" y="0px"
	 viewBox="0 0 256 256" style="enable-background:new 0 0 256 256;" xml:space="preserve">
<style type="text/css">
	.st0{fill:#38ADE3;}
	.st1{fill:#56BDEC;}
	.st2{opacity:0.3;fill:#F1F2F2;}
	.st3{opacity:0.2;}
	.st4{opacity:0.3;}
	.st5{opacity:0.5;fill:#010101;}
	.st6{fill:#F7C217;}
	.st7{fill:#F9DF3B;}
	.st8{fill:#FBC615;}
	.st9{fill:#ACBFD4;}
	.st10{fill:#D6E2EE;}
	.st11{fill:#C4D2E1;}
	.st12{opacity:0.3;fill:#010101;}
	.st13{fill:#C8B6B7;}
	.st14{fill:#E9D2D6;}
	.st15{fill:#D5C3C6;}
	.st16{fill:#38ABE2;}
	.st17{fill:#52BEED;}
	.st18{fill:#36ADE3;}
	.st19{fill:#ACC0D6;}
	.st20{fill:#D7E2EE;}
	.st21{fill:#C4D2DE;}
	.st22{fill:#E9D4D5;}
	.st23{fill:#D5C3C7;}
	.st24{fill:#33AEE3;}
	.st25{fill:#57BBEA;}
	.st26{fill:#37ACE2;}
	.st27{opacity:0.3;fill:#FFFFFF;}
	.st28{fill:#ADC1D4;}
	.st29{fill:#D6E1EE;}
	.st30{fill:#C3D1DE;}
	.st31{fill:#E8D2D5;}
	.st32{fill:#D4C3C5;}
	.st33{fill:#3BACE2;}
	.st34{fill:#ACC0D1;}
	.st35{fill:#D5E2ED;}
	.st36{fill:#C3CFE0;}
	.st37{fill:#C5B2B2;}
	.st38{fill:#E8D4D5;}
	.st39{fill:#D4C3C6;}
</style>
<g id="comon">
	<g id="_x34_">
	</g>
	<g id="_x33_">
	</g>
	<g id="_x32_">
	</g>
	<g id="_x31_">
		<path class="st13" d="M33,48c0,0,0-16,16-16s160,0,160,0s16,0,16,16s0,160,0,160s0,32-32,32s-129,0-129,0s-31,0-31-32S33,48,33,48
			z"/>
		<path class="st14" d="M33,48c0,0,0-16,16-16s160,0,160,0s16,0,16,16s0,160,0,160s0,16-17,16s-159,0-159,0s-16,0-16-16S33,48,33,48
			z"/>
		<path class="st15" d="M49,64c0,0,0-16,16-16s128,0,128,0s16,0,16,16s0,128,0,128s0,16-16,16s-128,0-128,0s-16,0-16-16S49,64,49,64
			z"/>
		<path id="shadow_00000138564485055652499020000012453923471849144713_" class="st2" d="M161,32h48c0,0,16,0,16,16s0,48,0,48
			L97,224H49c0,0-16,0-16-16s0-48,0-48L161,32z"/>
		<polygon class="st3" points="65,32 68,42 62,61 73,41 73,32 		"/>
		<path class="st4" d="M225,167c0,0-9,0-9,9h9V167z"/>
		<g id="layer1_00000124854061250848041200000015831129890884547765_" transform="translate(70.791573,192.8966)">
			<path id="path1046_00000089551932036882221280000018085859605143764362_" class="st12" d="M70.51-76.48
				c8.37-8.49,16.63-17.08,24.58-25.97c3.96-4.45,7.83-8.98,11.52-13.67c1.83-2.35,3.61-4.75,5.27-7.25
				c0.84-1.25,1.64-2.52,2.37-3.83c0.71-1.27,1.37-2.56,1.88-3.94c-3.25-1.41-10.98,3.74-19.14,10.33l1.53,7.98l-5.19-4.97
				c-8.96,7.54-17.73,15.92-21.15,18.55c0,0-22.77,20.53-37.51,36.06l4.83,12.03l-6.67-10.08c-1.83,1.97-3.51,3.82-4.95,5.53
				l5.99,10.42L26.8-54.4c-2.65,3.26-4.31,5.79-4.38,7.13c-0.41,7.5,6.08,11.45,6.08,11.45s0.01,0.01,0.03,0.03
				c5.53-5.17,11.02-10.37,16.47-15.62C53.62-59.66,62.13-68.01,70.51-76.48L70.51-76.48z"/>
			<path id="path1048_00000028314604528765880320000013912326913283303860_" class="st5" d="M62.92-48.13
				c21.51-24.34,54.24-65.63,55.19-78.33c0.18-2.49-0.42-3.86-1.6-4.36c-0.48,1.4-1.11,2.73-1.81,4.01
				c-0.71,1.34-1.49,2.63-2.28,3.9c-0.42,0.64-0.83,1.28-1.26,1.91c0.43-0.81,0.83-1.64,1.18-2.48l0,0c-0.46,1.07-1,2.08-1.58,3.08
				c-1.12,1.64-2.31,3.27-3.49,4.88c-3.58,4.79-7.36,9.4-11.24,13.96c-7.76,9.08-15.83,17.87-24.02,26.55
				c-3.54,3.74-7.11,7.47-10.71,11.18c-8.46,8.58-17.05,17.05-25.69,25.47c-5.82,5.66-11.67,11.28-17.54,16.87
				C3.86-8,6.05-5.94,19.88-19.6c4.19-4.15,8.37-8.31,12.53-12.49c3.22,2.5,8.13,4.98,12.84,2.09c1.98-1.21,7.44-6.74,14.64-14.76
				l-3.93-3.76L62.92-48.13z"/>
		</g>
		<polygon class="st3" points="33.13,172.55 49.12,167.77 79.48,177.38 47.53,159.77 33.14,159.76 		"/>
	</g>
</g>
<g id="rare">
	<g id="_x34__00000042725424882094534010000018394250905825587375_">
	</g>
	<g id="_x33__00000092448022942151965160000009404066735845079206_">
	</g>
	<g id="_x32__00000176020021502097603790000013765805871172255616_">
	</g>
	<g id="_x31__00000047761446944571704760000013564145378776886200_">
	</g>
</g>
<g id="epic">
	<g id="_x34__00000097471835856493261020000005443322585876053406_">
	</g>
	<g id="_x33__00000012469411881321786590000010127628934600303502_">
	</g>
	<g id="_x32__00000109017715413958045490000014568470887516410504_">
	</g>
	<g id="_x31__00000106148437835565257600000009867581300753693847_">
	</g>
</g>
<g id="legen">
	<g id="_x34__00000024000453234829588440000007020955903720078227_">
	</g>
	<g id="_x33__00000104673930388424285770000007576658108412996024_">
	</g>
	<g id="_x32__00000153696496105078598030000005635851675134988181_">
	</g>
	<g id="_x31__00000086654473432921771410000016685162211748778668_">
	</g>
</g>
<g id="feathers_00000029046847812856621150000007720250432357585571_">
</g>
</svg>
