<?xml version="1.0" encoding="utf-8"?>
<!-- Generator: Adobe Illustrator 27.0.0, SVG Export Plug-In . SVG Version: 6.00 Build 0)  -->
<svg version="1.1" xmlns="http://www.w3.org/2000/svg" xmlns:xlink="http://www.w3.org/1999/xlink" x="0px" y="0px"
	 viewBox="0 0 256 256" style="enable-background:new 0 0 256 256;" xml:space="preserve">
<style type="text/css">
	.st0{fill:#38ADE3;}
	.st1{fill:#56BDEC;}
	.st2{opacity:0.3;fill:#F1F2F2;}
	.st3{opacity:0.2;}
	.st4{opacity:0.3;}
	.st5{opacity:0.5;fill:#010101;}
	.st6{fill:#F7C217;}
	.st7{fill:#F9DF3B;}
	.st8{fill:#FBC615;}
	.st9{fill:#ACBFD4;}
	.st10{fill:#D6E2EE;}
	.st11{fill:#C4D2E1;}
	.st12{opacity:0.3;fill:#010101;}
	.st13{fill:#C8B6B7;}
	.st14{fill:#E9D2D6;}
	.st15{fill:#D5C3C6;}
	.st16{fill:#38ABE2;}
	.st17{fill:#52BEED;}
	.st18{fill:#36ADE3;}
	.st19{fill:#ACC0D6;}
	.st20{fill:#D7E2EE;}
	.st21{fill:#C4D2DE;}
	.st22{fill:#E9D4D5;}
	.st23{fill:#D5C3C7;}
	.st24{fill:#33AEE3;}
	.st25{fill:#57BBEA;}
	.st26{fill:#37ACE2;}
	.st27{opacity:0.3;fill:#FFFFFF;}
	.st28{fill:#ADC1D4;}
	.st29{fill:#D6E1EE;}
	.st30{fill:#C3D1DE;}
	.st31{fill:#E8D2D5;}
	.st32{fill:#D4C3C5;}
	.st33{fill:#3BACE2;}
	.st34{fill:#ACC0D1;}
	.st35{fill:#D5E2ED;}
	.st36{fill:#C3CFE0;}
	.st37{fill:#C5B2B2;}
	.st38{fill:#E8D4D5;}
	.st39{fill:#D4C3C6;}
</style>
<g id="comon">
	<g id="_x34_">
	</g>
	<g id="_x33_">
		<path class="st6" d="M30,49c0,0,0-16,16-16s160,0,160,0s16,0,16,16s0,160,0,160s0,32-32,32s-129,0-129,0s-31,0-31-32S30,49,30,49z
			"/>
		<path class="st7" d="M30,49c0,0,0-16,16-16s160,0,160,0s16,0,16,16s0,160,0,160s0,16-17,16s-159,0-159,0s-16,0-16-16S30,49,30,49z
			"/>
		<path class="st8" d="M46,65c0,0,0-16,16-16s128,0,128,0s16,0,16,16s0,128,0,128s0,16-16,16s-128,0-128,0s-16,0-16-16S46,65,46,65z
			"/>
		<path id="shadow_00000057839492088924340080000015038293283349477273_" class="st2" d="M158,33h48c0,0,16,0,16,16s0,48,0,48
			L94,225H46c0,0-16,0-16-16s0-48,0-48L158,33z"/>
		<polygon class="st3" points="62,33 65,43 59,62 70,42 70,33 		"/>
		<path class="st4" d="M222,168c0,0-9,0-9,9h9V168z"/>
		<polygon class="st3" points="30.13,173.55 46.12,168.77 76.48,178.38 44.53,160.77 30.14,160.76 		"/>
		<g id="layer1_00000074429320148808029240000009954117717821784744_" transform="translate(70.791573,192.8966)">
			<path id="path1020_00000002345252292938472500000010158068703964387231_" class="st5" d="M10.44-0.95c0,0,2.19-5.84,10.6-22.94
				c0.51-2.93-9.54-8.08-9.54-8.08s4.94-0.37,7.58,1.46c0,0-6.38-4.33-5.88-12.59c0,0,3.19,7.02,8.01,9.95
				c0,0-6.35-11.56-4.23-19.06c0,0,1.62,11.26,6.95,15.62c0,0-4.81-14.72,1.43-24.5c0,0-1.45,11.75,1.84,16.54
				c0,0-0.77-11.74,1.51-18.99c2.25-7.25,11.46-16.79,11.46-16.79s-2.5,6.14-0.6,10.8c0,0,1.34-9.24,3.92-13.72
				c2.59-4.48,16.72-24.09,21.35-27.22c4.62-3.16,9.6-3.34,12.69-1.24c3.08,2.11,5.3,12.59-4.34,32.37
				c-9.65,19.77-9.2,24.87-12.35,30.33s-11.79,10.96-17.01,12.3c0,0,9.86-2.71,14.44-6.03c0,0-9.96,13.12-21.31,13.84
				c0,0,12.05,1.16,17.09-3.21c0,0-4.56,7.38-18.05,7.18c0,0,7.02,2.44,12.24,1.1c0,0-6.42,4.19-13.97,2.43c0,0,4.42,1.57,5.02,5.16
				c0,0-10.37-7.94-17.46-0.24c0,0,43.01-72.19,44.96-78.65C66.76-95.15,13.84-7.06,10.44-0.95L10.44-0.95z"/>
		</g>
	</g>
	<g id="_x32_">
	</g>
	<g id="_x31_">
	</g>
</g>
<g id="rare">
	<g id="_x34__00000042725424882094534010000018394250905825587375_">
	</g>
	<g id="_x33__00000092448022942151965160000009404066735845079206_">
	</g>
	<g id="_x32__00000176020021502097603790000013765805871172255616_">
	</g>
	<g id="_x31__00000047761446944571704760000013564145378776886200_">
	</g>
</g>
<g id="epic">
	<g id="_x34__00000097471835856493261020000005443322585876053406_">
	</g>
	<g id="_x33__00000012469411881321786590000010127628934600303502_">
	</g>
	<g id="_x32__00000109017715413958045490000014568470887516410504_">
	</g>
	<g id="_x31__00000106148437835565257600000009867581300753693847_">
	</g>
</g>
<g id="legen">
	<g id="_x34__00000024000453234829588440000007020955903720078227_">
	</g>
	<g id="_x33__00000104673930388424285770000007576658108412996024_">
	</g>
	<g id="_x32__00000153696496105078598030000005635851675134988181_">
	</g>
	<g id="_x31__00000086654473432921771410000016685162211748778668_">
	</g>
</g>
<g id="feathers_00000029046847812856621150000007720250432357585571_">
</g>
</svg>
