<?xml version="1.0" encoding="utf-8"?>
<!-- Generator: Adobe Illustrator 27.0.0, SVG Export Plug-In . SVG Version: 6.00 Build 0)  -->
<svg version="1.1" xmlns="http://www.w3.org/2000/svg" xmlns:xlink="http://www.w3.org/1999/xlink" x="0px" y="0px"
	 viewBox="0 0 256 256" style="enable-background:new 0 0 256 256;" xml:space="preserve">
<style type="text/css">
	.st0{fill:#38ADE3;}
	.st1{fill:#56BDEC;}
	.st2{opacity:0.3;fill:#F1F2F2;}
	.st3{opacity:0.2;}
	.st4{opacity:0.3;}
	.st5{opacity:0.5;fill:#010101;}
	.st6{fill:#F7C217;}
	.st7{fill:#F9DF3B;}
	.st8{fill:#FBC615;}
	.st9{fill:#ACBFD4;}
	.st10{fill:#D6E2EE;}
	.st11{fill:#C4D2E1;}
	.st12{opacity:0.3;fill:#010101;}
	.st13{fill:#C8B6B7;}
	.st14{fill:#E9D2D6;}
	.st15{fill:#D5C3C6;}
	.st16{fill:#38ABE2;}
	.st17{fill:#52BEED;}
	.st18{fill:#36ADE3;}
	.st19{fill:#ACC0D6;}
	.st20{fill:#D7E2EE;}
	.st21{fill:#C4D2DE;}
	.st22{fill:#E9D4D5;}
	.st23{fill:#D5C3C7;}
	.st24{fill:#33AEE3;}
	.st25{fill:#57BBEA;}
	.st26{fill:#37ACE2;}
	.st27{opacity:0.3;fill:#FFFFFF;}
	.st28{fill:#ADC1D4;}
	.st29{fill:#D6E1EE;}
	.st30{fill:#C3D1DE;}
	.st31{fill:#E8D2D5;}
	.st32{fill:#D4C3C5;}
	.st33{fill:#3BACE2;}
	.st34{fill:#ACC0D1;}
	.st35{fill:#D5E2ED;}
	.st36{fill:#C3CFE0;}
	.st37{fill:#C5B2B2;}
	.st38{fill:#E8D4D5;}
	.st39{fill:#D4C3C6;}
</style>
<g id="comon">
	<g id="_x34_">
	</g>
	<g id="_x33_">
	</g>
	<g id="_x32_">
	</g>
	<g id="_x31_">
	</g>
</g>
<g id="rare">
	<g id="_x34__00000042725424882094534010000018394250905825587375_">
		<path id="p3_00000154395217583396450220000017266647891634559658_" class="st16" d="M225,111v31c0,0,0,97-96,97s-96-96-96-96v-32
			H225z"/>
		<path id="p2_00000080175897501471681230000014130708713293302922_" class="st17" d="M33,63c0,0,0-32,32-32s128,0,128,0s32,0,32,32
			s0,79,0,79s0,81-80,81h-32c0,0-80,0-80-80S33,63,33,63z"/>
		<path id="p1_00000096754885001213536160000011021440821229202824_" class="st18" d="M49,63c0,0,0-16,16-16s128,0,128,0s16,0,16,16
			s0,80,0,80s0,64-80,64s-80-64-80-64V63z"/>
		<path class="st2" d="M160,31h32.87C211,31,226,45,225,63.13V94L97,221h0c-32-7-58-26-62-61.01V159L160,31z"/>
		<path class="st4" d="M136,31c0,0,0,9,9,9v-9H136z"/>
		<polygon class="st3" points="225.15,112.73 207.57,117.98 174.19,107.4 209.32,126.77 225.14,126.78 		"/>
		<g id="layer1_00000149364754057640457510000006536209051006982046_" transform="translate(70.791573,192.8966)">
			<path id="path1033_00000016791535367735045750000004322978717741557906_" class="st5" d="M17.66-10.58
				c0,0,3.81-15.47,16.66-37.73c12.85-22.25,38.97-55.51,38.97-55.51S49.91-83.65,25.94-37.46c0,0-4.29-2.48-7.47-1.66
				c0,0,2.13-1.6,4.61-1.99c0,0-4.03-2.66-7.29-3.04c0,0,2.48-1.88,8.03,1.47c0,0-2.56-5.48-3.12-9.98c0,0,2.3,3.33,4.19,4.76
				c0,0-3.6-13.58,2.75-22.26c0,0-0.81,8.7,1.44,11.84c0,0,0.55-7.19,1.78-10.64c1.24-3.46,5.89-12.28,17.96-27.99
				c12.08-15.69,37.01-24.46,40.82-22.44c3.79,2.03,0.93,22.88-1.57,28.26c-2.51,5.38-14.15,16.17-23.83,19.1
				c0,0,10.76-2.46,15.82-6.55c0,0-12.14,23.67-34.22,28.27c0,0,10.28-0.58,15.8-2.88c0,0-7.89,7.94-16.66,9.55
				c0,0,3.91,1.58,6,1.62c0,0-2.97,2.78-8.03,3.21c0,0,4.71,0.72,6.71,0.37c0,0-5.99,3.87-13.43,2.92c0,0,4.32,1.66,5.71,6.29
				c0,0-4.12-3.05-6.7-3.53c0,0,1.04,2.11,2.87,3.66c0,0-4.05-1.17-7.03-5.23c0,0-0.26,3.51,0.71,5.74c0,0-2.31-1.99-2.37-5.03
				c0,0-4.66,7.82-6.76,15.11C20.58-11.23,17.66-10.58,17.66-10.58L17.66-10.58z"/>
		</g>
	</g>
	<g id="_x33__00000092448022942151965160000009404066735845079206_">
	</g>
	<g id="_x32__00000176020021502097603790000013765805871172255616_">
	</g>
	<g id="_x31__00000047761446944571704760000013564145378776886200_">
	</g>
</g>
<g id="epic">
	<g id="_x34__00000097471835856493261020000005443322585876053406_">
	</g>
	<g id="_x33__00000012469411881321786590000010127628934600303502_">
	</g>
	<g id="_x32__00000109017715413958045490000014568470887516410504_">
	</g>
	<g id="_x31__00000106148437835565257600000009867581300753693847_">
	</g>
</g>
<g id="legen">
	<g id="_x34__00000024000453234829588440000007020955903720078227_">
	</g>
	<g id="_x33__00000104673930388424285770000007576658108412996024_">
	</g>
	<g id="_x32__00000153696496105078598030000005635851675134988181_">
	</g>
	<g id="_x31__00000086654473432921771410000016685162211748778668_">
	</g>
</g>
<g id="feathers_00000029046847812856621150000007720250432357585571_">
</g>
</svg>
