<?xml version="1.0" encoding="utf-8"?>
<!-- Generator: Adobe Illustrator 27.0.0, SVG Export Plug-In . SVG Version: 6.00 Build 0)  -->
<svg version="1.1" xmlns="http://www.w3.org/2000/svg" xmlns:xlink="http://www.w3.org/1999/xlink" x="0px" y="0px"
	 viewBox="0 0 256 256" style="enable-background:new 0 0 256 256;" xml:space="preserve">
<style type="text/css">
	.st0{fill:#38ADE3;}
	.st1{fill:#56BDEC;}
	.st2{opacity:0.3;fill:#F1F2F2;}
	.st3{opacity:0.2;}
	.st4{opacity:0.3;}
	.st5{opacity:0.5;fill:#010101;}
	.st6{fill:#F7C217;}
	.st7{fill:#F9DF3B;}
	.st8{fill:#FBC615;}
	.st9{fill:#ACBFD4;}
	.st10{fill:#D6E2EE;}
	.st11{fill:#C4D2E1;}
	.st12{opacity:0.3;fill:#010101;}
	.st13{fill:#C8B6B7;}
	.st14{fill:#E9D2D6;}
	.st15{fill:#D5C3C6;}
	.st16{fill:#38ABE2;}
	.st17{fill:#52BEED;}
	.st18{fill:#36ADE3;}
	.st19{fill:#ACC0D6;}
	.st20{fill:#D7E2EE;}
	.st21{fill:#C4D2DE;}
	.st22{fill:#E9D4D5;}
	.st23{fill:#D5C3C7;}
	.st24{fill:#33AEE3;}
	.st25{fill:#57BBEA;}
	.st26{fill:#37ACE2;}
	.st27{opacity:0.3;fill:#FFFFFF;}
	.st28{fill:#ADC1D4;}
	.st29{fill:#D6E1EE;}
	.st30{fill:#C3D1DE;}
	.st31{fill:#E8D2D5;}
	.st32{fill:#D4C3C5;}
	.st33{fill:#3BACE2;}
	.st34{fill:#ACC0D1;}
	.st35{fill:#D5E2ED;}
	.st36{fill:#C3CFE0;}
	.st37{fill:#C5B2B2;}
	.st38{fill:#E8D4D5;}
	.st39{fill:#D4C3C6;}
</style>
<g id="comon">
	<g id="_x34_">
	</g>
	<g id="_x33_">
	</g>
	<g id="_x32_">
		<path class="st9" d="M32,47c0,0,0-16,16-16s160,0,160,0s16,0,16,16s0,160,0,160s0,32-32,32s-129,0-129,0s-31,0-31-32S32,47,32,47z
			"/>
		<path class="st10" d="M32,47c0,0,0-16,16-16s160,0,160,0s16,0,16,16s0,160,0,160s0,16-17,16s-159,0-159,0s-16,0-16-16S32,47,32,47
			z"/>
		<path class="st11" d="M48,63c0,0,0-16,16-16s128,0,128,0s16,0,16,16s0,128,0,128s0,16-16,16s-128,0-128,0s-16,0-16-16S48,63,48,63
			z"/>
		<path id="shadow_00000160170433020227048530000004173227482602233745_" class="st2" d="M160,31h48c0,0,16,0,16,16s0,48,0,48
			L96,223H48c0,0-16,0-16-16s0-48,0-48L160,31z"/>
		<polygon class="st3" points="64,31 67,41 61,60 72,40 72,31 		"/>
		<path class="st4" d="M224,166c0,0-9,0-9,9h9V166z"/>
		<polygon class="st3" points="32.13,171.55 48.12,166.77 78.48,176.38 46.53,158.77 32.14,158.76 		"/>
		<g id="layer1_00000125580814779255673580000015588490162907148219_" transform="translate(70.791573,192.8966)">
			<path id="path1091_00000089544214335374964950000006941609097648602531_" class="st12" d="M47.46-53.79
				c2.92-4.24,5.89-8.45,8.99-12.56c1.56-2.04,3.14-4.07,4.82-6.04c0.84-0.97,1.7-1.94,2.61-2.87c0.9-0.93,1.78-1.85,2.67-2.77
				c3.56-3.69,7.03-7.47,10.35-11.37c3.32-3.9,6.5-7.93,9.37-12.18c1.43-2.14,2.79-4.31,3.98-6.59c1.2-2.25,2.26-4.6,2.99-7.08
				c-0.34-0.06-0.92-0.05-1.76,0.03c0.09-0.29,0.18-0.59,0.28-0.89c-0.1,0.3-0.19,0.61-0.29,0.91c-3.96,0.5-13.53,3.62-30.33,16.48
				c-19.47,14.9-26.27,33.61-34.33,50.66l3.64,11.44l-5.38-7.78c-1.79,3.99-2.49,7.33-2.51,10.12l5.31,5.23l-4.91-1.46
				c0.64,2.64,1.91,4.52,3.15,5.81c-0.91,1.44-1.8,2.88-2.71,4.32c-7.58,12.16-5.58,13.71,1.89,1.23c2.54-4.24,5.1-8.46,7.68-12.66
				c1.95-3.07,3.93-6.12,5.91-9.17C41.71-45.27,44.56-49.54,47.46-53.79L47.46-53.79z"/>
			<path id="path1093_00000043429751199385964130000014543897510638618033_" class="st5" d="M94.7-90.36
				c2.3-8.93,1.5-14.18,1.85-15.09c0.86-2.18-1.01-9.25-2.97-9.59c-0.69,2.46-1.7,4.84-2.85,7.14c-1.16,2.29-2.48,4.51-3.87,6.67
				c-2.79,4.31-5.91,8.41-9.18,12.39c-3.25,3.99-6.66,7.82-10.15,11.61c-0.88,0.94-1.75,1.87-2.63,2.81
				c-0.86,0.94-1.69,1.89-2.5,2.89c-1.61,1.97-3.15,4.02-4.66,6.08c-3.01,4.15-5.89,8.39-8.72,12.67c-2.81,4.28-5.58,8.6-8.3,12.96
				c-3.71,5.91-7.35,11.88-10.93,17.86c1.68,1.15,4.34,1.69,8.2,0.5l-2.16-3.51l4.51,2.6c2.54-1.1,5.5-2.9,8.93-5.65l-9.73-3.37
				l11.58,1.88c0.71-0.61,1.39-1.21,2.14-1.89c25.61-23.28,36.04-42.1,40.22-54.83l-9.19-5.31L94.7-90.36z"/>
		</g>
	</g>
	<g id="_x31_">
	</g>
</g>
<g id="rare">
	<g id="_x34__00000042725424882094534010000018394250905825587375_">
	</g>
	<g id="_x33__00000092448022942151965160000009404066735845079206_">
	</g>
	<g id="_x32__00000176020021502097603790000013765805871172255616_">
	</g>
	<g id="_x31__00000047761446944571704760000013564145378776886200_">
	</g>
</g>
<g id="epic">
	<g id="_x34__00000097471835856493261020000005443322585876053406_">
	</g>
	<g id="_x33__00000012469411881321786590000010127628934600303502_">
	</g>
	<g id="_x32__00000109017715413958045490000014568470887516410504_">
	</g>
	<g id="_x31__00000106148437835565257600000009867581300753693847_">
	</g>
</g>
<g id="legen">
	<g id="_x34__00000024000453234829588440000007020955903720078227_">
	</g>
	<g id="_x33__00000104673930388424285770000007576658108412996024_">
	</g>
	<g id="_x32__00000153696496105078598030000005635851675134988181_">
	</g>
	<g id="_x31__00000086654473432921771410000016685162211748778668_">
	</g>
</g>
<g id="feathers_00000029046847812856621150000007720250432357585571_">
</g>
</svg>
