<svg width="73" height="73" viewBox="0 0 73 73" fill="none" xmlns="http://www.w3.org/2000/svg">
<g filter="url(#filter0_ii_44_1881)">
<path d="M35.3164 0.868891C36.0208 0.351819 36.9792 0.351819 37.6836 0.868891L47.6979 8.22072C47.9577 8.41146 48.2598 8.53658 48.5784 8.58542L60.8581 10.4681C61.7218 10.6005 62.3995 11.2782 62.5319 12.1419L64.4146 24.4216C64.4634 24.7402 64.5885 25.0423 64.7793 25.3021L72.1311 35.3164C72.6482 36.0208 72.6482 36.9792 72.1311 37.6836L64.7793 47.6979C64.5885 47.9577 64.4634 48.2598 64.4146 48.5784L62.5319 60.8581C62.3995 61.7218 61.7218 62.3995 60.8581 62.5319L48.5784 64.4146C48.2598 64.4634 47.9577 64.5885 47.6979 64.7793L37.6836 72.1311C36.9792 72.6482 36.0208 72.6482 35.3164 72.1311L25.3021 64.7793C25.0423 64.5885 24.7402 64.4634 24.4216 64.4146L12.1419 62.5319C11.2782 62.3995 10.6005 61.7218 10.4681 60.8581L8.58542 48.5784C8.53658 48.2598 8.41146 47.9577 8.22072 47.6979L0.868891 37.6836C0.351819 36.9792 0.351819 36.0208 0.868891 35.3164L8.22072 25.3021C8.41146 25.0423 8.53658 24.7402 8.58542 24.4216L10.4681 12.1419C10.6005 11.2782 11.2782 10.6005 12.1419 10.4681L24.4216 8.58542C24.7402 8.53658 25.0423 8.41146 25.3021 8.22072L35.3164 0.868891Z" fill="#F9314B"/>
</g>
<g filter="url(#filter1_d_44_1881)">
<mask id="path-2-outside-1_44_1881" maskUnits="userSpaceOnUse" x="12.5227" y="23.9645" width="50.6917" height="22.3699" fill="black">
<rect fill="white" x="12.5227" y="23.9645" width="50.6917" height="22.3699"/>
<path d="M22.6325 36.6475C24.1856 36.9438 25.08 38.196 25.2979 39.8215C25.6381 42.3588 24.0112 44.0702 21.1567 44.4529L15.0315 45.2742L13.171 31.3984L19.2565 30.5824C21.8136 30.2395 23.6634 31.2426 23.9823 33.6213C24.1684 35.0089 23.6853 35.9212 22.6325 36.6475ZM21.1916 34.4798C21.0561 33.4688 20.4307 33.1693 19.2414 33.3288L16.3671 33.7142L16.7419 36.5091L19.6954 36.1131C20.865 35.9563 21.3166 35.4115 21.1916 34.4798ZM20.7358 41.765C22.1828 41.571 22.5167 40.9007 22.3918 39.969C22.2562 38.958 21.7682 38.4786 20.3013 38.6753L17.09 39.1059L17.5047 42.1982L20.7358 41.765ZM35.9157 31.093L29.4338 31.9621L29.8085 34.7571L35.7553 33.9598L36.1168 36.6556L30.17 37.453L30.5713 40.4462L37.0533 39.5771L37.4148 42.273L28.0982 43.5222L26.2376 29.6463L35.5543 28.3971L35.9157 31.093ZM43.5148 32.8386C47.328 33.1345 49.3201 33.6947 49.6895 36.4501C50.1228 39.6811 47.3379 41.1846 44.9988 41.4982C40.9352 42.0431 38.9617 39.9669 38.323 37.6109L41.1774 37.2282C41.7375 38.5454 42.663 39.1276 44.6255 38.8645C46.2311 38.6492 46.9839 37.9429 46.851 36.9517C46.7128 35.921 45.7229 35.9124 43.213 35.7041C40.666 35.521 38.3369 35.006 37.9701 32.2704C37.5794 29.3565 39.9822 27.5613 42.6186 27.2078C46.3452 26.7081 48.1598 28.5029 48.7853 30.7598L45.911 31.1452C45.4834 30.2137 44.6966 29.6129 42.9919 29.8415C41.307 30.0674 40.689 30.8767 40.8086 31.7688C40.9176 32.5815 41.638 32.6867 43.5148 32.8386ZM60.423 25.0626L60.7844 27.7585L56.7803 28.2954L58.2793 39.4754L55.4447 39.8554L53.9456 28.6755L49.9613 29.2097L49.5998 26.5139L60.423 25.0626Z"/>
</mask>
<path d="M22.6325 36.6475C24.1856 36.9438 25.08 38.196 25.2979 39.8215C25.6381 42.3588 24.0112 44.0702 21.1567 44.4529L15.0315 45.2742L13.171 31.3984L19.2565 30.5824C21.8136 30.2395 23.6634 31.2426 23.9823 33.6213C24.1684 35.0089 23.6853 35.9212 22.6325 36.6475ZM21.1916 34.4798C21.0561 33.4688 20.4307 33.1693 19.2414 33.3288L16.3671 33.7142L16.7419 36.5091L19.6954 36.1131C20.865 35.9563 21.3166 35.4115 21.1916 34.4798ZM20.7358 41.765C22.1828 41.571 22.5167 40.9007 22.3918 39.969C22.2562 38.958 21.7682 38.4786 20.3013 38.6753L17.09 39.1059L17.5047 42.1982L20.7358 41.765ZM35.9157 31.093L29.4338 31.9621L29.8085 34.7571L35.7553 33.9598L36.1168 36.6556L30.17 37.453L30.5713 40.4462L37.0533 39.5771L37.4148 42.273L28.0982 43.5222L26.2376 29.6463L35.5543 28.3971L35.9157 31.093ZM43.5148 32.8386C47.328 33.1345 49.3201 33.6947 49.6895 36.4501C50.1228 39.6811 47.3379 41.1846 44.9988 41.4982C40.9352 42.0431 38.9617 39.9669 38.323 37.6109L41.1774 37.2282C41.7375 38.5454 42.663 39.1276 44.6255 38.8645C46.2311 38.6492 46.9839 37.9429 46.851 36.9517C46.7128 35.921 45.7229 35.9124 43.213 35.7041C40.666 35.521 38.3369 35.006 37.9701 32.2704C37.5794 29.3565 39.9822 27.5613 42.6186 27.2078C46.3452 26.7081 48.1598 28.5029 48.7853 30.7598L45.911 31.1452C45.4834 30.2137 44.6966 29.6129 42.9919 29.8415C41.307 30.0674 40.689 30.8767 40.8086 31.7688C40.9176 32.5815 41.638 32.6867 43.5148 32.8386ZM60.423 25.0626L60.7844 27.7585L56.7803 28.2954L58.2793 39.4754L55.4447 39.8554L53.9456 28.6755L49.9613 29.2097L49.5998 26.5139L60.423 25.0626Z" fill="white"/>
<path d="M22.6325 36.6475L22.3486 36.236L21.3647 36.9148L22.5388 37.1387L22.6325 36.6475ZM15.0315 45.2742L14.5359 45.3406L14.6024 45.8362L15.098 45.7698L15.0315 45.2742ZM13.171 31.3984L13.1045 30.9028L12.609 30.9692L12.6754 31.4648L13.171 31.3984ZM16.3671 33.7142L16.3006 33.2186L15.8051 33.285L15.8715 33.7806L16.3671 33.7142ZM16.7419 36.5091L16.2463 36.5756L16.3127 37.0712L16.8083 37.0047L16.7419 36.5091ZM17.09 39.1059L17.0236 38.6103L16.528 38.6768L16.5945 39.1724L17.09 39.1059ZM17.5047 42.1982L17.0091 42.2647L17.0756 42.7603L17.5711 42.6938L17.5047 42.1982ZM22.6325 36.6475L22.5388 37.1387C23.8193 37.3829 24.6038 38.4066 24.8024 39.8879L25.2979 39.8215L25.7935 39.755C25.5562 37.9854 24.552 36.5046 22.7262 36.1564L22.6325 36.6475ZM25.2979 39.8215L24.8024 39.8879C24.9553 41.0286 24.6654 41.938 24.0554 42.6087C23.4357 43.2902 22.438 43.7766 21.0902 43.9573L21.1567 44.4529L21.2231 44.9485C22.7299 44.7464 23.9729 44.1858 24.7952 43.2815C25.6273 42.3666 25.9808 41.1517 25.7935 39.755L25.2979 39.8215ZM21.1567 44.4529L21.0902 43.9573L14.9651 44.7786L15.0315 45.2742L15.098 45.7698L21.2231 44.9485L21.1567 44.4529ZM15.0315 45.2742L15.5271 45.2077L13.6666 31.3319L13.171 31.3984L12.6754 31.4648L14.5359 45.3406L15.0315 45.2742ZM13.171 31.3984L13.2374 31.8939L19.323 31.078L19.2565 30.5824L19.1901 30.0868L13.1045 30.9028L13.171 31.3984ZM19.2565 30.5824L19.323 31.078C20.5296 30.9162 21.5041 31.0814 22.1969 31.5072C22.8734 31.9231 23.3443 32.6257 23.4867 33.6878L23.9823 33.6213L24.4779 33.5549C24.3013 32.2382 23.6879 31.2499 22.7206 30.6553C21.7695 30.0707 20.5406 29.9058 19.1901 30.0868L19.2565 30.5824ZM23.9823 33.6213L23.4867 33.6878C23.57 34.3086 23.4992 34.7835 23.3187 35.1714C23.1372 35.5615 22.824 35.9079 22.3486 36.236L22.6325 36.6475L22.9164 37.0591C23.4938 36.6608 23.9486 36.188 24.2253 35.5934C24.503 34.9966 24.5807 34.3216 24.4779 33.5549L23.9823 33.6213ZM21.1916 34.4798L21.6872 34.4134C21.6065 33.8115 21.3604 33.3132 20.857 33.0297C20.3901 32.7668 19.8009 32.7493 19.1749 32.8332L19.2414 33.3288L19.3078 33.8243C19.8712 33.7488 20.1893 33.8013 20.3663 33.901C20.5068 33.9802 20.6412 34.1371 20.6961 34.5462L21.1916 34.4798ZM19.2414 33.3288L19.1749 32.8332L16.3006 33.2186L16.3671 33.7142L16.4335 34.2097L19.3078 33.8243L19.2414 33.3288ZM16.3671 33.7142L15.8715 33.7806L16.2463 36.5756L16.7419 36.5091L17.2374 36.4427L16.8627 33.6477L16.3671 33.7142ZM16.7419 36.5091L16.8083 37.0047L19.7619 36.6087L19.6954 36.1131L19.629 35.6176L16.6754 36.0136L16.7419 36.5091ZM19.6954 36.1131L19.7619 36.6087C20.4 36.5231 20.9439 36.3204 21.3017 35.9203C21.6737 35.5043 21.7618 34.9701 21.6872 34.4134L21.1916 34.4798L20.6961 34.5462C20.7463 34.9212 20.6711 35.1253 20.5562 35.2537C20.427 35.3982 20.1603 35.5463 19.629 35.6176L19.6954 36.1131ZM20.7358 41.765L20.8022 42.2606C21.5813 42.1561 22.1773 41.91 22.5424 41.4576C22.9141 40.9969 22.9584 40.4328 22.8873 39.9025L22.3918 39.969L21.8962 40.0354C21.95 40.4369 21.8899 40.6737 21.7641 40.8296C21.6317 40.9938 21.3372 41.1799 20.6693 41.2694L20.7358 41.765ZM22.3918 39.969L22.8873 39.9025C22.8123 39.3427 22.6238 38.7975 22.1291 38.4573C21.6512 38.1287 21.0068 38.0763 20.2349 38.1798L20.3013 38.6753L20.3678 39.1709C21.0627 39.0777 21.3957 39.1666 21.5625 39.2813C21.7124 39.3844 21.8357 39.5843 21.8962 40.0354L22.3918 39.969ZM20.3013 38.6753L20.2349 38.1798L17.0236 38.6103L17.09 39.1059L17.1565 39.6015L20.3678 39.1709L20.3013 38.6753ZM17.09 39.1059L16.5945 39.1724L17.0091 42.2647L17.5047 42.1982L18.0002 42.1318L17.5856 39.0395L17.09 39.1059ZM17.5047 42.1982L17.5711 42.6938L20.8022 42.2606L20.7358 41.765L20.6693 41.2694L17.4382 41.7027L17.5047 42.1982ZM35.9157 31.093L35.9822 31.5886L36.4778 31.5221L36.4113 31.0266L35.9157 31.093ZM29.4338 31.9621L29.3673 31.4666L28.8717 31.533L28.9382 32.0286L29.4338 31.9621ZM29.8085 34.7571L29.313 34.8236L29.3794 35.3191L29.875 35.2527L29.8085 34.7571ZM35.7553 33.9598L36.2509 33.8933L36.1844 33.3977L35.6889 33.4642L35.7553 33.9598ZM36.1168 36.6556L36.1832 37.1512L36.6788 37.0847L36.6123 36.5892L36.1168 36.6556ZM30.17 37.453L30.1035 36.9574L29.608 37.0239L29.6744 37.5194L30.17 37.453ZM30.5713 40.4462L30.0758 40.5127L30.1422 41.0082L30.6378 40.9418L30.5713 40.4462ZM37.0533 39.5771L37.5489 39.5106L37.4824 39.0151L36.9869 39.0815L37.0533 39.5771ZM37.4148 42.273L37.4812 42.7685L37.9768 42.7021L37.9104 42.2065L37.4148 42.273ZM28.0982 43.5222L27.6026 43.5886L27.6691 44.0842L28.1646 44.0177L28.0982 43.5222ZM26.2376 29.6463L26.1712 29.1508L25.6756 29.2172L25.7421 29.7128L26.2376 29.6463ZM35.5543 28.3971L36.0498 28.3307L35.9834 27.8351L35.4878 27.9016L35.5543 28.3971ZM35.9157 31.093L35.8493 30.5974L29.3673 31.4666L29.4338 31.9621L29.5002 32.4577L35.9822 31.5886L35.9157 31.093ZM29.4338 31.9621L28.9382 32.0286L29.313 34.8236L29.8085 34.7571L30.3041 34.6907L29.9293 31.8957L29.4338 31.9621ZM29.8085 34.7571L29.875 35.2527L35.8217 34.4553L35.7553 33.9598L35.6889 33.4642L29.7421 34.2616L29.8085 34.7571ZM35.7553 33.9598L35.2597 34.0262L35.6212 36.7221L36.1168 36.6556L36.6123 36.5892L36.2509 33.8933L35.7553 33.9598ZM36.1168 36.6556L36.0503 36.1601L30.1035 36.9574L30.17 37.453L30.2364 37.9486L36.1832 37.1512L36.1168 36.6556ZM30.17 37.453L29.6744 37.5194L30.0758 40.5127L30.5713 40.4462L31.0669 40.3798L30.6656 37.3866L30.17 37.453ZM30.5713 40.4462L30.6378 40.9418L37.1198 40.0726L37.0533 39.5771L36.9869 39.0815L30.5049 39.9506L30.5713 40.4462ZM37.0533 39.5771L36.5578 39.6435L36.9192 42.3394L37.4148 42.273L37.9104 42.2065L37.5489 39.5106L37.0533 39.5771ZM37.4148 42.273L37.3483 41.7774L28.0317 43.0266L28.0982 43.5222L28.1646 44.0177L37.4812 42.7685L37.4148 42.273ZM28.0982 43.5222L28.5937 43.4557L26.7332 29.5799L26.2376 29.6463L25.7421 29.7128L27.6026 43.5886L28.0982 43.5222ZM26.2376 29.6463L26.3041 30.1419L35.6207 28.8927L35.5543 28.3971L35.4878 27.9016L26.1712 29.1508L26.2376 29.6463ZM35.5543 28.3971L35.0587 28.4636L35.4202 31.1595L35.9157 31.093L36.4113 31.0266L36.0498 28.3307L35.5543 28.3971ZM43.5148 32.8386L43.4745 33.337L43.4761 33.3371L43.5148 32.8386ZM38.323 37.6109L38.2565 37.1153L37.6911 37.1912L37.8404 37.7417L38.323 37.6109ZM41.1774 37.2282L41.6376 37.0325L41.4885 36.682L41.111 36.7326L41.1774 37.2282ZM43.213 35.7041L43.2543 35.2058L43.2488 35.2054L43.213 35.7041ZM48.7853 30.7598L48.8517 31.2553L49.4204 31.1791L49.2671 30.6262L48.7853 30.7598ZM45.911 31.1452L45.4566 31.3537L45.6109 31.6899L45.9775 31.6407L45.911 31.1452ZM43.5148 32.8386L43.4761 33.3371C45.3903 33.4856 46.7458 33.6972 47.6661 34.1673C48.1126 34.3954 48.4458 34.6798 48.6899 35.0435C48.9357 35.4099 49.1092 35.884 49.194 36.5165L49.6895 36.4501L50.1851 36.3836C50.0852 35.6384 49.8711 35.0092 49.5203 34.4864C49.1677 33.9609 48.6954 33.5702 48.121 33.2768C46.9996 32.7039 45.4524 32.4875 43.5535 32.3401L43.5148 32.8386ZM49.6895 36.4501L49.194 36.5165C49.3867 37.9537 48.8724 38.9751 48.0542 39.6922C47.2145 40.428 46.0358 40.8547 44.9323 41.0026L44.9988 41.4982L45.0652 41.9938C46.3008 41.8281 47.6841 41.3462 48.7133 40.4442C49.7641 39.5233 50.4256 38.1775 50.1851 36.3836L49.6895 36.4501ZM44.9988 41.4982L44.9323 41.0026C42.9971 41.2621 41.6192 40.8918 40.6604 40.2308C39.6971 39.5666 39.1012 38.5705 38.8056 37.4801L38.323 37.6109L37.8404 37.7417C38.1835 39.0074 38.8937 40.2273 40.0927 41.054C41.2963 41.8838 42.9369 42.2792 45.0652 41.9938L44.9988 41.4982ZM38.323 37.6109L38.3894 38.1065L41.2439 37.7237L41.1774 37.2282L41.111 36.7326L38.2565 37.1153L38.323 37.6109ZM41.1774 37.2282L40.7173 37.4238C41.0262 38.1503 41.4641 38.7373 42.1494 39.0849C42.8229 39.4265 43.6606 39.4983 44.6919 39.36L44.6255 38.8645L44.559 38.3689C43.6279 38.4938 43.0216 38.406 42.6017 38.1931C42.1936 37.986 41.8887 37.6233 41.6376 37.0325L41.1774 37.2282ZM44.6255 38.8645L44.6919 39.36C45.544 39.2458 46.2442 38.9933 46.7204 38.5745C47.2211 38.1342 47.4347 37.5427 47.3466 36.8853L46.851 36.9517L46.3555 37.0182C46.4002 37.3519 46.3039 37.6091 46.06 37.8236C45.7916 38.0596 45.3126 38.2679 44.559 38.3689L44.6255 38.8645ZM46.851 36.9517L47.3466 36.8853C47.3008 36.5442 47.1757 36.2387 46.9279 35.9948C46.6903 35.761 46.3824 35.6265 46.0524 35.537C45.4165 35.3644 44.4737 35.3071 43.2543 35.2059L43.213 35.7041L43.1716 36.2024C44.4622 36.3095 45.2693 36.3606 45.7904 36.5021C46.0389 36.5695 46.1613 36.6434 46.2266 36.7077C46.2816 36.7618 46.3321 36.8439 46.3555 37.0182L46.851 36.9517ZM43.213 35.7041L43.2488 35.2054C41.9804 35.1142 40.8527 34.9431 40.0052 34.5011C39.1987 34.0805 38.6269 33.4061 38.4657 32.204L37.9701 32.2704L37.4746 32.3369C37.6802 33.8703 38.4563 34.8211 39.5428 35.3878C40.5882 35.933 41.8986 36.1109 43.1771 36.2029L43.213 35.7041ZM37.9701 32.2704L38.4657 32.204C38.2928 30.9146 38.7319 29.892 39.5078 29.1374C40.2968 28.3699 41.4496 27.869 42.685 27.7033L42.6186 27.2078L42.5521 26.7122C41.1511 26.9001 39.7843 27.4735 38.8106 28.4205C37.8237 29.3804 37.2567 30.7123 37.4746 32.3369L37.9701 32.2704ZM42.6186 27.2078L42.685 27.7033C44.4583 27.4656 45.7134 27.7805 46.5866 28.3655C47.4621 28.952 48.0145 29.8507 48.3035 30.8933L48.7853 30.7598L49.2671 30.6262C48.9306 29.4119 48.2629 28.2848 47.1432 27.5346C46.021 26.7829 44.5054 26.4503 42.5521 26.7122L42.6186 27.2078ZM48.7853 30.7598L48.7189 30.2642L45.8446 30.6496L45.911 31.1452L45.9775 31.6407L48.8517 31.2553L48.7853 30.7598ZM45.911 31.1452L46.3654 30.9366C46.1191 30.3999 45.7482 29.9165 45.1589 29.6136C44.5761 29.3141 43.8414 29.2231 42.9254 29.346L42.9919 29.8415L43.0583 30.3371C43.8471 30.2313 44.3582 30.3264 44.7019 30.5031C45.039 30.6763 45.2754 30.959 45.4566 31.3537L45.911 31.1452ZM42.9919 29.8415L42.9254 29.346C42.0219 29.4671 41.3288 29.7536 40.8742 30.1977C40.4038 30.6572 40.2337 31.2431 40.3131 31.8352L40.8086 31.7688L41.3042 31.7023C41.264 31.4024 41.3431 31.1376 41.573 30.913C41.8186 30.673 42.2769 30.4419 43.0583 30.3371L42.9919 29.8415ZM40.8086 31.7688L40.3131 31.8352C40.3502 32.1122 40.4465 32.3715 40.6394 32.5891C40.8279 32.8017 41.0731 32.9341 41.3366 33.0245C41.8376 33.1962 42.5592 33.2629 43.4745 33.337L43.5148 32.8386L43.5552 32.3402C42.5936 32.2624 42.0166 32.2005 41.661 32.0785C41.4962 32.022 41.4235 31.9662 41.3876 31.9257C41.3562 31.8903 41.3215 31.8317 41.3042 31.7023L40.8086 31.7688ZM60.423 25.0626L60.9185 24.9962L60.8521 24.5006L60.3565 24.5671L60.423 25.0626ZM60.7844 27.7585L60.8509 28.2541L61.3465 28.1876L61.28 27.6921L60.7844 27.7585ZM56.7803 28.2954L56.7138 27.7998L56.2183 27.8663L56.2847 28.3619L56.7803 28.2954ZM58.2793 39.4754L58.3458 39.9709L58.8413 39.9045L58.7749 39.4089L58.2793 39.4754ZM55.4447 39.8554L54.9491 39.9219L55.0156 40.4175L55.5111 40.351L55.4447 39.8554ZM53.9456 28.6755L54.4412 28.609L54.3748 28.1135L53.8792 28.1799L53.9456 28.6755ZM49.9613 29.2097L49.4657 29.2762L49.5322 29.7717L50.0277 29.7053L49.9613 29.2097ZM49.5998 26.5139L49.5334 26.0183L49.0378 26.0847L49.1043 26.5803L49.5998 26.5139ZM60.423 25.0626L59.9274 25.1291L60.2889 27.825L60.7844 27.7585L61.28 27.6921L60.9185 24.9962L60.423 25.0626ZM60.7844 27.7585L60.718 27.263L56.7138 27.7998L56.7803 28.2954L56.8467 28.791L60.8509 28.2541L60.7844 27.7585ZM56.7803 28.2954L56.2847 28.3619L57.7838 39.5418L58.2793 39.4754L58.7749 39.4089L57.2758 28.229L56.7803 28.2954ZM58.2793 39.4754L58.2129 38.9798L55.3782 39.3599L55.4447 39.8554L55.5111 40.351L58.3458 39.9709L58.2793 39.4754ZM55.4447 39.8554L55.9403 39.789L54.4412 28.609L53.9456 28.6755L53.4501 28.7419L54.9491 39.9219L55.4447 39.8554ZM53.9456 28.6755L53.8792 28.1799L49.8949 28.7142L49.9613 29.2097L50.0277 29.7053L54.0121 29.1711L53.9456 28.6755ZM49.9613 29.2097L50.4569 29.1433L50.0954 26.4474L49.5998 26.5139L49.1043 26.5803L49.4657 29.2762L49.9613 29.2097ZM49.5998 26.5139L49.6663 27.0094L60.4894 25.5582L60.423 25.0626L60.3565 24.5671L49.5334 26.0183L49.5998 26.5139Z" fill="#BB2538" mask="url(#path-2-outside-1_44_1881)"/>
</g>
<defs>
<filter id="filter0_ii_44_1881" x="0.481201" y="0.481079" width="72.0376" height="72.0378" filterUnits="userSpaceOnUse" color-interpolation-filters="sRGB">
<feFlood flood-opacity="0" result="BackgroundImageFix"/>
<feBlend mode="normal" in="SourceGraphic" in2="BackgroundImageFix" result="shape"/>
<feColorMatrix in="SourceAlpha" type="matrix" values="0 0 0 0 0 0 0 0 0 0 0 0 0 0 0 0 0 0 127 0" result="hardAlpha"/>
<feOffset dx="1" dy="2"/>
<feComposite in2="hardAlpha" operator="arithmetic" k2="-1" k3="1"/>
<feColorMatrix type="matrix" values="0 0 0 0 0 0 0 0 0 0 0 0 0 0 0 0 0 0 0.25 0"/>
<feBlend mode="normal" in2="shape" result="effect1_innerShadow_44_1881"/>
<feColorMatrix in="SourceAlpha" type="matrix" values="0 0 0 0 0 0 0 0 0 0 0 0 0 0 0 0 0 0 127 0" result="hardAlpha"/>
<feOffset dx="-1" dy="-2"/>
<feComposite in2="hardAlpha" operator="arithmetic" k2="-1" k3="1"/>
<feColorMatrix type="matrix" values="0 0 0 0 0.988235 0 0 0 0 0.337255 0 0 0 0 0.392157 0 0 0 1 0"/>
<feBlend mode="normal" in2="effect1_innerShadow_44_1881" result="effect2_innerShadow_44_1881"/>
</filter>
<filter id="filter1_d_44_1881" x="12.6089" y="24.5006" width="48.7375" height="22.3356" filterUnits="userSpaceOnUse" color-interpolation-filters="sRGB">
<feFlood flood-opacity="0" result="BackgroundImageFix"/>
<feColorMatrix in="SourceAlpha" type="matrix" values="0 0 0 0 0 0 0 0 0 0 0 0 0 0 0 0 0 0 127 0" result="hardAlpha"/>
<feOffset dy="1"/>
<feComposite in2="hardAlpha" operator="out"/>
<feColorMatrix type="matrix" values="0 0 0 0 0 0 0 0 0 0 0 0 0 0 0 0 0 0 0.25 0"/>
<feBlend mode="normal" in2="BackgroundImageFix" result="effect1_dropShadow_44_1881"/>
<feBlend mode="normal" in="SourceGraphic" in2="effect1_dropShadow_44_1881" result="shape"/>
</filter>
</defs>
</svg>
