<?xml version="1.0" encoding="UTF-8"?>
<svg width="766px" height="768px" viewBox="0 0 766 768" version="1.1" xmlns="http://www.w3.org/2000/svg"
        xmlns:xlink="http://www.w3.org/1999/xlink">
    <g id="body" transform="translate(275, 16)" stroke="#000000" fill="#D9D9D9" stroke-linecap="round"
       stroke-width="12" stroke-linejoin="round">
        <path d="M245.250629,553.410688 C234.468484,540.456435 219.292579,532.393216 203.670324,521.982302 C185.369968,510.537282 157.445188,490.3443 157.138322,463.862845 C157.138322,463.415665 157.138322,462.968485 157.138322,462.521304 C157.319652,413.988274 167.683344,344.437773 175.285245,299.803596 L176.456914,292.998071 C176.680089,291.740377 176.889316,290.496657 177.098542,289.280886 C177.83781,285.074596 178.535232,281.189718 179.17686,277.654199 C179.148963,277.668174 179.107118,277.682148 179.079221,277.696123 L193.153199,195.848165 C193.153199,195.848165 206.12525,146.099363 202.163892,119.827524 C198.788369,86.009519 169.803507,62.7840954 139.15878,54.1339527 C139.15878,54.1339527 165.186573,24.3964669 143.4549,17.5210708 C134.290774,17.1577368 129.49251,43.0522674 129.49251,43.0522674 C129.49251,43.0522674 125.726431,0.877581298 109.574135,0.0111695882 C94.2169006,-0.813318974 106.156767,44.2680387 107.370281,48.7398411 C107.440023,48.9774056 107.481869,49.0892006 107.481869,49.0892006 L105.166427,49.0892006 C98.1364127,48.9634312 86.7963295,49.6062528 74.1171958,54.5531842 C54.2546145,62.294992 43.221397,75.8361686 38.5626174,81.7193836 C22.2708373,102.205828 18.9929534,121.895733 18.3094798,133.04729 C18.3094798,133.04729 15.5895336,168.863632 26.4832667,201.018686 C44.3512208,261.052633 60.0850633,331.693136 68.2588502,411.500834 C71.787806,445.835892 72.0249295,441.58768 72.513125,472.2335 C70.9230026,499.204058 48.5218049,511.082283 36.8051137,525.545769 C21.4478792,545.054007 5.04451152,564.10109 0.97156649,588.542285 C-3.40824427,614.67438 7.10888092,640.540962 30.7235931,653.397394 C34.0572707,655.255987 37.572278,656.918938 41.2686151,658.400223 C46.8619403,660.664073 52.8458219,662.508691 59.1086723,664.00395 C92.5430875,672.053194 133.635197,670.236525 164.76812,668.53165 C174.978379,667.777033 185.481556,666.84075 195.594176,664.968182 C202.98685,663.598693 210.184247,661.754074 216.907396,659.126891 C232.864413,652.880342 246.171227,642.28776 253.257035,623.548113 C262.239832,601.063332 261.486616,572.457771 245.250629,553.396713 L245.250629,553.410688 Z"
              fill-rule="nonzero"/>
    </g>
    <g id="leg" stroke-width="12" transform="translate(279.9617, 674)" fill="#F5C236" stroke="#000000"
       stroke-linecap="round" stroke-linejoin="round">
        <path d="M227.249323,39.0926637 C231.489125,40.7026072 246.76078,46.5264029 246.077391,50.7262556 C245.770563,52.6301888 242.283884,53.4981583 236.161275,54.9821063 C228.978716,56.7180454 222.828213,57.1520302 218.574464,57.2220277 C218.267637,58.9859658 217.653981,61.4918779 216.34299,64.2917797 C214.627543,67.903653 213.232872,70.9415464 210.513262,71.781517 C206.845275,72.9014777 202.78678,69.443599 200.583199,67.5816643 C195.618168,63.3538126 196.301557,60.4279152 192.954345,59.2239575 C189.802387,58.0899973 188.282194,60.3579177 180.541766,61.7858676 C175.897509,62.6398376 171.057998,63.5358062 169.942261,61.7298696 C168.380229,59.1819589 174.27969,51.0902428 181.643557,45.896425 C189.635026,40.2406234 198.03095,38.7566755 198.491191,33.4228626 C198.546978,32.8908813 198.546978,32.470896 198.435405,32.0229117 C196.845479,25.8771273 191.587566,12.9975791 189.997641,6.85179472 C197.389401,5.47984285 204.585907,3.63190767 211.308225,1 L212.507642,34.7668154 C216.036162,35.4947899 221.210394,36.7967442 227.249323,39.0926637 L227.249323,39.0926637 Z"
              fill-rule="nonzero"/>
        <path d="M61.8164306,44.2479386 C69.0053332,49.5392138 74.6924922,57.6860978 73.1907485,59.9957814 C71.9671055,61.8855225 65.2787841,60.8496644 60.6762178,58.903931 C57.3946298,57.5041227 55.0863941,55.5863854 52.2914823,56.4402685 C50.6645933,56.9302013 49.6773358,58.1060403 49.1628496,58.7639501 C41.6124161,68.25465 37.8441518,73 35.7027766,73 C33.5614013,73 30.7803945,69.3465005 27.5127115,55.1384468 C24.8429449,54.9424736 20.7131498,54.6065197 15.7073375,53.9766059 C5.64009285,52.6887824 0.606470511,52.0028763 0.0641741812,50.0011505 C-1.02041848,46.0676894 11.9807884,39.4046021 13.5242472,38.6347076 C21.2971613,34.7012464 28.527779,33.2594439 33.5474963,32.6715244 L35.6054413,1.00786194 L36.0086873,0 C41.584606,2.26768936 47.5498656,4.11543624 53.7932259,5.61323106 C52.2080521,11.7583893 49.1767546,23.7967402 47.5915807,29.9418984 C47.3969103,30.6837967 47.5081505,31.0897411 47.5220556,31.3277085 C47.688916,34.1133269 61.8164306,44.2479386 61.8164306,44.2479386 L61.8164306,44.2479386 Z"
              fill-rule="nonzero"/>
    </g>
    <g id="mouth" stroke-width="12" transform="translate(324, 228)" fill="#F5C236">
        <path d="M82.651548,2.56291852 C105.173062,1.8368856 122.828312,7.46778537 135.53258,15.876139 C141.464031,19.7963311 146.295583,24.3116247 150.053231,29.048839 C152.251398,31.8023959 154.05201,34.618854 155.490737,37.4495904 C155.795877,38.3726891 157.223883,43.1505311 155.438694,46.8600434 C154.540343,48.7267611 152.6803,50.1567513 149.436025,50.6293112 C148.126019,50.8132636 146.617029,50.8568533 144.884741,50.721409 C144.431054,50.6930583 144.031096,50.654419 143.666168,50.6171377 C139.499622,50.1756092 136.148819,49.1600241 133.041706,47.8852551 C131.94461,47.4381455 130.876152,46.9602897 129.817298,46.4685723 L129.222372,46.1905483 C128.727,45.9577124 128.231603,45.721848 127.734215,45.4844669 L127.129097,45.1955478 L126.520424,44.9053147 C126.044677,44.6788574 125.565315,44.4517946 125.080522,44.2251548 L124.496048,43.953456 C116.763088,40.3804954 107.493124,37.0158632 89.5260651,37.9167571 C71.9266662,38.7924877 60.3815857,44.2174625 49.5313029,49.7783985 L48.4998719,50.3082813 L47.4716133,50.838139 C47.2606292,50.9469294 47.0497905,51.0556684 46.8390521,51.1643178 L45.5754661,51.814834 C37.5758229,55.9240937 29.5911448,59.7937516 19.1521533,61.3286849 C10.5650143,62.5874564 5.72446729,61.7947802 3.61693208,59.3621151 C2.51644475,58.0918554 2.37645023,56.4284981 2.56872227,54.7815616 C2.9216033,51.7589035 4.46130428,48.6570693 5.67519392,46.694908 C9.39593563,40.702659 43.063714,3.85547603 82.651548,2.56291852 Z"
              id="Path" stroke="#070707" fill-rule="nonzero"/>
        <path d="M89.7755054,42.9105311 C106.500022,42.0719402 115.170658,45.1656187 122.383164,48.4864601 L122.957179,48.7525418 C123.433141,48.9745632 123.903404,49.1971552 124.369922,49.4192198 L124.975919,49.7081772 L125.580256,49.9967234 C126.086942,50.2385423 126.591229,50.4786172 127.100468,50.717964 L127.705858,51.0008772 C128.84225,51.5286105 129.983338,52.0381288 131.149272,52.5132845 C133.548735,53.4977289 136.080838,54.3432296 138.949941,54.9383828 C136.059324,58.3303842 132.371147,61.0565896 128.068721,63.2813368 C114.312441,70.3874964 94.4555378,72.4449777 73.2266802,73.7157821 L71.4234861,73.8215834 C70.8220936,73.8561888 70.219701,73.8902039 69.6185484,73.9236004 L67.8031206,74.0228931 C65.6826127,74.1371648 63.5523329,74.2463846 61.4171371,74.3543654 C38.4669334,75.5105274 28.1853701,69.2866142 24.1173075,65.5121455 C33.9345116,63.4133717 41.7571372,59.4102716 49.7630867,55.2821406 L50.7715854,54.7622461 C61.3754583,49.2996394 72.4999846,43.770146 89.7755054,42.9105311 Z"
              id="Path" stroke="#000000" fill-rule="nonzero"/>
    </g>
    <g id="wig" stroke-width="12" fill="none" stroke="#000" transform="translate(292.8621, 561)" stroke-linecap="round"
       stroke-linejoin="round">
        <path class="stroke"
              d="M43.9064284,0 C43.9064284,0 67.2040042,6.48586876 69.4141066,20.2280659 C71.6101318,33.970263 0,57 0,57"
              id="wing"/>
        <path class="stroke"
              d="M175.391584,0 C175.391584,0 152.089497,6.48586876 149.893047,20.2280659 C147.682516,33.970263 219.306513,57 219.306513,57"
              id="wing"/>
    </g>
    <g id="eye" stroke-width="12" transform="translate(383.1648, 122)">
        <path class="stroke"
              d="M84.5960963,90.1479539 C100.709873,79.9048719 111.592633,62.1024235 109.993877,43.9908561 C108.92804,31.8087545 102.37875,21.3408587 93.6557133,13.7112379 C87.3728829,8.21734899 79.9540944,4.19880106 72.6194509,2.04901842 C42.5375958,-6.66251905 3.08759176,13.3599663 0.170563382,43.9908561 C-2.39586062,71.0949783 24.3762893,99 55.0892323,99 C65.6915085,99 75.915132,95.6839954 84.5960963,90.1479539 L84.5960963,90.1479539 Z"
              id="Path" stroke="#000000" fill="#FFFFFF" fill-rule="nonzero" stroke-linecap="round"
              stroke-linejoin="round"/>
        <path d="M49.1066736,37 C55.9605277,37 61.5249042,42.579096 61.5249042,49.4858757 C61.5249042,56.3926554 55.9605277,62 49.1066736,62 C42.2528194,62 36.7164751,56.4067797 36.7164751,49.4858757 C36.7164751,42.5649718 42.2668355,37 49.1066736,37 Z"
              id="Path" stroke-width="" fill="#000000" fill-rule="nonzero"/>
    </g>
    <g id="eye" stroke-width="12" transform="translate(278.9693, 137)">
        <path class="stroke"
              d="M14.2691296,11.7230517 C21.5972134,5.18168199 31.0032037,0.99352452 40.6585429,0.153091584 C63.612484,-1.8079186 87.2590607,15.2808844 89.1845874,39.3312736 C91.2209358,64.6843339 68.2115839,86.843749 43.0550618,85.9753016 C35.6854198,85.7231717 28.6066848,83.5100317 22.3868179,79.8541484 C21.3478646,79.2378309 20.3366167,78.593499 19.3530743,77.9071454 C7.03801474,69.3207223 -1.12123168,54.879283 0.125512253,39.3312736 C0.859705904,30.0444897 4.82158108,21.7942397 10.708983,15.25287 C11.8310525,14.0062278 13.0223856,12.8296217 14.2691296,11.7230517 L14.2691296,11.7230517 Z"
              id="Path" stroke="#000000" fill="#FFFFFF" fill-rule="nonzero" stroke-linecap="round"
              stroke-linejoin="round"/>
        <path d="M53.0900383,32 C59.3799387,32 64.5019157,37.1253086 64.5019157,43.4858025 C64.5019157,49.8462963 59.3799387,55 53.0900383,55 C46.8001379,55 41.6781609,49.8604938 41.6781609,43.4858025 C41.6781609,37.1111111 46.7860666,32 53.0900383,32 Z"
              id="Path" fill="#000000" fill-rule="nonzero"/>
    </g>
</svg>
