<svg width="36" height="36" viewBox="0 0 36 36" fill="none" xmlns="http://www.w3.org/2000/svg">
<path d="M23.1543 2.53845C28.5848 2.5387 32.9998 6.95542 33 12.3842V27.7689C33 30.655 30.6555 33.0002 27.7695 33.0004H8.23047C5.34448 33.0002 3 30.655 3 27.7689V12.3842C3.00024 6.95542 7.4152 2.5387 12.8457 2.53845H23.1543Z" fill="#FBC104" stroke="black" stroke-width="2"/>
<path d="M32 25.0482V27.7222C32 30.082 30.1031 32 27.7692 32H25.1246C25.1092 31.8056 25.0769 31.636 25.0769 31.4167C25.0769 27.0207 27.0754 25 31.4231 25C31.64 25 31.8077 25.0327 32 25.0482ZM4.57692 25C4.36 25 4.19231 25.0327 4 25.0482V27.7222C4 30.082 5.89692 32 8.23077 32H10.8754C10.8908 31.8056 10.9231 31.636 10.9231 31.4167C10.9231 27.0207 8.92462 25 4.57692 25Z" fill="#FFE7AD"/>
<path d="M4 15H32V18H4V15Z" fill="#FFE7AD"/>
<path d="M19.5383 12.2308H16.4614C14.9767 12.2308 13.769 13.4385 13.769 14.9231V18C13.769 20.3339 15.666 22.2308 17.9998 22.2308C20.3337 22.2308 22.2306 20.3339 22.2306 18V14.9231C22.2306 13.4385 21.0229 12.2308 19.5383 12.2308Z" fill="white"/>
</svg>
