<svg width="36" height="36" viewBox="0 0 36 36" fill="none" xmlns="http://www.w3.org/2000/svg">
<path d="M24.7773 1V5.95215H21.7568C23.3011 6.39012 24.7372 7.09037 26.0166 8.00391L27.499 6.48926L28.2139 5.75879L28.9287 6.48926L30.9707 8.57715L31.6553 9.27637L30.9707 9.97559L29.4639 11.5156C30.8043 13.4674 31.648 15.7332 31.9111 18.1084C32.2069 20.7769 31.7592 23.4773 30.6191 25.8994C29.4789 28.3217 27.6914 30.3695 25.459 31.8037C23.2264 33.238 20.6408 34 18 34C15.3592 34 12.7736 33.238 10.541 31.8037C8.30861 30.3695 6.5211 28.3217 5.38086 25.8994C4.24073 23.4773 3.79314 20.7769 4.08887 18.1084C4.3521 15.7334 5.19494 13.4673 6.53516 11.5156L5.0293 9.97754L4.34473 9.27832L5.0293 8.57812L7.07129 6.49121L7.78613 5.76074L8.50098 6.49121L9.98242 8.00391C11.2839 7.07404 12.7257 6.38305 14.2441 5.95215H11.2227V1H24.7773Z" fill="#FBC104" stroke="black" stroke-width="2"/>
<circle cx="18" cy="20" r="10.5" fill="white" stroke="#E69B36"/>
<rect x="17" y="14" width="2" height="6" fill="#E69B36"/>
<circle cx="18" cy="20" r="3" fill="#E69B36"/>
</svg>
