<?xml version="1.0" encoding="UTF-8"?>
<svg id="Layer_1" data-name="Layer 1" xmlns="http://www.w3.org/2000/svg" viewBox="0 0 640 640">
  <defs>
    <style>
      .cls-1 {
        fill: #fff;
      }

      .cls-2 {
        fill: none;
        stroke-width: 12.07px;
      }

      .cls-2, .cls-3 {
        stroke: #000;
        stroke-linecap: round;
        stroke-linejoin: round;
      }

      .cls-3 {
        fill: #f9edd4;
        stroke-width: 22.68px;
      }

      .cls-4 {
        fill: #f4d4ab;
      }

      .cls-5 {
        opacity: .5;
      }
    </style>
  </defs>
  <g>
    <path class="cls-3" d="M537.74,375.02c-5.44,164.42-115.64,246.87-248.08,242.48-132.43-4.38-236.95-93.93-231.51-258.35C63.59,194.74,176.92,17.71,309.36,22.09c132.43,4.38,233.82,188.51,228.38,352.93Z"/>
    <path class="cls-4" d="M506.9,375.71c-2.04,62.03-21.44,114.03-56.05,150.39-32.02,33.62-76.23,53.57-127.86,57.67-9.34.74-19.01.96-28.69.63-58.67-1.95-108.38-22.32-143.72-58.92-17.13-17.72-30.37-38.94-39.53-63.11,38.76,30.69,88.43,47.33,142.95,49.13,128.99,4.26,236.32-76.03,241.62-236.17.03-.74.04-1.47.06-2.22,8.36,34.08,12.32,69.16,11.21,102.6Z"/>
    <g class="cls-5">
      <path class="cls-1" d="M327.84,94.11c32.52,1.08,63.19,12.87,90.92,32.46-13.98-18.36-29.38-33.86-45.4-45.55-23.54-17.17-48.18-26.29-73.22-27.12-4.23-.14-8.52-.04-12.76.3-47.72,3.79-95.09,37.34-133.39,94.47-34.24,51.08-56.27,114.15-61.67,175.58,38.77-126.19,131.3-233.59,235.52-230.14Z"/>
    </g>
  </g>
  <polyline class="cls-2" points="91.88 205.6 197.9 302.94 251.99 293.98 350.62 352.81 411.07 352.81 426.98 401.15 466.75 386.81 530.23 412.71"/>
  <polyline class="cls-2" points="371.03 355.75 376.69 379.08 394.37 399.59 394.37 420.8 385.88 458.98 412.05 475.95"/>
  <polyline class="cls-2" points="292.99 215.76 285.15 230.84 286.96 253.37 276.32 263.33 251.38 275.06 260.76 302.12"/>
  <polygon points="251.38 294.86 275.81 366.98 320.12 377.67 334.97 393.58 373.16 381.56 367.85 355.75 350.18 355.75 251.38 294.86"/>
</svg>