<?xml version="1.0" encoding="UTF-8"?>
<svg width="640px" height="640px" viewBox="0 0 640 640" version="1.1" xmlns="http://www.w3.org/2000/svg" xmlns:xlink="http://www.w3.org/1999/xlink">
    <g id="egg" stroke="none" fill="none" xlink:href="#path-1">
        <path d="M174.048235,109.342415 C221.08467,46.2621136 282.988628,3.96755487 349.810386,6.17609857 C416.631961,8.38463623 475.603668,54.6747273 518.365762,120.723416 C565.070308,192.861466 592.51608,288.833092 589.520465,379.185013 C586.796578,461.864501 559.004481,524.925857 515.298823,567.62491 C467.758294,614.070511 401.536501,636.314792 329.040331,633.919014 C256.554173,631.523254 191.953033,604.954679 147.584929,555.471289 C106.795013,509.978623 83.2243526,445.218298 85.9569432,362.537928 C88.9430405,272.18717 122.675383,178.23826 174.048235,109.342415 Z" id="Path" stroke="#000000" stroke-width="20" fill="#F9EDD4" fill-rule="nonzero"/>
        <path d="M576.342909,376.636075 C573.951952,449.068148 551.302734,509.79253 510.86035,552.251433 C473.457631,591.524065 421.801846,614.809773 361.471891,619.607703 C350.555042,620.47837 339.267502,620.719192 327.961428,620.348696 C259.402134,618.070142 201.333394,594.284265 160.038421,551.547489 C140.021109,530.855258 124.544761,506.06904 113.850327,477.855729 C159.130228,513.701268 217.161898,533.133812 280.883675,535.227117 C431.606622,540.210295 557.011375,446.437623 563.183379,259.429497 C563.220449,258.55883 563.238983,257.706688 563.257518,256.836021 C573.025225,296.645874 577.658862,337.604266 576.361443,376.6546 L576.342909,376.636075 Z" id="Path" fill="#F4D4AB" fill-rule="nonzero"/>
        <path d="M387.113137,91.0485465 C425.331375,92.3082347 461.362537,106.164805 493.964807,129.17264 C477.543198,107.609742 459.434944,89.3998369 440.603843,75.6729403 C412.931763,55.5179288 383.980798,44.7920541 354.56647,43.8287632 C349.599211,43.6620397 344.557814,43.7731887 339.572021,44.1807349 C283.486478,48.6266933 227.827229,88.0475245 182.825346,155.144447 C142.586842,215.146361 116.712613,289.208618 110.355263,361.362818 C155.913182,213.145679 264.655377,87.0101343 387.131671,91.0670713 L387.113137,91.0485465 Z" id="Path" fill="#FFFFFF" fill-rule="nonzero"/>
    </g>
</svg>
