<?xml version="1.0" encoding="UTF-8"?>
<svg width="640px" height="640px" viewBox="0 0 640 640" version="1.1" xmlns="http://www.w3.org/2000/svg" xmlns:xlink="http://www.w3.org/1999/xlink">
    <g id="Group" transform="translate(-15, -10)">
        <path d="M407.76,323.4 C419.52,418.09 363.84,475.29 287.57,484.76 C211.3,494.23 143.32,452.38 131.57,357.69 C119.81,263 168.73,151.33 245,141.86 C321.27,132.39 396.01,228.71 407.77,323.4 L407.76,323.4 Z" id="Path" stroke="#000000" stroke-width="16" fill="#F9EDD4" fill-rule="nonzero"/>
        <path d="M399.4,322.03 C404.23,360.86 397.26,395.14 379.29,421.19 C362.66,445.27 337.09,462.04 305.35,469.67 C299.6,471.05 293.61,472.14 287.55,472.89 C250.82,477.45 217.87,469.65 192.27,450.33 C179.86,440.98 169.53,429.07 161.45,414.92 C188.6,430.22 221.16,435.7 255.29,431.45 C336.03,421.42 394.97,360.87 382.52,260.63 C382.46,260.16 382.4,259.71 382.34,259.24 C390.89,279.64 396.81,301.09 399.41,322.02 L399.4,322.03 Z" id="Path" fill="#F4D4AB" fill-rule="nonzero"/>
        <g opacity="0.5" fill="#FFFFFF" fill-rule="nonzero" id="Path">
            <path d="M265.36,176 C285.83,173.46 306.2,177.81 325.51,187.34 C314.94,177.22 303.76,169.04 292.57,163.3 C276.13,154.88 259.8,151.6 244.03,153.56 C241.37,153.89 238.69,154.38 236.07,155.01 C206.56,162.1 180.21,187.8 161.88,227.36 C145.49,262.74 137.93,304.41 140.62,343.42 C152.42,260.56 199.75,184.15 265.36,176 Z"/>
        </g>
    </g>
    <g id="Group" transform="translate(-15, -10)">
        <path d="M534.57,424.9 C515.25,502.13 454.73,529.9 392.52,514.35 C330.32,498.79 290,445.79 309.31,368.56 C328.63,291.33 400.27,219.13 462.47,234.69 C524.67,250.25 553.88,347.68 534.57,424.9 L534.57,424.9 Z" id="Path" stroke="#000000" stroke-width="16" fill="#F9EDD4" fill-rule="nonzero"/>
        <path d="M528.47,421.33 C520.55,453 504.83,477.58 483.01,492.45 C462.83,506.19 437.89,511.56 410.89,507.95 C406,507.3 401.01,506.34 396.07,505.1 C366.12,497.6 342.82,481.63 328.7,458.9 C321.85,447.89 317.39,435.52 315.36,422.08 C331.89,442.15 355.59,456.2 383.42,463.16 C449.27,479.63 513.34,450.22 533.79,368.47 C533.89,368.09 533.98,367.72 534.06,367.34 C534.58,385.79 532.74,404.26 528.47,421.33 Z" id="Path" fill="#F4D4AB" fill-rule="nonzero"/>
        <g opacity="0.5" fill="#FFFFFF" fill-rule="nonzero" id="Path">
            <path d="M468.06,267.38 C484.76,271.56 499.3,281.07 511.46,294.29 C506.28,283.24 500.04,273.51 493.05,265.68 C482.79,254.18 471.06,246.72 458.21,243.51 C456.04,242.97 453.81,242.54 451.58,242.24 C426.48,238.89 398.25,250.96 372.09,276.24 C348.7,298.84 330.29,329 320.65,360.17 C354.74,299.23 414.55,254 468.06,267.38 L468.06,267.38 Z"/>
        </g>
    </g>
</svg>
