<?xml version="1.0" encoding="UTF-8"?>
<svg width="640px" height="640px" viewBox="0 0 640 640" version="1.1" xmlns="http://www.w3.org/2000/svg" xmlns:xlink="http://www.w3.org/1999/xlink">
    <g id="Group" transform="translate(0, 0)">
        <path d="M198.527063,7.06288316 C259.877094,-0.551572948 320.39566,33.2634737 368.971032,87.4188983 C422.091632,146.641681 461.047019,230.439022 471.365684,313.490649 C480.793329,389.435329 464.508349,451.070925 430.735759,496.390273 C394.005753,545.678169 336.71971,575.536339 270.15632,583.797851 C203.592147,592.05946 140.739068,577.109906 93.0680135,538.294774 C49.2361781,502.605645 18.3716829,446.820778 8.94403472,370.876076 C-1.37441421,287.826182 15.8954833,197.054927 52.9130964,126.647227 C86.7649705,62.2607795 137.175761,14.6774969 198.527063,7.06288316 Z" id="Path" stroke="#000000" stroke-width="20" fill="#F9EDD4" fill-rule="nonzero"/>
        <path d="M461.449142,310.806746 C469.7197,377.475578 457.784753,436.332326 427.014167,481.058648 C398.538104,522.402595 354.753802,551.195701 300.404419,564.295963 C290.558516,566.665342 280.301654,568.536808 269.924929,569.824514 C207.031014,577.653767 150.60971,564.261625 106.774039,531.090318 C85.5240122,515.036917 67.8356338,494.588145 54,470.293426 C100.489784,496.562628 156.243279,505.971466 214.685133,498.674466 C352.938731,481.453544 453.863516,377.492747 432.544996,205.386548 C432.442256,204.579586 432.339516,203.806962 432.236776,203 C446.877206,238.025603 457.014205,274.853995 461.466265,310.789576 L461.449142,310.806746 Z" id="Path" fill="#F4D4AB" fill-rule="nonzero"/>
        <g opacity="0.5" transform="translate(18, 19)" fill="#FFFFFF" fill-rule="nonzero" id="Path">
            <path d="M214.842741,39.4825623 C249.948794,35.120513 284.883347,42.5909518 318,58.9572233 C299.872448,41.5777199 280.698747,27.5298603 261.507895,17.6723159 C233.313292,3.21229423 205.30734,-2.42058831 178.261787,0.945402477 C173.699887,1.51212542 169.103686,2.35362311 164.610386,3.43554872 C114.000731,15.6115052 68.8104773,59.7472007 37.3745245,127.68526 C9.2656719,188.444828 -3.69972928,260.006479 0.913621144,327 C21.150623,184.701022 102.32158,53.4789016 214.842741,39.4825623 Z"></path>
        </g>
    </g>
    <g id="Group" transform="translate(226, 138)">
        <path d="M122.899332,59.2424312 C168.869572,19.0401356 222.712618,-3.07726629 273.057272,9.52384187 C323.401507,22.1248451 360.495634,67.0027162 382.136213,124.124682 C405.875435,186.786173 411.03682,264.460465 393.943151,332.854619 C378.332996,395.288781 346.93057,438.728025 306.735086,464.053204 C263.035628,491.586064 209.109947,497.632504 154.456006,483.963784 C99.8100556,470.286075 55.0819766,439.550349 29.4830168,394.674704 C5.93571356,353.395667 -1.33225233,300.275621 14.2701843,237.840011 C31.3722521,169.438814 72.4730259,103.341684 122.899332,59.2424312 Z" id="Path" stroke="#000000" stroke-width="20" fill="#F9EDD4" fill-rule="nonzero"/>
        <path d="M389.141872,328.346716 C375.385954,383.102976 348.082542,425.600888 310.184294,451.310569 C275.134493,475.066521 231.817247,484.351053 184.922073,478.109496 C176.428836,476.98567 167.761913,475.325866 159.181833,473.181951 C107.162927,460.214728 66.6941289,432.603188 42.1696897,393.303858 C30.2722104,374.267975 22.5258223,352.880702 19,329.643438 C47.7102677,364.343727 88.8738094,388.635658 137.210576,400.669241 C251.582695,429.145262 362.863206,378.296459 398.381958,236.953728 C398.555644,236.296722 398.711961,235.657006 398.85091,235 C399.754076,266.899368 396.558257,298.833316 389.141872,328.346716 Z" id="Path" fill="#F4D4AB" fill-rule="nonzero"/>
        <g opacity="0.5" transform="translate(28, 17)" fill="#FFFFFF" fill-rule="nonzero" id="Path">
            <path d="M255.713589,44.6651882 C284.683245,51.932992 309.905927,68.4681149 331,91.4538484 C322.014203,72.2411136 311.189613,55.3234746 299.06399,41.7093828 C281.265867,21.7142288 260.917719,8.74345941 238.626697,3.16220339 C234.862376,2.22330051 230.993973,1.47565562 227.12557,0.954042911 C183.584351,-4.87063237 134.61349,16.1155857 89.2334783,60.0701503 C48.6586133,99.3649746 16.7226036,151.804439 0,206 C59.1362612,100.043071 162.889262,21.4012612 255.713589,44.6651882 L255.713589,44.6651882 Z"></path>
        </g>
    </g>
</svg>
