<svg width="28" height="28" viewBox="0 0 28 28" fill="none" xmlns="http://www.w3.org/2000/svg">
<path d="M26.1308 9.07269C24.6179 6.87975 22.3563 5.54662 20.8815 5.07236C20.8245 5.05395 20.7602 5.03366 20.6896 5.01242C20.5981 4.89209 20.4972 4.78072 20.3872 4.68162C19.7788 4.13091 19.0771 4.0705 18.5647 4.02614C18.16 3.99122 17.4067 3.92563 16.629 4.34279C16.5023 4.41075 16.3796 4.48908 16.2628 4.57591C15.6793 4.60989 15.113 4.65095 14.3842 4.82272C12.3032 5.31161 10.903 6.36773 10.3969 6.79953C9.24849 7.7825 8.58621 8.84618 8.29333 9.39311C7.46899 10.9339 7.14985 12.6568 6.77956 14.6515L6.77458 14.6784C5.78049 15.1909 4.77101 15.6921 3.79276 16.1772C2.7525 16.6935 1.67647 17.2272 0.617649 17.7755L0.621724 17.7845L0.488635 17.8784L0.470075 17.8921C0.28357 18.0389 0.144144 18.2371 0.0671881 18.465C-0.152363 19.1106 0.198013 19.7873 0.657033 20.1219C1.08391 20.4343 1.59906 20.5211 2.04677 20.565C3.77646 20.7339 5.52337 20.4394 7.11364 19.7122C7.12269 19.7198 7.13174 19.7273 7.1408 19.7344C7.21459 19.7958 7.28792 19.8576 7.36125 19.9208C7.3685 19.927 7.37574 19.9336 7.38298 19.9397C7.45315 20.0001 7.52286 20.0615 7.59212 20.1233C7.60525 20.1346 7.61793 20.1464 7.63105 20.1577C7.70303 20.2219 7.77455 20.2861 7.84562 20.3507C7.86237 20.3658 7.87912 20.3809 7.89587 20.396C7.96468 20.4583 8.03303 20.5206 8.10094 20.5829C9.35034 21.7221 10.6427 22.9 12.573 22.9939C12.6662 22.9986 12.7568 23 12.8401 23C13.0356 23 13.1891 22.9906 13.2344 22.9868C13.4697 22.9689 13.9731 22.9292 14.8061 22.5356C14.8292 22.5248 14.8527 22.5135 14.8762 22.5021C14.9233 22.479 14.9717 22.455 15.0211 22.4299C15.0455 22.4172 15.0709 22.4045 15.0958 22.3912C15.146 22.3648 15.1976 22.337 15.2501 22.3082C15.8273 21.9897 16.5308 21.5182 17.3755 20.8174C18.0608 20.2488 18.7231 19.6259 19.3474 18.9624C20.384 19.414 21.48 19.6452 22.6103 19.6481H22.6266C22.819 19.6481 23.0127 19.6405 23.2056 19.6264L23.2069 19.6396L23.6555 19.5825C23.6555 19.5825 23.6569 19.5825 23.6574 19.5825L24.0987 19.5263L24.0969 19.5093C25.875 19.1483 27.5169 18.0573 27.5912 18.0073L27.7501 17.9006L27.7881 17.7071C28.0113 16.5689 28.5513 12.5827 26.1308 9.07458V9.07269Z" fill="#AAAAAA"/>
<path d="M16.556 14.192V13.568C16.556 12.692 16.904 12.464 17.804 11.984C18.464 11.636 18.74 11.468 18.74 11.012C18.74 10.472 18.368 10.052 17.468 10.052C16.808 10.052 16.256 10.292 16.184 11.312H14.456C14.528 9.428 15.836 8.456 17.54 8.456C19.196 8.456 20.468 9.356 20.468 10.952C20.468 12.152 19.748 12.608 18.812 13.1C18.368 13.34 18.224 13.508 18.224 13.904V14.192H16.556ZM17.384 17.144C16.76 17.144 16.292 16.736 16.292 16.124C16.292 15.512 16.76 15.104 17.384 15.104C18.02 15.104 18.488 15.512 18.488 16.124C18.488 16.736 18.02 17.144 17.384 17.144Z" fill="white"/>
</svg>
