<svg width="36" height="36" viewBox="0 0 36 36" fill="none" xmlns="http://www.w3.org/2000/svg">
<path d="M18.0001 29.6666C13.6601 29.6666 10.0785 28.5 8.41014 26.5983C5.63347 23.3783 5.63347 12.5983 8.41014 9.40165C10.0785 7.49998 13.6601 6.33331 18.0001 6.33331C22.3401 6.33331 25.9218 7.49998 27.5901 9.40165C30.3668 12.6216 30.3668 23.4016 27.5901 26.5983C25.9218 28.5 22.3401 29.6666 18.0001 29.6666ZM18.0001 8.66665C14.5001 8.66665 11.3501 9.57665 10.1835 10.93C8.1768 13.2633 8.1768 22.76 10.1835 25.07C11.3501 26.4233 14.5001 27.3333 18.0001 27.3333C21.5001 27.3333 24.6501 26.4233 25.8168 25.07C27.8235 22.7366 27.8235 13.24 25.8168 10.93C24.6501 9.57665 21.5001 8.66665 18.0001 8.66665Z" fill="#808080"/>
<path d="M18.0003 20.9167C17.6909 20.9167 17.3941 20.7938 17.1753 20.575C16.9565 20.3562 16.8336 20.0594 16.8336 19.75V18.665C16.8274 18.1894 16.9751 17.7245 17.2547 17.3397C17.5344 16.9549 17.931 16.6709 18.3853 16.53C18.6208 16.4588 18.8319 16.3237 18.9951 16.1396C19.1584 15.9556 19.2674 15.7299 19.3101 15.4877C19.3528 15.2454 19.3274 14.996 19.2368 14.7673C19.1463 14.5386 18.9941 14.3395 18.7971 14.1921C18.6001 14.0447 18.3662 13.9548 18.1212 13.9325C17.8762 13.9101 17.6298 13.9561 17.4094 14.0654C17.189 14.1747 17.0033 14.3429 16.8728 14.5515C16.7423 14.76 16.6722 15.0007 16.6703 15.2467C16.6703 15.5561 16.5474 15.8528 16.3286 16.0716C16.1098 16.2904 15.813 16.4133 15.5036 16.4133C15.1942 16.4133 14.8975 16.2904 14.6787 16.0716C14.4599 15.8528 14.337 15.5561 14.337 15.2467C14.3342 14.6872 14.4614 14.1347 14.7083 13.6326C14.9553 13.1305 15.3154 12.6926 15.7603 12.3533C16.1816 12.0271 16.669 11.7967 17.1885 11.6782C17.708 11.5597 18.2472 11.5559 18.7683 11.6672C19.2894 11.7785 19.7799 12.0021 20.2057 12.3225C20.6315 12.6429 20.9823 13.0523 21.2336 13.5222C21.4849 13.992 21.6307 14.5111 21.6607 15.0431C21.6908 15.5751 21.6044 16.1073 21.4077 16.6025C21.2109 17.0977 20.9085 17.544 20.5215 17.9103C20.1345 18.2766 19.6722 18.5541 19.167 18.7233V19.75C19.167 20.0594 19.044 20.3562 18.8252 20.575C18.6065 20.7938 18.3097 20.9167 18.0003 20.9167Z" fill="#808080"/>
<path d="M18.0002 23.8333C18.6445 23.8333 19.1668 23.311 19.1668 22.6667C19.1668 22.0223 18.6445 21.5 18.0002 21.5C17.3558 21.5 16.8335 22.0223 16.8335 22.6667C16.8335 23.311 17.3558 23.8333 18.0002 23.8333Z" fill="#808080"/>
</svg>
